shantell_bounce--extrabold.ufo
<glyph name="numbersign" format="2">
	<unicode hex="0023"/>
	<advance width="1029"/>
	<image fileName="numbersign.png" xScale="1.7590725526" yScale="1.7590725526" xOffset="11.9256325946" yOffset="-214.5705612106" color="0,0,0,0.3075"/>
	<outline>
		<contour>
			<point x="539" y="551.0966331957" type="curve" smooth="yes"/>
			<point x="539" y="388.0966331957"/>
			<point x="332" y="-28.9033668043"/>
			<point x="332" y="-208.9033668043" type="curve" smooth="yes"/>
			<point x="332" y="-258.9033668043"/>
			<point x="290" y="-297.9033668043"/>
			<point x="248" y="-296.9033668043" type="curve" smooth="yes"/>
			<point x="194" y="-295.9033668043"/>
			<point x="150" y="-256.9033668043"/>
			<point x="150" y="-179.9033668043" type="curve" smooth="yes"/>
			<point x="150" y="-11.9033668043"/>
			<point x="358" y="407.0966331957"/>
			<point x="358" y="563.0966331957" type="curve" smooth="yes"/>
			<point x="358" y="629.0966331957"/>
			<point x="385" y="660.0966331957"/>
			<point x="433" y="661.0966331957" type="curve" smooth="yes"/>
			<point x="490" y="662.0966331957"/>
			<point x="539" y="611.0966331957"/>
		</contour>
		<contour>
			<point x="828" y="610.0966331957"/>
			<point x="884" y="569.0966331957"/>
			<point x="884" y="506.0966331957" type="curve" smooth="yes"/>
			<point x="884" y="361.0966331957"/>
			<point x="682" y="12.0966331957"/>
			<point x="682" y="-259.9033668043" type="curve" smooth="yes"/>
			<point x="682" y="-316.9033668043"/>
			<point x="649" y="-347.9033668043"/>
			<point x="604" y="-346.9033668043" type="curve" smooth="yes"/>
			<point x="540" y="-345.9033668043"/>
			<point x="499" y="-300.9033668043"/>
			<point x="500" y="-243.9033668043" type="curve" smooth="yes"/>
			<point x="505" y="24.0966331957"/>
			<point x="706" y="366.0966331957"/>
			<point x="706" y="529.0966331957" type="curve" smooth="yes"/>
			<point x="706" y="580.0966331957"/>
			<point x="727" y="610.0966331957"/>
			<point x="772" y="610.0966331957" type="curve" smooth="yes"/>
		</contour>
		<contour>
			<point x="128" y="95.0966331957" type="curve" smooth="yes"/>
			<point x="371.2781456954" y="95.0966331957"/>
			<point x="659.7218543046" y="128.0966331957"/>
			<point x="903" y="128.0966331957" type="curve" smooth="yes"/>
			<point x="962" y="128.0966331957"/>
			<point x="983" y="107.0966331957"/>
			<point x="984" y="69.0966331957" type="curve" smooth="yes"/>
			<point x="986" y="15.0966331957"/>
			<point x="942" y="-39.9033668043"/>
			<point x="838" y="-43.9033668043" type="curve" smooth="yes"/>
			<point x="639.9896802498" y="-49.0598855478"/>
			<point x="354.2978056426" y="-100.9033668043"/>
			<point x="180" y="-100.9033668043" type="curve" smooth="yes"/>
			<point x="66" y="-100.9033668043"/>
			<point x="32" y="-41.9033668043"/>
			<point x="35" y="17.0966331957" type="curve" smooth="yes"/>
			<point x="37" y="60.0966331957"/>
			<point x="78" y="95.0966331957"/>
		</contour>
		<contour>
			<point x="330.8708708709" y="454.0966331957"/>
			<point x="374" y="400.0966331957"/>
			<point x="920" y="400.0966331957" type="curve" smooth="yes"/>
			<point x="967" y="400.0966331957"/>
			<point x="993" y="376.0966331957"/>
			<point x="994" y="332.0966331957" type="curve" smooth="yes"/>
			<point x="995" y="285.0966331957"/>
			<point x="956" y="239.0966331957"/>
			<point x="890" y="239.0966331957" type="curve" smooth="yes"/>
			<point x="660" y="239.0966331957"/>
			<point x="459" y="246.0966331957"/>
			<point x="290" y="266.0966331957" type="curve" smooth="yes"/>
			<point x="177" y="278.0966331957"/>
			<point x="153" y="332.0966331957"/>
			<point x="153" y="377.0966331957" type="curve" smooth="yes"/>
			<point x="153" y="422.0966331957"/>
			<point x="178" y="454.0966331957"/>
			<point x="240" y="454.0966331957" type="curve" smooth="yes"/>
		</contour>
	</outline>
</glyph>
<glyph name="dollar" format="2">
	<unicode hex="0024"/>
	<advance width="603"/>
	<outline>
		<contour>
			<point x="262" y="-150.6048410283" type="curve" smooth="yes"/>
			<point x="459" y="-150.6048410283"/>
			<point x="556" y="-95.6048410283"/>
			<point x="556" y="26.3951589717" type="curve" smooth="yes"/>
			<point x="556" y="220.3951589717"/>
			<point x="226" y="243.3951589717"/>
			<point x="226" y="309.3951589717" type="curve" smooth="yes"/>
			<point x="226" y="362.3951589717"/>
			<point x="312" y="388.3951589717"/>
			<point x="488" y="398.3951589717" type="curve" smooth="yes"/>
			<point x="529" y="400.3951589717"/>
			<point x="554" y="434.3951589717"/>
			<point x="554" y="473.3951589717" type="curve" smooth="yes"/>
			<point x="554" y="522.3951589717"/>
			<point x="530" y="568.3951589717"/>
			<point x="458" y="568.3951589717" type="curve" smooth="yes"/>
			<point x="329" y="568.3951589717"/>
			<point x="47" y="497.3951589717"/>
			<point x="47" y="313.3951589717" type="curve" smooth="yes"/>
			<point x="47" y="115.3951589717"/>
			<point x="382.9327678114" y="151.7649360091"/>
			<point x="405" y="30.3951589717" type="curve"/>
			<point x="350.4439060533" y="17.0592248958"/>
			<point x="318.1044776119" y="16.3951589717"/>
			<point x="241" y="16.3951589717" type="curve" smooth="yes"/>
			<point x="166" y="16.3951589717"/>
			<point x="148" y="43.3951589717"/>
			<point x="112" y="43.3951589717" type="curve" smooth="yes"/>
			<point x="70" y="43.3951589717"/>
			<point x="60" y="22.3951589717"/>
			<point x="60" y="-12.6048410283" type="curve" smooth="yes"/>
			<point x="60" y="-82.6048410283"/>
			<point x="131" y="-150.6048410283"/>
		</contour>
		<contour>
			<point x="321" y="306.3951589717" type="curve" smooth="yes"/>
			<point x="353" y="306.3951589717"/>
			<point x="371" y="328.3951589717"/>
			<point x="383" y="370.3951589717" type="curve" smooth="yes"/>
			<point x="407" y="462.3951589717"/>
			<point x="407" y="546.3951589717"/>
			<point x="392" y="618.3951589717" type="curve" smooth="yes"/>
			<point x="383" y="653.3951589717"/>
			<point x="347" y="679.3951589717"/>
			<point x="307" y="679.3951589717" type="curve" smooth="yes"/>
			<point x="257" y="679.3951589717"/>
			<point x="216" y="633.3951589717"/>
			<point x="224" y="585.3951589717" type="curve" smooth="yes"/>
			<point x="232" y="537.3951589717"/>
			<point x="245" y="491.3951589717"/>
			<point x="251" y="421.3951589717" type="curve" smooth="yes"/>
			<point x="258" y="342.3951589717"/>
			<point x="266" y="305.3951589717"/>
		</contour>
		<contour>
			<point x="278" y="70.3951589717" type="curve" smooth="yes"/>
			<point x="245" y="70.3951589717"/>
			<point x="221" y="50.3951589717"/>
			<point x="218" y="8.3951589717" type="curve" smooth="yes"/>
			<point x="212" y="-85.6048410283"/>
			<point x="201" y="-125.6048410283"/>
			<point x="210" y="-206.6048410283" type="curve" smooth="yes"/>
			<point x="214" y="-238.6048410283"/>
			<point x="251" y="-279.6048410283"/>
			<point x="321" y="-279.6048410283" type="curve" smooth="yes"/>
			<point x="358" y="-279.6048410283"/>
			<point x="375" y="-254.6048410283"/>
			<point x="373" y="-192.6048410283" type="curve" smooth="yes"/>
			<point x="370" y="-139.6048410283"/>
			<point x="355" y="-73.6048410283"/>
			<point x="346" y="-24.6048410283" type="curve" smooth="yes"/>
			<point x="334" y="35.3951589717"/>
			<point x="315" y="70.3951589717"/>
		</contour>
	</outline>
</glyph>
<glyph name="parenleft" format="2">
	<unicode hex="0028"/>
	<advance width="519"/>
	<image fileName="parenleft.png" xScale="2.5963710802" yScale="2.5963710802" xOffset="-138.7459756108" yOffset="-555.3762351949" color="0,0,0,0.18426"/>
	<outline>
		<contour>
			<point x="441" y="798.3377429693" type="curve" smooth="yes"/>
			<point x="341" y="680.3377429693"/>
			<point x="245" y="518.3377429693"/>
			<point x="245" y="328.3377429693" type="curve" smooth="yes"/>
			<point x="245" y="166.3377429693"/>
			<point x="319" y="58.3377429693"/>
			<point x="439" y="18.3377429693" type="curve" smooth="yes"/>
			<point x="483" y="3.3377429693"/>
			<point x="499" y="-9.6622570307"/>
			<point x="499" y="-40.6622570307" type="curve" smooth="yes"/>
			<point x="499" y="-89.6622570307"/>
			<point x="448" y="-120.6622570307"/>
			<point x="402" y="-120.6622570307" type="curve" smooth="yes"/>
			<point x="381" y="-120.6622570307"/>
			<point x="366" y="-118.6622570307"/>
			<point x="321" y="-100.6622570307" type="curve" smooth="yes"/>
			<point x="186" y="-44.6622570307"/>
			<point x="69" y="83.3377429693"/>
			<point x="69" y="328.3377429693" type="curve" smooth="yes"/>
			<point x="69" y="560.3377429693"/>
			<point x="181" y="762.3377429693"/>
			<point x="310" y="915.3377429693" type="curve" smooth="yes"/>
			<point x="333" y="943.3377429693"/>
			<point x="358" y="953.3377429693"/>
			<point x="383" y="953.3377429693" type="curve" smooth="yes"/>
			<point x="428" y="953.3377429693"/>
			<point x="474" y="907.3377429693"/>
			<point x="474" y="862.3377429693" type="curve" smooth="yes"/>
			<point x="474" y="842.3377429693"/>
			<point x="464" y="825.3377429693"/>
		</contour>
	</outline>
</glyph>
<glyph name="asterisk" format="2">
	<unicode hex="002A"/>
	<advance width="520"/>
	<image fileName="asterisk000000000000001.png" xScale="0.2628236287" yScale="0.2628236287" xOffset="-8.6573841831" yOffset="213.6021023181" color="0,0,0,0.2098"/>
	<outline>
		<contour>
			<point x="291" y="911.5550960149"/>
			<point x="334" y="853.5550960149"/>
			<point x="334" y="715.5550960149" type="curve" smooth="yes"/>
			<point x="334" y="644.5550960149"/>
			<point x="330" y="530.5550960149"/>
			<point x="346" y="443.5550960149" type="curve" smooth="yes"/>
			<point x="354" y="399.5550960149"/>
			<point x="336" y="371.5550960149"/>
			<point x="288" y="371.5550960149" type="curve" smooth="yes"/>
			<point x="253" y="371.5550960149"/>
			<point x="234" y="391.5550960149"/>
			<point x="228" y="419.5550960149" type="curve" smooth="yes"/>
			<point x="209" y="512.5550960149"/>
			<point x="214" y="638.5550960149"/>
			<point x="214" y="715.5550960149" type="curve" smooth="yes"/>
			<point x="214" y="822.5550960149"/>
			<point x="183" y="825.5550960149"/>
			<point x="183" y="866.5550960149" type="curve" smooth="yes"/>
			<point x="183" y="894.5550960149"/>
			<point x="198" y="911.5550960149"/>
			<point x="233" y="911.5550960149" type="curve" smooth="yes"/>
		</contour>
		<contour>
			<point x="455" y="741.5550960149" type="curve" smooth="yes"/>
			<point x="399" y="664.5550960149"/>
			<point x="249" y="585.5550960149"/>
			<point x="185" y="486.5550960149" type="curve" smooth="yes"/>
			<point x="172" y="466.5550960149"/>
			<point x="158" y="459.5550960149"/>
			<point x="137" y="459.5550960149" type="curve" smooth="yes"/>
			<point x="105" y="459.5550960149"/>
			<point x="75" y="488.5550960149"/>
			<point x="75" y="520.5550960149" type="curve" smooth="yes"/>
			<point x="75" y="531.5550960149"/>
			<point x="76" y="544.5550960149"/>
			<point x="95" y="569.5550960149" type="curve" smooth="yes"/>
			<point x="156" y="650.5550960149"/>
			<point x="319" y="749.5550960149"/>
			<point x="365" y="816.5550960149" type="curve" smooth="yes"/>
			<point x="381" y="840.5550960149"/>
			<point x="397" y="853.5550960149"/>
			<point x="421" y="853.5550960149" type="curve" smooth="yes"/>
			<point x="457" y="853.5550960149"/>
			<point x="473" y="827.5550960149"/>
			<point x="473" y="796.5550960149" type="curve" smooth="yes"/>
			<point x="473" y="773.5550960149"/>
			<point x="466" y="757.5550960149"/>
		</contour>
		<contour>
			<point x="129" y="784.5550960149" type="curve" smooth="yes"/>
			<point x="201" y="745.5550960149"/>
			<point x="346" y="697.5550960149"/>
			<point x="465" y="633.5550960149" type="curve" smooth="yes"/>
			<point x="485" y="623.5550960149"/>
			<point x="497" y="604.5550960149"/>
			<point x="497" y="579.5550960149" type="curve" smooth="yes"/>
			<point x="497" y="547.5550960149"/>
			<point x="480" y="518.5550960149"/>
			<point x="444" y="518.5550960149" type="curve" smooth="yes"/>
			<point x="425" y="518.5550960149"/>
			<point x="417" y="522.5550960149"/>
			<point x="378" y="543.5550960149" type="curve" smooth="yes"/>
			<point x="288" y="591.5550960149"/>
			<point x="141" y="641.5550960149"/>
			<point x="71" y="681.5550960149" type="curve" smooth="yes"/>
			<point x="32" y="704.5550960149"/>
			<point x="23" y="736.5550960149"/>
			<point x="23" y="757.5550960149" type="curve" smooth="yes"/>
			<point x="23" y="789.5550960149"/>
			<point x="42" y="805.5550960149"/>
			<point x="70" y="805.5550960149" type="curve" smooth="yes"/>
			<point x="90" y="805.5550960149"/>
			<point x="100" y="799.5550960149"/>
		</contour>
	</outline>
</glyph>
<glyph name="comma" format="2">
	<unicode hex="002C"/>
	<advance width="320"/>
	<outline>
		<contour>
			<point x="270" y="211.2477416421"/>
			<point x="223" y="254.131801682"/>
			<point x="149" y="254.131801682" type="curve" smooth="yes"/>
			<point x="95" y="254.131801682"/>
			<point x="70" y="218.131801682"/>
			<point x="70" y="163.131801682" type="curve" smooth="yes"/>
			<point x="70" y="136.131801682"/>
			<point x="80" y="63.131801682"/>
			<point x="52" y="-13.868198318" type="curve" smooth="yes"/>
			<point x="41.2456901304" y="-42.5463579703"/>
			<point x="37" y="-61.4270218474"/>
			<point x="37" y="-79.868198318" type="curve" smooth="yes"/>
			<point x="37" y="-112.1598649847"/>
			<point x="55" y="-129.868198318"/>
			<point x="93" y="-129.868198318" type="curve" smooth="yes"/>
			<point x="138" y="-129.868198318"/>
			<point x="185.7902388555" y="-94.6096697703"/>
			<point x="212" y="-52.868198318" type="curve" smooth="yes"/>
			<point x="246.5376602016" y="3.0015461257"/>
			<point x="270" y="79.1014986517"/>
			<point x="270" y="148.131801682" type="curve" smooth="yes"/>
		</contour>
	</outline>
</glyph>
<glyph name="hyphen" format="2">
	<unicode hex="002D"/>
	<advance width="531"/>
	<outline>
		<contour>
			<point x="206" y="94.6936803352" type="curve" smooth="yes"/>
			<point x="238.7592592593" y="94.6936803352"/>
			<point x="291.9259259259" y="104.6936803352"/>
			<point x="438" y="104.6936803352" type="curve" smooth="yes"/>
			<point x="469" y="104.6936803352"/>
			<point x="487" y="125.6936803352"/>
			<point x="487" y="158.6936803352" type="curve" smooth="yes"/>
			<point x="487" y="199.6936803352"/>
			<point x="444" y="267.6936803352"/>
			<point x="325" y="267.6936803352" type="curve" smooth="yes"/>
			<point x="241.9642857143" y="267.6936803352"/>
			<point x="160.9762270093" y="267.532519415"/>
			<point x="77" y="241.6936803352" type="curve" smooth="yes"/>
			<point x="49" y="233.6936803352"/>
			<point x="43" y="219.6936803352"/>
			<point x="43" y="197.6936803352" type="curve" smooth="yes"/>
			<point x="43" y="147.6936803352"/>
			<point x="101" y="94.6936803352"/>
		</contour>
	</outline>
</glyph>
<glyph name="period" format="2">
	<unicode hex="002E"/>
	<advance width="320"/>
	<outline>
		<contour>
			<point x="183" y="-168.6772180877" type="curve" smooth="yes"/>
			<point x="247" y="-168.6772180877"/>
			<point x="280" y="-134.6772180877"/>
			<point x="280" y="-95.6772180877" type="curve" smooth="yes"/>
			<point x="280" y="-24.6772180877"/>
			<point x="239" y="44.3227819123"/>
			<point x="135" y="44.3227819123" type="curve" smooth="yes"/>
			<point x="83" y="44.3227819123"/>
			<point x="41" y="10.3227819123"/>
			<point x="41" y="-51.6772180877" type="curve" smooth="yes"/>
			<point x="41" y="-130.6772180877"/>
			<point x="89" y="-168.6772180877"/>
		</contour>
	</outline>
</glyph>
<glyph name="four" format="2">
	<unicode hex="0034"/>
	<advance width="700"/>
	<outline>
		<contour>
			<point x="327" y="284.2644609792" type="curve" smooth="yes"/>
			<point x="327" y="441.9527726675"/>
			<point x="372" y="588.2644609792"/>
			<point x="372" y="686.2644609792" type="curve" smooth="yes"/>
			<point x="372" y="701.2644609792"/>
			<point x="369" y="713.2644609792"/>
			<point x="358" y="737.2644609792" type="curve"/>
			<point x="411" y="680.2644609792" type="line"/>
			<point x="316" y="621.2644609792"/>
			<point x="234" y="518.2644609792"/>
			<point x="180" y="396.2644609792" type="curve"/>
			<point x="127" y="466.2644609792" type="line"/>
			<point x="160" y="453.2644609792"/>
			<point x="168" y="450.2644609792"/>
			<point x="193" y="450.2644609792" type="curve" smooth="yes"/>
			<point x="322.15" y="450.2644609792"/>
			<point x="428.75" y="494.2644609792"/>
			<point x="603" y="494.2644609792" type="curve" smooth="yes"/>
			<point x="652" y="494.2644609792"/>
			<point x="692" y="442.2644609792"/>
			<point x="692" y="386.2644609792" type="curve" smooth="yes"/>
			<point x="692" y="348.2644609792"/>
			<point x="674" y="319.2644609792"/>
			<point x="629" y="319.2644609792" type="curve" smooth="yes"/>
			<point x="418.7700205339" y="319.2644609792"/>
			<point x="298.3470225873" y="274.2644609792"/>
			<point x="132" y="274.2644609792" type="curve" smooth="yes"/>
			<point x="61" y="274.2644609792"/>
			<point x="15" y="331.2644609792"/>
			<point x="15" y="379.2644609792" type="curve" smooth="yes"/>
			<point x="15" y="428.1999448502"/>
			<point x="22.7022043817" y="483.1021089587"/>
			<point x="73" y="564.2644609792" type="curve" smooth="yes"/>
			<point x="182" y="741.2644609792"/>
			<point x="341" y="842.2644609792"/>
			<point x="415" y="842.2644609792" type="curve" smooth="yes"/>
			<point x="508" y="842.2644609792"/>
			<point x="551" y="770.2644609792"/>
			<point x="551" y="708.2644609792" type="curve" smooth="yes"/>
			<point x="551" y="554.2644609792"/>
			<point x="502" y="439.0740995334"/>
			<point x="502" y="275.2644609792" type="curve" smooth="yes"/>
			<point x="502" y="227.2644609792"/>
			<point x="512" y="206.2644609792"/>
			<point x="512" y="180.2644609792" type="curve" smooth="yes"/>
			<point x="512" y="140.2644609792"/>
			<point x="476" y="116.2644609792"/>
			<point x="422" y="116.2644609792" type="curve" smooth="yes"/>
			<point x="354" y="116.2644609792"/>
			<point x="327" y="166.2644609792"/>
		</contour>
	</outline>
</glyph>
<glyph name="five" format="2">
	<unicode hex="0035"/>
	<advance width="700"/>
	<outline>
		<contour>
			<point x="601" y="384.011588466" type="curve" smooth="yes"/>
			<point x="438" y="384.011588466"/>
			<point x="362" y="365.011588466"/>
			<point x="170" y="368.011588466" type="curve"/>
			<point x="239" y="419.011588466" type="line"/>
			<point x="225" y="390.011588466"/>
			<point x="222" y="378.011588466"/>
			<point x="222" y="358.011588466" type="curve" smooth="yes"/>
			<point x="222" y="336.011588466"/>
			<point x="231" y="330.011588466"/>
			<point x="381" y="307.011588466" type="curve" smooth="yes"/>
			<point x="595" y="270.011588466"/>
			<point x="641" y="213.011588466"/>
			<point x="641" y="98.011588466" type="curve" smooth="yes"/>
			<point x="641" y="-59.988411534"/>
			<point x="483" y="-170.988411534"/>
			<point x="242" y="-170.988411534" type="curve" smooth="yes"/>
			<point x="123" y="-170.988411534"/>
			<point x="69" y="-118.988411534"/>
			<point x="69" y="-40.988411534" type="curve" smooth="yes"/>
			<point x="69" y="2.011588466"/>
			<point x="91" y="36.011588466"/>
			<point x="136" y="36.011588466" type="curve" smooth="yes"/>
			<point x="171" y="36.011588466"/>
			<point x="175" y="-0.988411534"/>
			<point x="233" y="-0.988411534" type="curve" smooth="yes"/>
			<point x="329" y="-0.988411534"/>
			<point x="457" y="34.011588466"/>
			<point x="457" y="96.011588466" type="curve" smooth="yes"/>
			<point x="457" y="122.011588466"/>
			<point x="446" y="139.011588466"/>
			<point x="365" y="153.011588466" type="curve" smooth="yes"/>
			<point x="90" y="202.011588466"/>
			<point x="45" y="233.011588466"/>
			<point x="45" y="348.011588466" type="curve" smooth="yes"/>
			<point x="45" y="385.011588466"/>
			<point x="54" y="432.011588466"/>
			<point x="73" y="488.011588466" type="curve" smooth="yes"/>
			<point x="84" y="524.011588466"/>
			<point x="98" y="541.011588466"/>
			<point x="134" y="541.011588466" type="curve" smooth="yes"/>
			<point x="324" y="541.011588466"/>
			<point x="392" y="557.011588466"/>
			<point x="534" y="557.011588466" type="curve" smooth="yes"/>
			<point x="620" y="557.011588466"/>
			<point x="666" y="503.011588466"/>
			<point x="663" y="444.011588466" type="curve" smooth="yes"/>
			<point x="662" y="408.011588466"/>
			<point x="637" y="384.011588466"/>
		</contour>
	</outline>
</glyph>
<glyph name="seven" format="2">
	<unicode hex="0037"/>
	<advance width="700"/>
	<outline>
		<contour>
			<point x="172" y="504.3338740007" type="curve" smooth="yes"/>
			<point x="285.9679144385" y="504.3338740007"/>
			<point x="386.5882352941" y="532.3338740007"/>
			<point x="556" y="532.3338740007" type="curve" smooth="yes"/>
			<point x="635" y="532.3338740007"/>
			<point x="682" y="485.3338740007"/>
			<point x="682" y="427.3338740007" type="curve" smooth="yes"/>
			<point x="682" y="391.3338740007"/>
			<point x="657" y="367.3338740007"/>
			<point x="611" y="367.3338740007" type="curve" smooth="yes"/>
			<point x="387.4245524297" y="367.3338740007"/>
			<point x="307.4296675192" y="339.3338740007"/>
			<point x="210" y="339.3338740007" type="curve" smooth="yes"/>
			<point x="153" y="339.3338740007"/>
			<point x="111" y="386.3338740007"/>
			<point x="111" y="436.3338740007" type="curve" smooth="yes"/>
			<point x="111" y="480.3338740007"/>
			<point x="130" y="504.3338740007"/>
		</contour>
		<contour>
			<point x="52" y="783.3338740007" type="curve" smooth="yes"/>
			<point x="151" y="820.3338740007"/>
			<point x="295.1998732257" y="848.3338740007"/>
			<point x="376" y="848.3338740007" type="curve" smooth="yes"/>
			<point x="553.0196078431" y="848.3338740007"/>
			<point x="620" y="773.3338740007"/>
			<point x="620" y="663.3338740007" type="curve" smooth="yes"/>
			<point x="620" y="503.3338740007"/>
			<point x="440" y="373.3338740007"/>
			<point x="440" y="208.3338740007" type="curve" smooth="yes"/>
			<point x="440" y="147.3338740007"/>
			<point x="421" y="129.3338740007"/>
			<point x="373" y="129.3338740007" type="curve" smooth="yes"/>
			<point x="315" y="129.3338740007"/>
			<point x="267" y="158.3338740007"/>
			<point x="267" y="221.3338740007" type="curve" smooth="yes"/>
			<point x="267" y="378.3338740007"/>
			<point x="443" y="574.3338740007"/>
			<point x="443" y="644.3338740007" type="curve" smooth="yes"/>
			<point x="443" y="673.3338740007"/>
			<point x="427" y="684.3338740007"/>
			<point x="383" y="684.3338740007" type="curve" smooth="yes"/>
			<point x="224" y="684.3338740007"/>
			<point x="156.309352518" y="632.3338740007"/>
			<point x="109" y="632.3338740007" type="curve" smooth="yes"/>
			<point x="67.4772727273" y="632.3338740007"/>
			<point x="22" y="685.3338740007"/>
			<point x="22" y="731.3338740007" type="curve" smooth="yes"/>
			<point x="22" y="753.3338740007"/>
			<point x="32" y="776.3338740007"/>
		</contour>
	</outline>
</glyph>
<glyph name="eight" format="2">
	<unicode hex="0038"/>
	<advance width="700"/>
	<outline>
		<contour>
			<point x="396" y="427.8523544854" type="curve" smooth="yes"/>
			<point x="238.7312883765" y="433.1298280298"/>
			<point x="206" y="418.8523544854"/>
			<point x="206" y="405.8523544854" type="curve" smooth="yes"/>
			<point x="206" y="372.3864453945"/>
			<point x="298" y="348.8523544854"/>
			<point x="412" y="310.8523544854" type="curve" smooth="yes"/>
			<point x="625.7009717466" y="239.2729027839"/>
			<point x="663" y="198.8523544854"/>
			<point x="663" y="105.8523544854" type="curve" smooth="yes"/>
			<point x="663" y="-17.1476455146"/>
			<point x="568.2941176471" y="-128.1476455146"/>
			<point x="318" y="-128.1476455146" type="curve" smooth="yes"/>
			<point x="116.3076923077" y="-128.1476455146"/>
			<point x="39.99993101" y="-41.1509915296"/>
			<point x="42" y="55.8523544854" type="curve" smooth="yes"/>
			<point x="44.0001121211" y="133.8567272071"/>
			<point x="81.289040218" y="188.7044607602"/>
			<point x="306" y="305.8523544854" type="curve" smooth="yes"/>
			<point x="458.1391672542" y="384.7816968955"/>
			<point x="491.8685127595" y="423.338358909"/>
			<point x="503" y="466.8523544854" type="curve" smooth="yes"/>
			<point x="513" y="502.8523544854"/>
			<point x="528" y="525.8523544854"/>
			<point x="563" y="525.8523544854" type="curve" smooth="yes"/>
			<point x="615" y="525.8523544854"/>
			<point x="659" y="478.8523544854"/>
			<point x="659" y="418.8523544854" type="curve" smooth="yes"/>
			<point x="659" y="363.8523544854"/>
			<point x="616.013180004" y="297.2102809055"/>
			<point x="463" y="213.8523544854" type="curve" smooth="yes"/>
			<point x="235" y="88.8523544854"/>
			<point x="219" y="71.8737448597"/>
			<point x="219" y="36.8523544854" type="curve" smooth="yes"/>
			<point x="219" y="15.6170603678"/>
			<point x="218.1581885492" y="-14.2701477235"/>
			<point x="239" y="-58.1476455146" type="curve"/>
			<point x="144" y="67.8523544854" type="line"/>
			<point x="208.6474761064" y="42.2162863742"/>
			<point x="255.1384615385" y="42.8523544854"/>
			<point x="316" y="42.8523544854" type="curve" smooth="yes"/>
			<point x="405.935483871" y="42.8523544854"/>
			<point x="480" y="57.7555802919"/>
			<point x="480" y="108.8523544854" type="curve" smooth="yes"/>
			<point x="480" y="130.8523544854"/>
			<point x="465" y="154.8523544854"/>
			<point x="325" y="190.8523544854" type="curve" smooth="yes"/>
			<point x="80" y="254.8523544854"/>
			<point x="32" y="311.8523544854"/>
			<point x="33" y="405.8523544854" type="curve" smooth="yes"/>
			<point x="34.999984884" y="525.851447527"/>
			<point x="125.0479452055" y="594.8523544854"/>
			<point x="335" y="594.8523544854" type="curve" smooth="yes"/>
			<point x="419" y="594.8523544854"/>
			<point x="465" y="539.8523544854"/>
			<point x="463" y="488.8523544854" type="curve" smooth="yes"/>
			<point x="462" y="454.8523544854"/>
			<point x="432" y="426.8523544854"/>
		</contour>
	</outline>
</glyph>
<glyph name="nine" format="2">
	<unicode hex="0039"/>
	<advance width="700"/>
	<outline>
		<contour>
			<point x="462" y="677.3468200368" type="curve" smooth="yes"/>
			<point x="501" y="677.3468200368"/>
			<point x="518" y="710.3468200368"/>
			<point x="518" y="742.3468200368" type="curve" smooth="yes"/>
			<point x="518" y="816.3468200368"/>
			<point x="463.7033898305" y="862.3468200368"/>
			<point x="369" y="862.3468200368" type="curve" smooth="yes"/>
			<point x="140" y="862.3468200368"/>
			<point x="32" y="722.2094154566"/>
			<point x="32" y="594.3468200368" type="curve" smooth="yes"/>
			<point x="32" y="468.3372962273"/>
			<point x="107.6622222222" y="392.3468200368"/>
			<point x="256" y="392.3468200368" type="curve" smooth="yes"/>
			<point x="394.4554455446" y="392.3468200368"/>
			<point x="481.5653363309" y="442.2413395477"/>
			<point x="560" y="566.3468200368" type="curve"/>
			<point x="455" y="513.3468200368" type="line"/>
			<point x="455" y="395.4669613796"/>
			<point x="458.2370330897" y="300.7586983357"/>
			<point x="468" y="235.3468200368" type="curve" smooth="yes"/>
			<point x="477.5202892732" y="181.3985141553"/>
			<point x="521" y="143.3468200368"/>
			<point x="580" y="143.3468200368" type="curve" smooth="yes"/>
			<point x="625" y="143.3468200368"/>
			<point x="650" y="166.3468200368"/>
			<point x="650" y="219.3468200368" type="curve" smooth="yes"/>
			<point x="650" y="257.3468200368"/>
			<point x="633" y="304.3468200368"/>
			<point x="633" y="435.3468200368" type="curve" smooth="yes"/>
			<point x="633" y="487.3468200368"/>
			<point x="634" y="540.3468200368"/>
			<point x="637" y="633.3468200368" type="curve"/>
			<point x="663" y="753.3468200368"/>
			<point x="630" y="818.3468200368"/>
			<point x="533" y="818.3468200368" type="curve" smooth="yes"/>
			<point x="498" y="818.3468200368"/>
			<point x="474" y="794.3468200368"/>
			<point x="474" y="752.3468200368" type="curve" smooth="yes"/>
			<point x="474" y="604.4965526571"/>
			<point x="382" y="560.3468200368"/>
			<point x="257" y="560.3468200368" type="curve" smooth="yes"/>
			<point x="222" y="560.3468200368"/>
			<point x="205" y="577.2357089257"/>
			<point x="205" y="600.3468200368" type="curve" smooth="yes"/>
			<point x="205" y="636.9831836732"/>
			<point x="248" y="691.3468200368"/>
			<point x="369" y="691.3468200368" type="curve" smooth="yes"/>
			<point x="415" y="691.3468200368"/>
			<point x="436" y="677.3468200368"/>
		</contour>
	</outline>
</glyph>
<glyph name="colon" format="2">
	<unicode hex="003A"/>
	<advance width="320"/>
	<outline>
		<contour>
			<point x="163" y="464.3099256738" type="curve" smooth="yes"/>
			<point x="240" y="464.3099256738"/>
			<point x="280" y="507.624994167"/>
			<point x="280" y="557.3099256738" type="curve" smooth="yes"/>
			<point x="280" y="618.1670685309"/>
			<point x="241.8275862069" y="677.3099256738"/>
			<point x="145" y="677.3099256738" type="curve" smooth="yes"/>
			<point x="87.4680851064" y="677.3099256738"/>
			<point x="41" y="643.3099256738"/>
			<point x="41" y="581.3099256738" type="curve" smooth="yes"/>
			<point x="41" y="505.3099256738"/>
			<point x="86" y="464.3099256738"/>
		</contour>
		<contour>
			<point x="173" y="135.3099256738" type="curve" smooth="yes"/>
			<point x="243" y="135.3099256738"/>
			<point x="280" y="178.624994167"/>
			<point x="280" y="228.3099256738" type="curve" smooth="yes"/>
			<point x="280" y="289.1670685309"/>
			<point x="240.6965517241" y="348.3099256738"/>
			<point x="141" y="348.3099256738" type="curve" smooth="yes"/>
			<point x="85.6808510638" y="348.3099256738"/>
			<point x="41" y="314.3099256738"/>
			<point x="41" y="252.3099256738" type="curve" smooth="yes"/>
			<point x="41" y="176.3099256738"/>
			<point x="89" y="135.3099256738"/>
		</contour>
	</outline>
</glyph>
<glyph name="A" format="2">
	<unicode hex="0041"/>
	<advance width="780"/>
	<outline>
		<contour>
			<point x="677" y="71.8816375656" type="curve" smooth="yes"/>
			<point x="719.28125" y="71.8816375656"/>
			<point x="743" y="91.8816375656"/>
			<point x="743" y="129.8816375656" type="curve" smooth="yes"/>
			<point x="743" y="193.8816375656"/>
			<point x="675" y="261.8816375656"/>
			<point x="654" y="454.8816375656" type="curve" smooth="yes"/>
			<point x="625" y="707.8816375656"/>
			<point x="581" y="808.8816375656"/>
			<point x="433" y="808.8816375656" type="curve" smooth="yes"/>
			<point x="336.4344262295" y="808.8816375656"/>
			<point x="247" y="737.8816375656"/>
			<point x="195" y="635.8816375656" type="curve"/>
			<point x="266" y="660.8816375656" type="line"/>
			<point x="228.0601063329" y="696.2347203008"/>
			<point x="204.8990825688" y="710.8816375656"/>
			<point x="176" y="710.8816375656" type="curve" smooth="yes"/>
			<point x="142" y="710.8816375656"/>
			<point x="127" y="694.8816375656"/>
			<point x="127" y="669.8816375656" type="curve" smooth="yes"/>
			<point x="127" y="535.091314985"/>
			<point x="79" y="419.9784117591"/>
			<point x="79" y="242.8816375656" type="curve" smooth="yes"/>
			<point x="79" y="136.8816375656"/>
			<point x="135.4705882353" y="74.8816375656"/>
			<point x="184" y="74.8816375656" type="curve" smooth="yes"/>
			<point x="225" y="72.8816375656"/>
			<point x="244" y="92.8816375656"/>
			<point x="249" y="139.8816375656" type="curve" smooth="yes"/>
			<point x="287" y="445.8816375656"/>
			<point x="367" y="635.8816375656"/>
			<point x="425" y="635.8816375656" type="curve" smooth="yes"/>
			<point x="443" y="635.8816375656"/>
			<point x="451" y="627.8816375656"/>
			<point x="470" y="459.8816375656" type="curve" smooth="yes"/>
			<point x="483" y="352.8816375656"/>
			<point x="496" y="215.8816375656"/>
			<point x="553" y="140.8816375656" type="curve" smooth="yes"/>
			<point x="591.7782813188" y="89.1772624739"/>
			<point x="624.8412698413" y="71.8816375656"/>
		</contour>
		<contour>
			<point x="134" y="242.8816375656" type="curve" smooth="yes"/>
			<point x="239" y="240.8816375656"/>
			<point x="416" y="280.8816375656"/>
			<point x="623" y="280.8816375656" type="curve" smooth="yes"/>
			<point x="692" y="280.8816375656"/>
			<point x="750" y="325.8816375656"/>
			<point x="750" y="392.8816375656" type="curve" smooth="yes"/>
			<point x="750" y="442.8816375656"/>
			<point x="734" y="454.8816375656"/>
			<point x="599" y="454.8816375656" type="curve" smooth="yes"/>
			<point x="391" y="454.8816375656"/>
			<point x="204" y="433.8816375656"/>
			<point x="52" y="374.8816375656" type="curve" smooth="yes"/>
			<point x="28" y="365.8816375656"/>
			<point x="16" y="352.8816375656"/>
			<point x="16" y="330.8816375656" type="curve" smooth="yes"/>
			<point x="16" y="278.8816375656"/>
			<point x="75" y="242.8816375656"/>
		</contour>
	</outline>
</glyph>
<glyph name="B" format="2">
	<unicode hex="0042"/>
	<advance width="633"/>
	<outline>
		<contour>
			<point x="254" y="-29.3157865953"/>
			<point x="228" y="13.6842134047"/>
			<point x="228" y="156.6842134047" type="curve" smooth="yes"/>
			<point x="228" y="234.6842134047"/>
			<point x="230" y="265.6842134047"/>
			<point x="237" y="344.6842134047" type="curve" smooth="yes"/>
			<point x="242" y="389.6842134047"/>
			<point x="204" y="438.6842134047"/>
			<point x="151" y="438.6842134047" type="curve" smooth="yes"/>
			<point x="127" y="438.6842134047"/>
			<point x="94" y="422.6842134047"/>
			<point x="85" y="388.6842134047" type="curve" smooth="yes"/>
			<point x="61" y="293.6842134047"/>
			<point x="55" y="247.6842134047"/>
			<point x="55" y="140.6842134047" type="curve" smooth="yes"/>
			<point x="55" y="-38.3157865953"/>
			<point x="130" y="-200.3157865953"/>
			<point x="257" y="-200.3157865953" type="curve" smooth="yes"/>
			<point x="383.2517482517" y="-200.3157865953"/>
			<point x="563" y="-137.3157865953"/>
			<point x="563" y="31.6842134047" type="curve" smooth="yes"/>
			<point x="563" y="98.6842134047"/>
			<point x="515" y="171.6842134047"/>
			<point x="372" y="187.6842134047" type="curve"/>
			<point x="381" y="132.6842134047" type="line"/>
			<point x="555" y="195.6842134047"/>
			<point x="589" y="272.6842134047"/>
			<point x="589" y="334.6842134047" type="curve" smooth="yes"/>
			<point x="589" y="477.6842134047"/>
			<point x="425.3165266106" y="521.6842134047"/>
			<point x="212" y="521.6842134047" type="curve" smooth="yes"/>
			<point x="75.1213872832" y="521.6842134047"/>
			<point x="27" y="477.6842134047"/>
			<point x="27" y="398.6842134047" type="curve" smooth="yes"/>
			<point x="27" y="359.6842134047"/>
			<point x="49" y="333.6842134047"/>
			<point x="91" y="333.6842134047" type="curve" smooth="yes"/>
			<point x="111" y="333.6842134047"/>
			<point x="160" y="337.6842134047"/>
			<point x="206" y="337.6842134047" type="curve" smooth="yes"/>
			<point x="395.6885245902" y="337.6842134047"/>
			<point x="409" y="331.6842134047"/>
			<point x="409" y="310.6842134047" type="curve" smooth="yes"/>
			<point x="409" y="274.6842134047"/>
			<point x="211.9512576" y="217.8131441476"/>
			<point x="159" y="202.6842134047" type="curve" smooth="yes"/>
			<point x="138" y="196.6842134047"/>
			<point x="120" y="168.6842134047"/>
			<point x="120" y="145.6842134047" type="curve" smooth="yes"/>
			<point x="120" y="96.6842134047"/>
			<point x="146" y="61.6842134047"/>
			<point x="183" y="62.6842134047" type="curve" smooth="yes"/>
			<point x="325.571956748" y="65.9998403058"/>
			<point x="393" y="53.6842134047"/>
			<point x="393" y="13.6842134047" type="curve" smooth="yes"/>
			<point x="393" y="2.6842134047"/>
			<point x="303.9813084112" y="-29.3157865953"/>
			<point x="266" y="-29.3157865953" type="curve" smooth="yes"/>
		</contour>
	</outline>
</glyph>
<glyph name="E" format="2">
	<unicode hex="0045"/>
	<advance width="704"/>
	<outline>
		<contour>
			<point x="96" y="604.6083708076" type="curve" smooth="yes"/>
			<point x="74" y="518.6083708076"/>
			<point x="69" y="434.6083708076"/>
			<point x="69" y="374.6083708076" type="curve" smooth="yes"/>
			<point x="69" y="211.6083708076"/>
			<point x="163" y="74.6083708076"/>
			<point x="362" y="74.6083708076" type="curve" smooth="yes"/>
			<point x="558" y="74.6083708076"/>
			<point x="664" y="126.6083708076"/>
			<point x="664" y="220.6083708076" type="curve" smooth="yes"/>
			<point x="664" y="258.6083708076"/>
			<point x="651" y="282.6083708076"/>
			<point x="601" y="282.6083708076" type="curve" smooth="yes"/>
			<point x="559" y="282.6083708076"/>
			<point x="484" y="249.6083708076"/>
			<point x="362" y="249.6083708076" type="curve" smooth="yes"/>
			<point x="288" y="249.6083708076"/>
			<point x="245" y="303.6083708076"/>
			<point x="245" y="372.6083708076" type="curve" smooth="yes"/>
			<point x="245" y="483.6083708076"/>
			<point x="269" y="581.6083708076"/>
			<point x="269" y="623.6083708076" type="curve" smooth="yes"/>
			<point x="269" y="664.6083708076"/>
			<point x="225" y="687.6083708076"/>
			<point x="200" y="687.6083708076" type="curve" smooth="yes"/>
			<point x="149" y="687.6083708076"/>
			<point x="110" y="658.6083708076"/>
		</contour>
		<contour>
			<point x="202" y="316.6083708076" type="curve" smooth="yes"/>
			<point x="271" y="332.6083708076"/>
			<point x="344" y="345.6083708076"/>
			<point x="478" y="353.6083708076" type="curve" smooth="yes"/>
			<point x="534" y="357.6083708076"/>
			<point x="575" y="393.6083708076"/>
			<point x="575" y="459.6083708076" type="curve" smooth="yes"/>
			<point x="575" y="513.6083708076"/>
			<point x="559" y="525.6083708076"/>
			<point x="489" y="525.6083708076" type="curve" smooth="yes"/>
			<point x="349" y="520.6083708076"/>
			<point x="273" y="506.6083708076"/>
			<point x="208" y="491.6083708076" type="curve" smooth="yes"/>
			<point x="171" y="482.6083708076"/>
			<point x="143" y="445.6083708076"/>
			<point x="143" y="403.6083708076" type="curve" smooth="yes"/>
			<point x="143" y="350.6083708076"/>
			<point x="155" y="306.6083708076"/>
		</contour>
		<contour>
			<point x="181" y="583.6083708076" type="curve" smooth="yes"/>
			<point x="241" y="583.6083708076"/>
			<point x="429" y="626.6083708076"/>
			<point x="626" y="626.6083708076" type="curve" smooth="yes"/>
			<point x="657" y="626.6083708076"/>
			<point x="667" y="649.6083708076"/>
			<point x="667" y="678.6083708076" type="curve" smooth="yes"/>
			<point x="667" y="742.6083708076"/>
			<point x="601" y="793.6083708076"/>
			<point x="490" y="793.6083708076" type="curve" smooth="yes"/>
			<point x="404" y="793.6083708076"/>
			<point x="232" y="779.6083708076"/>
			<point x="91" y="733.6083708076" type="curve" smooth="yes"/>
			<point x="57" y="722.6083708076"/>
			<point x="50" y="703.6083708076"/>
			<point x="50" y="678.6083708076" type="curve" smooth="yes"/>
			<point x="50" y="627.6083708076"/>
			<point x="95" y="583.6083708076"/>
		</contour>
	</outline>
</glyph>
<glyph name="K" format="2">
	<unicode hex="004B"/>
	<advance width="699"/>
	<outline>
		<contour>
			<point x="189" y="-182.7790875374" type="curve" smooth="yes"/>
			<point x="221" y="-182.7790875374"/>
			<point x="241" y="-163.7790875374"/>
			<point x="241" y="-132.7790875374" type="curve" smooth="yes"/>
			<point x="241" y="-84.7790875374"/>
			<point x="229" y="-48.7790875374"/>
			<point x="229" y="21.2209124626" type="curve" smooth="yes"/>
			<point x="229" y="160.2209124626"/>
			<point x="252" y="295.2209124626"/>
			<point x="252" y="380.2209124626" type="curve" smooth="yes"/>
			<point x="252" y="445.2209124626"/>
			<point x="237" y="538.2209124626"/>
			<point x="126" y="538.2209124626" type="curve" smooth="yes"/>
			<point x="82" y="538.2209124626"/>
			<point x="67" y="517.2209124626"/>
			<point x="67" y="484.2209124626" type="curve" smooth="yes"/>
			<point x="67" y="456.2209124626"/>
			<point x="77" y="435.2209124626"/>
			<point x="77" y="378.2209124626" type="curve" smooth="yes"/>
			<point x="77" y="310.2209124626"/>
			<point x="55" y="173.2209124626"/>
			<point x="55" y="15.2209124626" type="curve" smooth="yes"/>
			<point x="55" y="-130.7790875374"/>
			<point x="85" y="-182.7790875374"/>
		</contour>
		<contour>
			<point x="613" y="-182.7790875374" type="curve" smooth="yes"/>
			<point x="671.21875" y="-182.7790875374"/>
			<point x="694" y="-151.0437934198"/>
			<point x="694" y="-99.7790875374" type="curve" smooth="yes"/>
			<point x="694" y="-52.1326228909"/>
			<point x="672" y="-20.7790875374"/>
			<point x="615" y="-6.7790875374" type="curve" smooth="yes"/>
			<point x="451" y="35.2209124626"/>
			<point x="369" y="113.2457571831"/>
			<point x="369" y="145.2209124626" type="curve" smooth="yes"/>
			<point x="369" y="192.2209124626"/>
			<point x="461" y="299.2209124626"/>
			<point x="548" y="351.2209124626" type="curve" smooth="yes"/>
			<point x="603" y="383.2209124626"/>
			<point x="614" y="406.2209124626"/>
			<point x="614" y="456.2209124626" type="curve" smooth="yes"/>
			<point x="614" y="513.2209124626"/>
			<point x="577" y="541.2209124626"/>
			<point x="530" y="541.2209124626" type="curve" smooth="yes"/>
			<point x="508" y="541.2209124626"/>
			<point x="480" y="531.2209124626"/>
			<point x="450" y="510.2209124626" type="curve" smooth="yes"/>
			<point x="323" y="416.2209124626"/>
			<point x="209" y="252.2209124626"/>
			<point x="209" y="120.2209124626" type="curve" smooth="yes"/>
			<point x="209" y="-69.7790875374"/>
			<point x="500" y="-182.7790875374"/>
		</contour>
	</outline>
</glyph>
<glyph name="L" format="2">
	<unicode hex="004C"/>
	<advance width="526"/>
	<outline>
		<contour>
			<point x="290" y="-133.0050250848" type="curve" smooth="yes"/>
			<point x="353" y="-133.0050250848"/>
			<point x="428" y="-118.0050250848"/>
			<point x="471" y="-82.0050250848" type="curve" smooth="yes"/>
			<point x="506" y="-52.0050250848"/>
			<point x="519" y="-13.0050250848"/>
			<point x="519" y="28.9949749152" type="curve" smooth="yes"/>
			<point x="519" y="63.9949749152"/>
			<point x="497" y="97.9949749152"/>
			<point x="465" y="97.9949749152" type="curve" smooth="yes"/>
			<point x="427" y="97.9949749152"/>
			<point x="396" y="39.9949749152"/>
			<point x="297" y="39.9949749152" type="curve" smooth="yes"/>
			<point x="235" y="39.9949749152"/>
			<point x="212" y="60.9949749152"/>
			<point x="212" y="109.9949749152" type="curve" smooth="yes"/>
			<point x="212" y="168.9949749152"/>
			<point x="264" y="316.9949749152"/>
			<point x="264" y="445.9949749152" type="curve" smooth="yes"/>
			<point x="264" y="505.9949749152"/>
			<point x="230" y="585.9949749152"/>
			<point x="158" y="585.9949749152" type="curve" smooth="yes"/>
			<point x="110" y="585.9949749152"/>
			<point x="91" y="555.9949749152"/>
			<point x="91" y="513.9949749152" type="curve" smooth="yes"/>
			<point x="91" y="408.9949749152"/>
			<point x="40" y="276.9949749152"/>
			<point x="40" y="126.9949749152" type="curve" smooth="yes"/>
			<point x="40" y="-41.0050250848"/>
			<point x="127" y="-133.0050250848"/>
		</contour>
	</outline>
</glyph>
<glyph name="M" format="2">
	<unicode hex="004D"/>
	<advance width="1046"/>
	<outline>
		<contour>
			<point x="253" y="449.0361626161" type="curve" smooth="yes"/>
			<point x="257" y="375.0361626161"/>
			<point x="186" y="336.0361626161"/>
			<point x="210" y="426.0361626161" type="curve" smooth="yes"/>
			<point x="242" y="535.0361626161"/>
			<point x="298" y="617.0361626161"/>
			<point x="365" y="617.0361626161" type="curve" smooth="yes"/>
			<point x="442" y="617.0361626161"/>
			<point x="510" y="572.0361626161"/>
			<point x="538" y="324.0361626161" type="curve" smooth="yes"/>
			<point x="547" y="263.0361626161"/>
			<point x="541" y="217.0361626161"/>
			<point x="565" y="136.0361626161" type="curve" smooth="yes"/>
			<point x="577" y="99.0361626161"/>
			<point x="497" y="155.0361626161"/>
			<point x="527" y="211.0361626161" type="curve" smooth="yes"/>
			<point x="549" y="252.0361626161"/>
			<point x="578" y="365.0361626161"/>
			<point x="607" y="459.0361626161" type="curve" smooth="yes"/>
			<point x="633" y="543.0361626161"/>
			<point x="673" y="625.0361626161"/>
			<point x="759" y="625.0361626161" type="curve" smooth="yes"/>
			<point x="840" y="625.0361626161"/>
			<point x="931" y="605.0361626161"/>
			<point x="942" y="378.0361626161" type="curve" smooth="yes"/>
			<point x="946" y="259.0361626161"/>
			<point x="966" y="99.0361626161"/>
			<point x="1003" y="-0.9638373839" type="curve" smooth="yes"/>
			<point x="1019" y="-41.9638373839"/>
			<point x="1011" y="-100.9638373839"/>
			<point x="956" y="-100.9638373839" type="curve" smooth="yes"/>
			<point x="899" y="-100.9638373839"/>
			<point x="843" y="-79.9638373839"/>
			<point x="809" y="-23.9638373839" type="curve" smooth="yes"/>
			<point x="761" y="51.0361626161"/>
			<point x="763" y="215.0361626161"/>
			<point x="752" y="315.0361626161" type="curve" smooth="yes"/>
			<point x="747" y="370.0361626161"/>
			<point x="738" y="418.0361626161"/>
			<point x="711" y="463.0361626161" type="curve" smooth="yes"/>
			<point x="687" y="499.0361626161"/>
			<point x="825" y="484.0361626161"/>
			<point x="788" y="436.0361626161" type="curve" smooth="yes"/>
			<point x="747" y="384.0361626161"/>
			<point x="698" y="191.0361626161"/>
			<point x="610" y="-47.9638373839" type="curve" smooth="yes"/>
			<point x="596" y="-84.9638373839"/>
			<point x="562" y="-100.9638373839"/>
			<point x="538" y="-100.9638373839" type="curve" smooth="yes"/>
			<point x="518" y="-100.9638373839"/>
			<point x="485" y="-89.9638373839"/>
			<point x="470" y="-68.9638373839" type="curve" smooth="yes"/>
			<point x="428" y="-12.9638373839"/>
			<point x="401" y="89.0361626161"/>
			<point x="387" y="209.0361626161" type="curve" smooth="yes"/>
			<point x="378" y="284.0361626161"/>
			<point x="370" y="325.0361626161"/>
			<point x="347" y="384.0361626161" type="curve" smooth="yes"/>
			<point x="321" y="456.0361626161"/>
			<point x="404" y="452.0361626161"/>
			<point x="355" y="381.0361626161" type="curve" smooth="yes"/>
			<point x="295" y="285.0361626161"/>
			<point x="242" y="127.0361626161"/>
			<point x="242" y="-67.9638373839" type="curve" smooth="yes"/>
			<point x="242" y="-89.9638373839"/>
			<point x="215" y="-103.9638373839"/>
			<point x="191" y="-103.9638373839" type="curve" smooth="yes"/>
			<point x="72" y="-103.9638373839"/>
			<point x="67" y="46.0361626161"/>
			<point x="67" y="151.0361626161" type="curve" smooth="yes"/>
			<point x="67" y="240.0361626161"/>
			<point x="75" y="328.0361626161"/>
			<point x="75" y="407.0361626161" type="curve" smooth="yes"/>
			<point x="75" y="455.0361626161"/>
			<point x="63" y="502.0361626161"/>
			<point x="63" y="540.0361626161" type="curve" smooth="yes"/>
			<point x="63" y="558.0361626161"/>
			<point x="75" y="580.0361626161"/>
			<point x="109" y="580.0361626161" type="curve" smooth="yes"/>
			<point x="199" y="580.0361626161"/>
			<point x="253" y="509.0361626161"/>
		</contour>
	</outline>
</glyph>
<glyph name="N" format="2">
	<unicode hex="004E"/>
	<advance width="833"/>
	<outline>
		<contour>
			<point x="147" y="-71.0191270546" type="curve" smooth="yes"/>
			<point x="195" y="-71.0191270546"/>
			<point x="222" y="-49.0191270546"/>
			<point x="232" y="-12.0191270546" type="curve" smooth="yes"/>
			<point x="252" y="60.9808729454"/>
			<point x="263" y="163.9808729454"/>
			<point x="263" y="288.9808729454" type="curve" smooth="yes"/>
			<point x="263" y="338.9808729454"/>
			<point x="261" y="366.9808729454"/>
			<point x="250" y="434.9808729454" type="curve"/>
			<point x="219" y="428.9808729454" type="line"/>
			<point x="374.3691910075" y="203.894737255"/>
			<point x="421" y="-70.0191270546"/>
			<point x="597" y="-70.0191270546" type="curve" smooth="yes"/>
			<point x="727" y="-70.0191270546"/>
			<point x="748" y="38.7213309607"/>
			<point x="748" y="188.9808729454" type="curve" smooth="yes"/>
			<point x="748" y="337.9808729454"/>
			<point x="727" y="414.9808729454"/>
			<point x="753" y="543.9808729454" type="curve" smooth="yes"/>
			<point x="761.9643828712" y="586.8107022187"/>
			<point x="745.7920792079" y="661.9808729454"/>
			<point x="662" y="661.9808729454" type="curve" smooth="yes"/>
			<point x="624.8387096774" y="661.9808729454"/>
			<point x="600.1069527969" y="641.3979888533"/>
			<point x="590" y="601.9808729454" type="curve" smooth="yes"/>
			<point x="553" y="463.9808729454"/>
			<point x="586" y="334.9808729454"/>
			<point x="586" y="173.9808729454" type="curve" smooth="yes"/>
			<point x="586" y="85.9808729454"/>
			<point x="549" y="62.9808729454"/>
			<point x="526" y="52.9808729454" type="curve"/>
			<point x="625" y="98.9808729454" type="line"/>
			<point x="495" y="182.9808729454"/>
			<point x="396" y="656.9808729454"/>
			<point x="156" y="656.9808729454" type="curve" smooth="yes"/>
			<point x="104" y="656.9808729454"/>
			<point x="77" y="624.9808729454"/>
			<point x="77" y="584.9808729454" type="curve" smooth="yes"/>
			<point x="77" y="551.9808729454"/>
			<point x="93" y="403.9808729454"/>
			<point x="93" y="288.9808729454" type="curve" smooth="yes"/>
			<point x="93" y="79.9808729454"/>
			<point x="69" y="48.9808729454"/>
			<point x="69" y="-7.0191270546" type="curve" smooth="yes"/>
			<point x="69" y="-40.0191270546"/>
			<point x="89" y="-71.0191270546"/>
		</contour>
	</outline>
</glyph>
<glyph name="O" format="2">
	<unicode hex="004F"/>
	<advance width="766"/>
	<outline>
		<contour>
			<point x="340" y="288.6883256051" type="curve" smooth="yes"/>
			<point x="246" y="214.6883256051"/>
			<point x="220" y="170.6883256051"/>
			<point x="220" y="97.6883256051" type="curve" smooth="yes"/>
			<point x="220" y="11.6883256051"/>
			<point x="284" y="-28.3116743949"/>
			<point x="367" y="-28.3116743949" type="curve" smooth="yes"/>
			<point x="463" y="-28.3116743949"/>
			<point x="546" y="31.6883256051"/>
			<point x="546" y="107.6883256051" type="curve" smooth="yes"/>
			<point x="546" y="208.6883256051"/>
			<point x="465" y="345.6883256051"/>
			<point x="381" y="345.6883256051" type="curve" smooth="yes"/>
			<point x="372" y="345.6883256051"/>
			<point x="369" y="335.6883256051"/>
			<point x="369" y="321.6883256051" type="curve" smooth="yes"/>
			<point x="369" y="291.6883256051"/>
			<point x="352" y="276.6883256051"/>
			<point x="334" y="276.6883256051" type="curve" smooth="yes"/>
			<point x="280" y="276.6883256051"/>
			<point x="225" y="322.6883256051"/>
			<point x="225" y="413.6883256051" type="curve" smooth="yes"/>
			<point x="225" y="468.6883256051"/>
			<point x="279" y="518.6883256051"/>
			<point x="374" y="518.6883256051" type="curve" smooth="yes"/>
			<point x="564" y="518.6883256051"/>
			<point x="716" y="300.6883256051"/>
			<point x="716" y="107.6883256051" type="curve" smooth="yes"/>
			<point x="716" y="-61.3116743949"/>
			<point x="550" y="-202.3116743949"/>
			<point x="367" y="-202.3116743949" type="curve" smooth="yes"/>
			<point x="195" y="-202.3116743949"/>
			<point x="50" y="-82.3116743949"/>
			<point x="50" y="97.6883256051" type="curve" smooth="yes"/>
			<point x="50" y="295.6883256051"/>
			<point x="235" y="425.6883256051"/>
			<point x="277" y="425.6883256051" type="curve" smooth="yes"/>
			<point x="295" y="425.6883256051"/>
			<point x="328" y="414.6883256051"/>
			<point x="342" y="396.6883256051" type="curve" smooth="yes"/>
			<point x="365" y="366.6883256051"/>
			<point x="370" y="312.6883256051"/>
		</contour>
	</outline>
</glyph>
<glyph name="Q" format="2">
	<unicode hex="0051"/>
	<advance width="764"/>
	<outline>
		<contour>
			<point x="496" y="429.0720289746" type="curve" smooth="yes"/>
			<point x="524" y="392.0720289746"/>
			<point x="560" y="258.0720289746"/>
			<point x="618" y="185.0720289746" type="curve" smooth="yes"/>
			<point x="673" y="114.0720289746"/>
			<point x="662" y="4.0720289746"/>
			<point x="600" y="4.0720289746" type="curve" smooth="yes"/>
			<point x="568" y="4.0720289746"/>
			<point x="542" y="15.0720289746"/>
			<point x="508" y="53.0720289746" type="curve" smooth="yes"/>
			<point x="446" y="123.0720289746"/>
			<point x="397" y="288.0720289746"/>
			<point x="336" y="372.0720289746" type="curve" smooth="yes"/>
			<point x="292" y="433.0720289746"/>
			<point x="309" y="484.0720289746"/>
			<point x="368" y="484.0720289746" type="curve" smooth="yes"/>
			<point x="438" y="484.0720289746"/>
			<point x="471" y="461.0720289746"/>
		</contour>
		<contour>
			<point x="324" y="682.0720289746" type="curve" smooth="yes"/>
			<point x="249" y="648.0720289746"/>
			<point x="206" y="564.0720289746"/>
			<point x="206" y="485.0720289746" type="curve" smooth="yes"/>
			<point x="206" y="409.0720289746"/>
			<point x="254" y="338.0720289746"/>
			<point x="385" y="338.0720289746" type="curve" smooth="yes"/>
			<point x="489" y="338.0720289746"/>
			<point x="554" y="411.0720289746"/>
			<point x="554" y="487.0720289746" type="curve" smooth="yes"/>
			<point x="554" y="582.0720289746"/>
			<point x="490" y="696.0720289746"/>
			<point x="409" y="696.0720289746" type="curve" smooth="yes"/>
			<point x="364" y="696.0720289746"/>
			<point x="341" y="672.0720289746"/>
			<point x="318" y="627.0720289746" type="curve" smooth="yes"/>
			<point x="302" y="596.0720289746"/>
			<point x="287" y="586.0720289746"/>
			<point x="264" y="586.0720289746" type="curve" smooth="yes"/>
			<point x="210" y="586.0720289746"/>
			<point x="183" y="610.0720289746"/>
			<point x="183" y="669.0720289746" type="curve" smooth="yes"/>
			<point x="183" y="759.0720289746"/>
			<point x="303" y="881.0720289746"/>
			<point x="424" y="881.0720289746" type="curve" smooth="yes"/>
			<point x="589" y="881.0720289746"/>
			<point x="729" y="718.0720289746"/>
			<point x="729" y="499.0720289746" type="curve" smooth="yes"/>
			<point x="729" y="328.0720289746"/>
			<point x="600" y="163.0720289746"/>
			<point x="385" y="163.0720289746" type="curve" smooth="yes"/>
			<point x="128" y="163.0720289746"/>
			<point x="35" y="316.0720289746"/>
			<point x="35" y="485.0720289746" type="curve" smooth="yes"/>
			<point x="35" y="668.0720289746"/>
			<point x="188" y="828.0720289746"/>
			<point x="278" y="828.0720289746" type="curve" smooth="yes"/>
			<point x="317" y="828.0720289746"/>
			<point x="375" y="789.0720289746"/>
			<point x="375" y="746.0720289746" type="curve" smooth="yes"/>
			<point x="375" y="719.0720289746"/>
			<point x="370" y="703.0720289746"/>
		</contour>
	</outline>
</glyph>
<glyph name="S" format="2">
	<unicode hex="0053"/>
	<advance width="603"/>
	<outline>
		<contour>
			<point x="262" y="-86.7389207486" type="curve" smooth="yes"/>
			<point x="459" y="-86.7389207486"/>
			<point x="556" y="-31.7389207486"/>
			<point x="556" y="90.2610792514" type="curve" smooth="yes"/>
			<point x="556" y="284.2610792514"/>
			<point x="226" y="307.2610792514"/>
			<point x="226" y="373.2610792514" type="curve" smooth="yes"/>
			<point x="226" y="403.2610792514"/>
			<point x="331" y="437.2610792514"/>
			<point x="480" y="468.2610792514" type="curve" smooth="yes"/>
			<point x="512" y="474.2610792514"/>
			<point x="534" y="503.2610792514"/>
			<point x="534" y="537.2610792514" type="curve" smooth="yes"/>
			<point x="534" y="586.2610792514"/>
			<point x="510" y="632.2610792514"/>
			<point x="438" y="632.2610792514" type="curve" smooth="yes"/>
			<point x="315" y="632.2610792514"/>
			<point x="47" y="534.2610792514"/>
			<point x="47" y="377.2610792514" type="curve" smooth="yes"/>
			<point x="47" y="179.2610792514"/>
			<point x="342" y="158.2610792514"/>
			<point x="375" y="94.2610792514" type="curve"/>
			<point x="330" y="83.2610792514"/>
			<point x="304" y="80.2610792514"/>
			<point x="241" y="80.2610792514" type="curve" smooth="yes"/>
			<point x="166" y="80.2610792514"/>
			<point x="148" y="107.2610792514"/>
			<point x="112" y="107.2610792514" type="curve" smooth="yes"/>
			<point x="70" y="107.2610792514"/>
			<point x="60" y="86.2610792514"/>
			<point x="60" y="51.2610792514" type="curve" smooth="yes"/>
			<point x="60" y="-18.7389207486"/>
			<point x="131" y="-86.7389207486"/>
		</contour>
	</outline>
</glyph>
<glyph name="U" format="2">
	<unicode hex="0055"/>
	<advance width="679"/>
	<outline>
		<contour>
			<point x="360" y="-192.9632566249" type="curve" smooth="yes"/>
			<point x="552" y="-192.9632566249"/>
			<point x="638" y="-65.9632566249"/>
			<point x="638" y="118.0367433751" type="curve" smooth="yes"/>
			<point x="638" y="202.0367433751"/>
			<point x="629" y="268.0367433751"/>
			<point x="629" y="340.0367433751" type="curve" smooth="yes"/>
			<point x="629" y="380.0367433751"/>
			<point x="638" y="445.0367433751"/>
			<point x="638" y="458.0367433751" type="curve" smooth="yes"/>
			<point x="638" y="499.0367433751"/>
			<point x="597" y="532.0367433751"/>
			<point x="557" y="532.0367433751" type="curve" smooth="yes"/>
			<point x="495" y="532.0367433751"/>
			<point x="451" y="495.0367433751"/>
			<point x="451" y="435.0367433751" type="curve" smooth="yes"/>
			<point x="451" y="318.0367433751"/>
			<point x="459" y="249.0367433751"/>
			<point x="459" y="125.0367433751" type="curve" smooth="yes"/>
			<point x="459" y="18.0367433751"/>
			<point x="423" y="-14.9632566249"/>
			<point x="353" y="-14.9632566249" type="curve" smooth="yes"/>
			<point x="274" y="-14.9632566249"/>
			<point x="239" y="14.0367433751"/>
			<point x="239" y="152.0367433751" type="curve" smooth="yes"/>
			<point x="239" y="215.0367433751"/>
			<point x="248" y="303.0367433751"/>
			<point x="248" y="364.0367433751" type="curve" smooth="yes"/>
			<point x="248" y="500.0367433751"/>
			<point x="196" y="536.0367433751"/>
			<point x="128" y="536.0367433751" type="curve" smooth="yes"/>
			<point x="95" y="536.0367433751"/>
			<point x="41" y="526.0367433751"/>
			<point x="41" y="490.0367433751" type="curve" smooth="yes"/>
			<point x="41" y="433.0367433751"/>
			<point x="60" y="420.0367433751"/>
			<point x="60" y="309.0367433751" type="curve" smooth="yes"/>
			<point x="60" y="272.0367433751"/>
			<point x="55" y="217.0367433751"/>
			<point x="55" y="162.0367433751" type="curve" smooth="yes"/>
			<point x="55" y="-50.9632566249"/>
			<point x="143" y="-192.9632566249"/>
		</contour>
	</outline>
</glyph>
<glyph name="V" format="2">
	<unicode hex="0056"/>
	<advance width="689"/>
	<outline>
		<contour>
			<point x="352" y="89.3935930864" type="curve" smooth="yes"/>
			<point x="409" y="89.3935930864"/>
			<point x="429" y="118.3935930864"/>
			<point x="445" y="171.3935930864" type="curve" smooth="yes"/>
			<point x="502" y="345.3935930864"/>
			<point x="568" y="459.3935930864"/>
			<point x="647" y="588.3935930864" type="curve" smooth="yes"/>
			<point x="682" y="646.3935930864"/>
			<point x="687" y="656.3935930864"/>
			<point x="687" y="707.3935930864" type="curve" smooth="yes"/>
			<point x="687" y="767.3935930864"/>
			<point x="655" y="816.3935930864"/>
			<point x="602" y="816.3935930864" type="curve" smooth="yes"/>
			<point x="571" y="816.3935930864"/>
			<point x="546" y="810.3935930864"/>
			<point x="497" y="734.3935930864" type="curve" smooth="yes"/>
			<point x="414" y="605.3935930864"/>
			<point x="346" y="467.3935930864"/>
			<point x="302" y="299.3935930864" type="curve"/>
			<point x="348" y="358.3935930864" type="line"/>
			<point x="292" y="438.3935930864"/>
			<point x="261" y="664.3935930864"/>
			<point x="169" y="770.3935930864" type="curve" smooth="yes"/>
			<point x="139" y="804.3935930864"/>
			<point x="113" y="813.3935930864"/>
			<point x="82" y="813.3935930864" type="curve" smooth="yes"/>
			<point x="23" y="813.3935930864"/>
			<point x="-3" y="772.3935930864"/>
			<point x="-3" y="730.3935930864" type="curve" smooth="yes"/>
			<point x="-3" y="687.3935930864"/>
			<point x="22" y="655.3935930864"/>
			<point x="43" y="625.3935930864" type="curve" smooth="yes"/>
			<point x="117" y="518.3935930864"/>
			<point x="100" y="416.3935930864"/>
			<point x="224" y="190.3935930864" type="curve" smooth="yes"/>
			<point x="264" y="116.3935930864"/>
			<point x="292" y="89.3935930864"/>
		</contour>
	</outline>
</glyph>
<glyph name="Y" format="2">
	<unicode hex="0059"/>
	<advance width="636"/>
	<outline>
		<contour>
			<point x="568" y="669.4447017256" type="curve" smooth="yes"/>
			<point x="442" y="573.4447017256"/>
			<point x="332" y="346.4447017256"/>
			<point x="292" y="165.4447017256" type="curve" smooth="yes"/>
			<point x="285" y="135.4447017256"/>
			<point x="263" y="121.4447017256"/>
			<point x="222" y="121.4447017256" type="curve" smooth="yes"/>
			<point x="162" y="121.4447017256"/>
			<point x="132" y="179.4447017256"/>
			<point x="149" y="264.4447017256" type="curve" smooth="yes"/>
			<point x="180" y="427.4447017256"/>
			<point x="312" y="690.4447017256"/>
			<point x="479" y="821.4447017256" type="curve" smooth="yes"/>
			<point x="507" y="843.4447017256"/>
			<point x="522" y="848.4447017256"/>
			<point x="537" y="848.4447017256" type="curve" smooth="yes"/>
			<point x="578" y="848.4447017256"/>
			<point x="607" y="807.4447017256"/>
			<point x="607" y="756.4447017256" type="curve" smooth="yes"/>
			<point x="607" y="722.4447017256"/>
			<point x="599" y="695.4447017256"/>
		</contour>
		<contour>
			<point x="163" y="793.4447017256" type="curve" smooth="yes"/>
			<point x="234" y="667.4447017256"/>
			<point x="270" y="661.4447017256"/>
			<point x="348" y="508.4447017256" type="curve" smooth="yes"/>
			<point x="372" y="460.4447017256"/>
			<point x="347" y="377.4447017256"/>
			<point x="296" y="377.4447017256" type="curve" smooth="yes"/>
			<point x="270" y="377.4447017256"/>
			<point x="250" y="388.4447017256"/>
			<point x="238" y="409.4447017256" type="curve" smooth="yes"/>
			<point x="146" y="562.4447017256"/>
			<point x="109" y="568.4447017256"/>
			<point x="43" y="659.4447017256" type="curve" smooth="yes"/>
			<point x="23" y="687.4447017256"/>
			<point x="11" y="716.4447017256"/>
			<point x="11" y="759.4447017256" type="curve" smooth="yes"/>
			<point x="11" y="810.4447017256"/>
			<point x="40" y="845.4447017256"/>
			<point x="77" y="845.4447017256" type="curve" smooth="yes"/>
			<point x="112" y="845.4447017256"/>
			<point x="138" y="837.4447017256"/>
		</contour>
	</outline>
</glyph>
<glyph name="bracketright" format="2">
	<unicode hex="005D"/>
	<advance width="553"/>
	<image fileName="parenleft.png" xScale="2.5963710802" yScale="2.5963710802" xOffset="-5235.7271646197" yOffset="-485.3762351949" color="0,0,0,0.18426"/>
	<outline>
		<contour>
			<point x="97" y="-238.5341268916" type="curve" smooth="yes"/>
			<point x="157" y="-237.5341268916"/>
			<point x="291" y="-224.5341268916"/>
			<point x="347" y="-206.5341268916" type="curve"/>
			<point x="287" y="-279.5341268916" type="line"/>
			<point x="329" y="-46.5341268916"/>
			<point x="246" y="260.4658731084"/>
			<point x="271" y="584.4658731084" type="curve"/>
			<point x="360" y="464.4658731084" type="line"/>
			<point x="298" y="491.4658731084"/>
			<point x="243" y="499.4658731084"/>
			<point x="126" y="499.4658731084" type="curve" smooth="yes"/>
			<point x="67" y="499.4658731084"/>
			<point x="19" y="554.4658731084"/>
			<point x="20" y="614.4658731084" type="curve" smooth="yes"/>
			<point x="21" y="654.4658731084"/>
			<point x="50" y="676.4658731084"/>
			<point x="100" y="675.4658731084" type="curve" smooth="yes"/>
			<point x="156" y="674.4658731084"/>
			<point x="229" y="661.4658731084"/>
			<point x="292" y="661.4658731084" type="curve" smooth="yes"/>
			<point x="312" y="661.4658731084"/>
			<point x="332" y="666.4658731084"/>
			<point x="350" y="666.4658731084" type="curve" smooth="yes"/>
			<point x="407" y="666.4658731084"/>
			<point x="451" y="627.4658731084"/>
			<point x="447" y="570.4658731084" type="curve" smooth="yes"/>
			<point x="420" y="240.4658731084"/>
			<point x="503" y="-73.5341268916"/>
			<point x="461" y="-311.5341268916" type="curve" smooth="yes"/>
			<point x="455" y="-343.5341268916"/>
			<point x="432" y="-369.5341268916"/>
			<point x="401" y="-379.5341268916" type="curve" smooth="yes"/>
			<point x="344" y="-397.5341268916"/>
			<point x="209" y="-413.5341268916"/>
			<point x="149" y="-414.5341268916" type="curve" smooth="yes"/>
			<point x="81" y="-415.5341268916"/>
			<point x="21" y="-371.5341268916"/>
			<point x="20" y="-317.5341268916" type="curve" smooth="yes"/>
			<point x="19" y="-275.5341268916"/>
			<point x="55" y="-239.5341268916"/>
		</contour>
	</outline>
</glyph>
<glyph name="a" format="2">
	<unicode hex="0061"/>
	<advance width="704"/>
	<outline>
		<contour>
			<point x="362" y="338.5637433298" type="curve" smooth="yes"/>
			<point x="367" y="372.5637433298"/>
			<point x="399" y="392.5637433298"/>
			<point x="432" y="392.5637433298" type="curve" smooth="yes"/>
			<point x="489" y="392.5637433298"/>
			<point x="533" y="359.5637433298"/>
			<point x="550" y="318.5637433298" type="curve" smooth="yes"/>
			<point x="590" y="231.5637433298"/>
			<point x="606" y="169.5637433298"/>
			<point x="677" y="93.5637433298" type="curve" smooth="yes"/>
			<point x="716" y="51.5637433298"/>
			<point x="678" y="-60.4362566702"/>
			<point x="602" y="-60.4362566702" type="curve" smooth="yes"/>
			<point x="577" y="-60.4362566702"/>
			<point x="561" y="-49.4362566702"/>
			<point x="551" y="-37.4362566702" type="curve" smooth="yes"/>
			<point x="493" y="33.5637433298"/>
			<point x="462" y="87.5637433298"/>
			<point x="423" y="195.5637433298" type="curve"/>
			<point x="483" y="201.5637433298" type="line"/>
			<point x="423" y="-1.4362566702"/>
			<point x="315" y="-63.4362566702"/>
			<point x="207" y="-63.4362566702" type="curve" smooth="yes"/>
			<point x="99" y="-63.4362566702"/>
			<point x="25" y="-2.4362566702"/>
			<point x="25" y="89.5637433298" type="curve" smooth="yes"/>
			<point x="25" y="264.5637433298"/>
			<point x="186" y="472.5637433298"/>
			<point x="337" y="472.5637433298" type="curve" smooth="yes"/>
			<point x="393" y="472.5637433298"/>
			<point x="437" y="434.5637433298"/>
			<point x="437" y="366.5637433298" type="curve" smooth="yes"/>
			<point x="437" y="343.5637433298"/>
			<point x="422" y="331.5637433298"/>
			<point x="405" y="327.5637433298" type="curve" smooth="yes"/>
			<point x="281" y="304.5637433298"/>
			<point x="192" y="188.5637433298"/>
			<point x="192" y="73.5637433298" type="curve" smooth="yes"/>
			<point x="192" y="54.5637433298"/>
			<point x="194" y="41.5637433298"/>
			<point x="201" y="19.5637433298" type="curve"/>
			<point x="127" y="133.5637433298" type="line"/>
			<point x="160" y="110.5637433298"/>
			<point x="182" y="104.5637433298"/>
			<point x="214" y="104.5637433298" type="curve" smooth="yes"/>
			<point x="276" y="104.5637433298"/>
			<point x="339" y="184.5637433298"/>
		</contour>
	</outline>
</glyph>
<glyph name="e" format="2">
	<unicode hex="0065"/>
	<advance width="617"/>
	<outline>
		<contour>
			<point x="267" y="28.644074603" type="curve" smooth="yes"/>
			<point x="407" y="28.644074603"/>
			<point x="526" y="76.644074603"/>
			<point x="526" y="191.644074603" type="curve" smooth="yes"/>
			<point x="526" y="306.644074603"/>
			<point x="443" y="367.644074603"/>
			<point x="323" y="367.644074603" type="curve" smooth="yes"/>
			<point x="141" y="367.644074603"/>
			<point x="25" y="199.644074603"/>
			<point x="25" y="52.644074603" type="curve" smooth="yes"/>
			<point x="25" y="-75.355925397"/>
			<point x="105" y="-167.355925397"/>
			<point x="289" y="-167.355925397" type="curve" smooth="yes"/>
			<point x="463" y="-167.355925397"/>
			<point x="573" y="-88.355925397"/>
			<point x="573" y="-12.355925397" type="curve" smooth="yes"/>
			<point x="573" y="23.644074603"/>
			<point x="559" y="41.644074603"/>
			<point x="530" y="41.644074603" type="curve" smooth="yes"/>
			<point x="475" y="41.644074603"/>
			<point x="432" y="-11.355925397"/>
			<point x="272" y="-11.355925397" type="curve" smooth="yes"/>
			<point x="213" y="-11.355925397"/>
			<point x="194" y="0.644074603"/>
			<point x="194" y="29.644074603" type="curve" smooth="yes"/>
			<point x="194" y="113.644074603"/>
			<point x="258" y="197.644074603"/>
			<point x="347" y="197.644074603" type="curve" smooth="yes"/>
			<point x="361" y="197.644074603"/>
			<point x="367" y="191.644074603"/>
			<point x="367" y="180.644074603" type="curve" smooth="yes"/>
			<point x="367" y="149.644074603"/>
			<point x="296" y="123.644074603"/>
			<point x="248" y="123.644074603" type="curve" smooth="yes"/>
			<point x="216" y="123.644074603"/>
			<point x="198" y="128.644074603"/>
			<point x="184" y="128.644074603" type="curve" smooth="yes"/>
			<point x="163" y="128.644074603"/>
			<point x="154" y="118.644074603"/>
			<point x="154" y="98.644074603" type="curve" smooth="yes"/>
			<point x="154" y="61.644074603"/>
			<point x="197" y="28.644074603"/>
		</contour>
	</outline>
</glyph>
<glyph name="f" format="2">
	<unicode hex="0066"/>
	<advance width="452"/>
	<outline>
		<contour>
			<point x="346" y="459.620967878" type="curve" smooth="yes"/>
			<point x="378" y="462.620967878"/>
			<point x="393" y="488.620967878"/>
			<point x="393" y="517.620967878" type="curve" smooth="yes"/>
			<point x="393" y="577.620967878"/>
			<point x="338" y="609.620967878"/>
			<point x="297" y="609.620967878" type="curve" smooth="yes"/>
			<point x="261" y="609.620967878"/>
			<point x="216" y="601.620967878"/>
			<point x="160" y="581.620967878" type="curve" smooth="yes"/>
			<point x="113" y="564.620967878"/>
			<point x="86" y="521.620967878"/>
			<point x="86" y="470.620967878" type="curve" smooth="yes"/>
			<point x="86" y="433.620967878"/>
			<point x="124" y="407.620967878"/>
			<point x="167" y="407.620967878" type="curve" smooth="yes"/>
			<point x="197" y="407.620967878"/>
			<point x="224" y="448.620967878"/>
		</contour>
		<contour>
			<point x="190" y="-75.379032122" type="curve" smooth="yes"/>
			<point x="238" y="-75.379032122"/>
			<point x="261" y="-51.379032122"/>
			<point x="261" y="38.620967878" type="curve" smooth="yes"/>
			<point x="261" y="266.620967878"/>
			<point x="221" y="394.620967878"/>
			<point x="221" y="533.620967878" type="curve" smooth="yes"/>
			<point x="221" y="673.620967878"/>
			<point x="239" y="705.620967878"/>
			<point x="360" y="749.620967878" type="curve" smooth="yes"/>
			<point x="390" y="760.620967878"/>
			<point x="407" y="781.620967878"/>
			<point x="407" y="816.620967878" type="curve" smooth="yes"/>
			<point x="407" y="879.620967878"/>
			<point x="361" y="903.620967878"/>
			<point x="312" y="903.620967878" type="curve"/>
			<point x="180" y="903.620967878"/>
			<point x="52" y="769.620967878"/>
			<point x="52" y="567.620967878" type="curve" smooth="yes"/>
			<point x="52" y="375.620967878"/>
			<point x="87" y="299.620967878"/>
			<point x="87" y="79.620967878" type="curve" smooth="yes"/>
			<point x="87" y="-20.379032122"/>
			<point x="138" y="-75.379032122"/>
		</contour>
	</outline>
</glyph>
<glyph name="g" format="2">
	<unicode hex="0067"/>
	<advance width="660"/>
	<outline>
		<contour>
			<point x="471" y="590.5512606748" type="curve" smooth="yes"/>
			<point x="542" y="590.5512606748"/>
			<point x="574" y="548.5512606748"/>
			<point x="577" y="508.5512606748" type="curve" smooth="yes"/>
			<point x="590" y="352.5512606748"/>
			<point x="635" y="285.5512606748"/>
			<point x="635" y="100.5512606748" type="curve" smooth="yes"/>
			<point x="635" y="-46.4487393252"/>
			<point x="548" y="-136.4487393252"/>
			<point x="395" y="-136.4487393252" type="curve" smooth="yes"/>
			<point x="147" y="-136.4487393252"/>
			<point x="108" y="-51.4487393252"/>
			<point x="108" y="8.5512606748" type="curve" smooth="yes"/>
			<point x="108" y="62.5512606748"/>
			<point x="148" y="104.5512606748"/>
			<point x="214" y="104.5512606748" type="curve" smooth="yes"/>
			<point x="240" y="104.5512606748"/>
			<point x="248" y="93.5512606748"/>
			<point x="248" y="72.5512606748" type="curve" smooth="yes"/>
			<point x="248" y="52.5512606748"/>
			<point x="274" y="35.5512606748"/>
			<point x="385" y="35.5512606748" type="curve" smooth="yes"/>
			<point x="443" y="35.5512606748"/>
			<point x="462" y="60.5512606748"/>
			<point x="462" y="107.5512606748" type="curve" smooth="yes"/>
			<point x="462" y="194.5512606748"/>
			<point x="437" y="236.5512606748"/>
			<point x="425" y="335.5512606748" type="curve"/>
			<point x="489" y="328.5512606748" type="line"/>
			<point x="450" y="199.5512606748"/>
			<point x="326" y="164.5512606748"/>
			<point x="242" y="164.5512606748" type="curve" smooth="yes"/>
			<point x="108" y="164.5512606748"/>
			<point x="25" y="239.5512606748"/>
			<point x="25" y="365.5512606748" type="curve" smooth="yes"/>
			<point x="25" y="528.5512606748"/>
			<point x="159" y="653.5512606748"/>
			<point x="308" y="653.5512606748" type="curve" smooth="yes"/>
			<point x="419" y="653.5512606748"/>
			<point x="457" y="583.5512606748"/>
			<point x="457" y="518.5512606748" type="curve" smooth="yes"/>
			<point x="457" y="479.5512606748"/>
			<point x="437" y="455.5512606748"/>
			<point x="420" y="455.5512606748" type="curve" smooth="yes"/>
			<point x="385" y="455.5512606748"/>
			<point x="378" y="489.5512606748"/>
			<point x="333" y="489.5512606748" type="curve" smooth="yes"/>
			<point x="273" y="489.5512606748"/>
			<point x="198" y="430.5512606748"/>
			<point x="198" y="379.5512606748" type="curve" smooth="yes"/>
			<point x="198" y="353.5512606748"/>
			<point x="212" y="339.5512606748"/>
			<point x="243" y="339.5512606748" type="curve" smooth="yes"/>
			<point x="348" y="339.5512606748"/>
			<point x="425" y="404.5512606748"/>
			<point x="425" y="527.5512606748" type="curve" smooth="yes"/>
			<point x="425" y="571.5512606748"/>
			<point x="436" y="590.5512606748"/>
		</contour>
	</outline>
</glyph>
<glyph name="i" format="2">
	<unicode hex="0069"/>
	<advance width="348"/>
	<outline>
		<contour>
			<point x="182" y="108.0815159468" type="curve" smooth="yes"/>
			<point x="224" y="108.0815159468"/>
			<point x="246" y="135.0815159468"/>
			<point x="246" y="180.0815159468" type="curve" smooth="yes"/>
			<point x="246" y="249.0815159468"/>
			<point x="259" y="469.0815159468"/>
			<point x="258" y="533.0815159468" type="curve" smooth="yes"/>
			<point x="257" y="606.0815159468"/>
			<point x="219" y="644.0815159468"/>
			<point x="173" y="644.0815159468" type="curve" smooth="yes"/>
			<point x="118" y="644.0815159468"/>
			<point x="56" y="578.0815159468"/>
			<point x="56" y="504.0815159468" type="curve" smooth="yes"/>
			<point x="56" y="423.0815159468"/>
			<point x="65" y="376.0815159468"/>
			<point x="65" y="216.0815159468" type="curve" smooth="yes"/>
			<point x="65" y="159.0815159468"/>
			<point x="117" y="108.0815159468"/>
		</contour>
		<contour>
			<point x="185" y="707.0815159468" type="curve" smooth="yes"/>
			<point x="243" y="707.0815159468"/>
			<point x="265" y="744.0815159468"/>
			<point x="265" y="781.0815159468" type="curve" smooth="yes"/>
			<point x="265" y="850.0815159468"/>
			<point x="215" y="935.0815159468"/>
			<point x="130" y="935.0815159468" type="curve" smooth="yes"/>
			<point x="83" y="935.0815159468"/>
			<point x="44" y="895.0815159468"/>
			<point x="44" y="840.0815159468" type="curve" smooth="yes"/>
			<point x="44" y="771.0815159468"/>
			<point x="108" y="707.0815159468"/>
		</contour>
	</outline>
</glyph>
<glyph name="k" format="2">
	<unicode hex="006B"/>
	<advance width="678"/>
	<outline>
		<contour>
			<point x="555" y="102.0769616232" type="curve" smooth="yes"/>
			<point x="602" y="102.0769616232"/>
			<point x="627" y="130.0769616232"/>
			<point x="627" y="174.0769616232" type="curve" smooth="yes"/>
			<point x="627" y="223.0769616232"/>
			<point x="601" y="275.0769616232"/>
			<point x="533" y="289.0769616232" type="curve" smooth="yes"/>
			<point x="405" y="320.0769616232"/>
			<point x="363" y="342.0769616232"/>
			<point x="363" y="358.0769616232" type="curve" smooth="yes"/>
			<point x="363" y="379.0769616232"/>
			<point x="433" y="431.0769616232"/>
			<point x="545" y="464.0769616232" type="curve" smooth="yes"/>
			<point x="612" y="484.0769616232"/>
			<point x="629" y="505.0769616232"/>
			<point x="629" y="541.0769616232" type="curve" smooth="yes"/>
			<point x="629" y="602.0769616232"/>
			<point x="591" y="636.0769616232"/>
			<point x="533" y="636.0769616232" type="curve" smooth="yes"/>
			<point x="422" y="636.0769616232"/>
			<point x="172" y="485.0769616232"/>
			<point x="172" y="338.0769616232" type="curve" smooth="yes"/>
			<point x="172" y="247.0769616232"/>
			<point x="414" y="102.0769616232"/>
		</contour>
		<contour>
			<point x="139" y="919.0769616232" type="curve" smooth="yes"/>
			<point x="94" y="919.0769616232"/>
			<point x="73" y="895.0769616232"/>
			<point x="73" y="850.0769616232" type="curve" smooth="yes"/>
			<point x="73" y="814.0769616232"/>
			<point x="82" y="783.0769616232"/>
			<point x="82" y="703.0769616232" type="curve" smooth="yes"/>
			<point x="82" y="514.0769616232"/>
			<point x="55" y="332.0769616232"/>
			<point x="55" y="246.0769616232" type="curve" smooth="yes"/>
			<point x="55" y="128.0769616232"/>
			<point x="110" y="99.0769616232"/>
			<point x="164" y="99.0769616232" type="curve" smooth="yes"/>
			<point x="206" y="99.0769616232"/>
			<point x="229" y="118.0769616232"/>
			<point x="229" y="162.0769616232" type="curve" smooth="yes"/>
			<point x="229" y="211.0769616232"/>
			<point x="224" y="254.0769616232"/>
			<point x="224" y="318.0769616232" type="curve" smooth="yes"/>
			<point x="224" y="434.0769616232"/>
			<point x="261" y="561.0769616232"/>
			<point x="261" y="705.0769616232" type="curve" smooth="yes"/>
			<point x="261" y="861.0769616232"/>
			<point x="221" y="919.0769616232"/>
		</contour>
	</outline>
</glyph>
<glyph name="l" format="2">
	<unicode hex="006C"/>
	<advance width="403"/>
	<outline>
		<contour>
			<point x="251" y="538.4833616866" type="curve" smooth="yes"/>
			<point x="251" y="455.4833616866"/>
			<point x="229" y="359.4833616866"/>
			<point x="229" y="210.4833616866" type="curve" smooth="yes"/>
			<point x="229" y="33.4833616866"/>
			<point x="249" y="27.4833616866"/>
			<point x="273" y="27.4833616866" type="curve" smooth="yes"/>
			<point x="307" y="27.4833616866"/>
			<point x="326" y="49.4833616866"/>
			<point x="348" y="49.4833616866" type="curve" smooth="yes"/>
			<point x="382" y="49.4833616866"/>
			<point x="393" y="19.4833616866"/>
			<point x="393" y="-21.5166383134" type="curve" smooth="yes"/>
			<point x="393" y="-99.5166383134"/>
			<point x="326" y="-147.5166383134"/>
			<point x="231" y="-147.5166383134" type="curve" smooth="yes"/>
			<point x="166" y="-147.5166383134"/>
			<point x="52" y="-110.5166383134"/>
			<point x="52" y="230.4833616866" type="curve" smooth="yes"/>
			<point x="52" y="376.4833616866"/>
			<point x="62" y="494.4833616866"/>
			<point x="83" y="609.4833616866" type="curve" smooth="yes"/>
			<point x="91" y="654.4833616866"/>
			<point x="114" y="673.4833616866"/>
			<point x="157" y="673.4833616866" type="curve" smooth="yes"/>
			<point x="217" y="673.4833616866"/>
			<point x="251" y="633.4833616866"/>
		</contour>
	</outline>
</glyph>
<glyph name="m" format="2">
	<unicode hex="006D"/>
	<advance width="977"/>
	<outline>
		<contour>
			<point x="221" y="460.6221215147" type="curve" smooth="yes"/>
			<point x="221" y="350.6221215147"/>
			<point x="157" y="376.6221215147"/>
			<point x="185" y="457.6221215147" type="curve" smooth="yes"/>
			<point x="209" y="525.6221215147"/>
			<point x="269" y="585.6221215147"/>
			<point x="355" y="585.6221215147" type="curve" smooth="yes"/>
			<point x="426" y="585.6221215147"/>
			<point x="458" y="536.6221215147"/>
			<point x="471" y="453.6221215147" type="curve" smooth="yes"/>
			<point x="479" y="399.6221215147"/>
			<point x="492" y="356.6221215147"/>
			<point x="505" y="331.6221215147" type="curve" smooth="yes"/>
			<point x="543" y="259.6221215147"/>
			<point x="435" y="230.6221215147"/>
			<point x="461" y="339.6221215147" type="curve" smooth="yes"/>
			<point x="499" y="502.6221215147"/>
			<point x="592" y="585.6221215147"/>
			<point x="684" y="585.6221215147" type="curve" smooth="yes"/>
			<point x="810" y="585.6221215147"/>
			<point x="864" y="499.6221215147"/>
			<point x="879" y="329.6221215147" type="curve" smooth="yes"/>
			<point x="894" y="161.6221215147"/>
			<point x="935" y="161.6221215147"/>
			<point x="935" y="111.6221215147" type="curve" smooth="yes"/>
			<point x="935" y="84.6221215147"/>
			<point x="913" y="50.6221215147"/>
			<point x="874" y="50.6221215147" type="curve" smooth="yes"/>
			<point x="785" y="50.6221215147"/>
			<point x="732" y="84.6221215147"/>
			<point x="715" y="213.6221215147" type="curve" smooth="yes"/>
			<point x="697" y="351.6221215147"/>
			<point x="688" y="380.6221215147"/>
			<point x="667" y="425.6221215147" type="curve" smooth="yes"/>
			<point x="644" y="474.6221215147"/>
			<point x="750" y="458.6221215147"/>
			<point x="693" y="408.6221215147" type="curve" smooth="yes"/>
			<point x="625" y="349.6221215147"/>
			<point x="594" y="242.6221215147"/>
			<point x="558" y="109.6221215147" type="curve" smooth="yes"/>
			<point x="549" y="70.6221215147"/>
			<point x="520" y="50.6221215147"/>
			<point x="481" y="50.6221215147" type="curve" smooth="yes"/>
			<point x="395" y="50.6221215147"/>
			<point x="361" y="117.6221215147"/>
			<point x="349" y="220.6221215147" type="curve" smooth="yes"/>
			<point x="335" y="336.6221215147"/>
			<point x="325" y="386.6221215147"/>
			<point x="294" y="428.6221215147" type="curve" smooth="yes"/>
			<point x="274" y="455.6221215147"/>
			<point x="341" y="440.6221215147"/>
			<point x="323" y="403.6221215147" type="curve" smooth="yes"/>
			<point x="273" y="306.6221215147"/>
			<point x="256" y="211.6221215147"/>
			<point x="244" y="101.6221215147" type="curve" smooth="yes"/>
			<point x="240" y="68.6221215147"/>
			<point x="218" y="50.6221215147"/>
			<point x="172" y="50.6221215147" type="curve" smooth="yes"/>
			<point x="79" y="50.6221215147"/>
			<point x="52" y="149.6221215147"/>
			<point x="52" y="249.6221215147" type="curve" smooth="yes"/>
			<point x="52" y="312.6221215147"/>
			<point x="62" y="381.6221215147"/>
			<point x="62" y="443.6221215147" type="curve" smooth="yes"/>
			<point x="62" y="471.6221215147"/>
			<point x="57" y="496.6221215147"/>
			<point x="57" y="520.6221215147" type="curve" smooth="yes"/>
			<point x="57" y="543.6221215147"/>
			<point x="73" y="564.6221215147"/>
			<point x="105" y="564.6221215147" type="curve" smooth="yes"/>
			<point x="187" y="564.6221215147"/>
			<point x="221" y="497.6221215147"/>
		</contour>
	</outline>
</glyph>
<glyph name="n" format="2">
	<unicode hex="006E"/>
	<advance width="707"/>
	<outline>
		<contour>
			<point x="585" y="137.1034464522" type="curve" smooth="yes"/>
			<point x="624" y="137.1034464522"/>
			<point x="667" y="176.1034464522"/>
			<point x="667" y="230.1034464522" type="curve" smooth="yes"/>
			<point x="667" y="255.1034464522"/>
			<point x="660" y="272.1034464522"/>
			<point x="642" y="287.1034464522" type="curve" smooth="yes"/>
			<point x="601" y="321.1034464522"/>
			<point x="594" y="386.1034464522"/>
			<point x="594" y="517.1034464522" type="curve" smooth="yes"/>
			<point x="594" y="603.1034464522"/>
			<point x="533" y="671.1034464522"/>
			<point x="439" y="671.1034464522" type="curve" smooth="yes"/>
			<point x="341" y="671.1034464522"/>
			<point x="234" y="588.1034464522"/>
			<point x="167" y="399.1034464522" type="curve"/>
			<point x="217" y="333.1034464522" type="line"/>
			<point x="217" y="472.1034464522"/>
			<point x="244" y="488.1034464522"/>
			<point x="244" y="559.1034464522" type="curve" smooth="yes"/>
			<point x="244" y="624.1034464522"/>
			<point x="182" y="658.1034464522"/>
			<point x="141" y="658.1034464522" type="curve" smooth="yes"/>
			<point x="104" y="658.1034464522"/>
			<point x="84" y="637.1034464522"/>
			<point x="84" y="608.1034464522" type="curve" smooth="yes"/>
			<point x="84" y="485.1034464522"/>
			<point x="55" y="433.1034464522"/>
			<point x="55" y="298.1034464522" type="curve" smooth="yes"/>
			<point x="55" y="205.1034464522"/>
			<point x="85" y="138.1034464522"/>
			<point x="145" y="138.1034464522" type="curve" smooth="yes"/>
			<point x="191" y="138.1034464522"/>
			<point x="216" y="153.1034464522"/>
			<point x="229" y="197.1034464522" type="curve" smooth="yes"/>
			<point x="282" y="374.1034464522"/>
			<point x="374" y="504.1034464522"/>
			<point x="425" y="504.1034464522" type="curve" smooth="yes"/>
			<point x="443" y="504.1034464522"/>
			<point x="456" y="493.1034464522"/>
			<point x="483" y="464.1034464522" type="curve"/>
			<point x="488" y="521.1034464522"/>
			<point x="457" y="523.1034464522"/>
			<point x="404" y="526.1034464522" type="curve"/>
			<point x="437" y="511.1034464522"/>
			<point x="438" y="488.1034464522"/>
			<point x="438" y="446.1034464522" type="curve" smooth="yes"/>
			<point x="438" y="242.1034464522"/>
			<point x="493" y="137.1034464522"/>
		</contour>
	</outline>
</glyph>
<glyph name="p" format="2">
	<unicode hex="0070"/>
	<advance width="610"/>
	<outline>
		<contour>
			<point x="211" y="204.2400759479" type="curve" smooth="yes"/>
			<point x="211" y="53.2400759479"/>
			<point x="257" y="-61.7599240521"/>
			<point x="257" y="-199.7599240521" type="curve" smooth="yes"/>
			<point x="257" y="-297.7599240521"/>
			<point x="250" y="-414.7599240521"/>
			<point x="157" y="-414.7599240521" type="curve" smooth="yes"/>
			<point x="114" y="-414.7599240521"/>
			<point x="63" y="-379.7599240521"/>
			<point x="63" y="-304.7599240521" type="curve" smooth="yes"/>
			<point x="63" y="-241.7599240521"/>
			<point x="75" y="-217.7599240521"/>
			<point x="75" y="-151.7599240521" type="curve" smooth="yes"/>
			<point x="75" y="-0.7599240521"/>
			<point x="36" y="112.2400759479"/>
			<point x="25" y="252.2400759479" type="curve" smooth="yes"/>
			<point x="23" y="281.2400759479"/>
			<point x="46" y="302.2400759479"/>
			<point x="80" y="302.2400759479" type="curve" smooth="yes"/>
			<point x="145" y="302.2400759479"/>
			<point x="211" y="257.2400759479"/>
		</contour>
		<contour>
			<point x="233" y="374.2400759479" type="curve" smooth="yes"/>
			<point x="422" y="374.2400759479"/>
			<point x="584" y="257.2400759479"/>
			<point x="584" y="46.2400759479" type="curve" smooth="yes"/>
			<point x="584" y="-50.7599240521"/>
			<point x="494" y="-163.7599240521"/>
			<point x="342" y="-163.7599240521" type="curve" smooth="yes"/>
			<point x="219" y="-163.7599240521"/>
			<point x="126" y="-84.7599240521"/>
			<point x="126" y="7.2400759479" type="curve" smooth="yes"/>
			<point x="126" y="32.2400759479"/>
			<point x="150" y="58.2400759479"/>
			<point x="174" y="58.2400759479" type="curve" smooth="yes"/>
			<point x="219" y="58.2400759479"/>
			<point x="250" y="5.2400759479"/>
			<point x="313" y="5.2400759479" type="curve" smooth="yes"/>
			<point x="366" y="5.2400759479"/>
			<point x="402" y="24.2400759479"/>
			<point x="402" y="73.2400759479" type="curve" smooth="yes"/>
			<point x="402" y="156.2400759479"/>
			<point x="298" y="199.2400759479"/>
			<point x="226" y="199.2400759479" type="curve" smooth="yes"/>
			<point x="213" y="199.2400759479"/>
			<point x="205" y="194.2400759479"/>
			<point x="178" y="194.2400759479" type="curve" smooth="yes"/>
			<point x="133" y="194.2400759479"/>
			<point x="84" y="234.2400759479"/>
			<point x="84" y="283.2400759479" type="curve" smooth="yes"/>
			<point x="84" y="355.2400759479"/>
			<point x="135" y="374.2400759479"/>
		</contour>
	</outline>
</glyph>
<glyph name="r" format="2">
	<unicode hex="0072"/>
	<advance width="528"/>
	<outline>
		<contour>
			<point x="183" y="-206.4381480195" type="curve" smooth="yes"/>
			<point x="229" y="-206.4381480195"/>
			<point x="240" y="-182.4381480195"/>
			<point x="255" y="-98.4381480195" type="curve" smooth="yes"/>
			<point x="273" y="7.5618519805"/>
			<point x="313" y="70.5618519805"/>
			<point x="478" y="137.5618519805" type="curve" smooth="yes"/>
			<point x="524" y="156.5618519805"/>
			<point x="532" y="185.5618519805"/>
			<point x="532" y="215.5618519805" type="curve" smooth="yes"/>
			<point x="532" y="282.5618519805"/>
			<point x="515" y="326.5618519805"/>
			<point x="465" y="326.5618519805" type="curve" smooth="yes"/>
			<point x="360" y="326.5618519805"/>
			<point x="233" y="223.5618519805"/>
			<point x="174" y="70.5618519805" type="curve"/>
			<point x="245" y="108.5618519805" type="line"/>
			<point x="218" y="266.5618519805"/>
			<point x="177" y="316.5618519805"/>
			<point x="78" y="316.5618519805" type="curve" smooth="yes"/>
			<point x="46" y="316.5618519805"/>
			<point x="21" y="299.5618519805"/>
			<point x="21" y="273.5618519805" type="curve" smooth="yes"/>
			<point x="21" y="254.5618519805"/>
			<point x="24" y="242.5618519805"/>
			<point x="40" y="208.5618519805" type="curve" smooth="yes"/>
			<point x="71" y="141.5618519805"/>
			<point x="81" y="59.5618519805"/>
			<point x="81" y="-79.4381480195" type="curve" smooth="yes"/>
			<point x="81" y="-149.4381480195"/>
			<point x="131" y="-206.4381480195"/>
		</contour>
	</outline>
</glyph>
<glyph name="t" format="2">
	<unicode hex="0074"/>
	<advance width="503"/>
	<outline>
		<contour>
			<point x="224" y="420.2683129101" type="curve" smooth="yes"/>
			<point x="224" y="512.2683129101"/>
			<point x="234" y="575.2683129101"/>
			<point x="234" y="630.2683129101" type="curve" smooth="yes"/>
			<point x="234" y="740.2683129101"/>
			<point x="179" y="788.2683129101"/>
			<point x="96" y="788.2683129101" type="curve" smooth="yes"/>
			<point x="51" y="788.2683129101"/>
			<point x="41" y="766.2683129101"/>
			<point x="41" y="738.2683129101" type="curve" smooth="yes"/>
			<point x="41" y="706.2683129101"/>
			<point x="58" y="678.2683129101"/>
			<point x="58" y="625.2683129101" type="curve" smooth="yes"/>
			<point x="58" y="551.2683129101"/>
			<point x="51" y="500.2683129101"/>
			<point x="51" y="414.2683129101" type="curve" smooth="yes"/>
			<point x="51" y="201.2683129101"/>
			<point x="119" y="59.2683129101"/>
			<point x="317" y="59.2683129101" type="curve" smooth="yes"/>
			<point x="414" y="59.2683129101"/>
			<point x="465" y="117.2683129101"/>
			<point x="465" y="201.2683129101" type="curve" smooth="yes"/>
			<point x="465" y="240.2683129101"/>
			<point x="453" y="259.2683129101"/>
			<point x="426" y="259.2683129101" type="curve" smooth="yes"/>
			<point x="401" y="259.2683129101"/>
			<point x="384" y="239.2683129101"/>
			<point x="351" y="239.2683129101" type="curve" smooth="yes"/>
			<point x="266" y="239.2683129101"/>
			<point x="224" y="287.2683129101"/>
		</contour>
		<contour>
			<point x="200" y="399.2683129101" type="curve" smooth="yes"/>
			<point x="278" y="430.2683129101"/>
			<point x="338" y="440.2683129101"/>
			<point x="441" y="446.2683129101" type="curve" smooth="yes"/>
			<point x="467" y="448.2683129101"/>
			<point x="482" y="470.2683129101"/>
			<point x="482" y="494.2683129101" type="curve" smooth="yes"/>
			<point x="482" y="549.2683129101"/>
			<point x="427" y="597.2683129101"/>
			<point x="357" y="597.2683129101" type="curve" smooth="yes"/>
			<point x="300" y="597.2683129101"/>
			<point x="227" y="584.2683129101"/>
			<point x="171" y="564.2683129101" type="curve" smooth="yes"/>
			<point x="109" y="541.2683129101"/>
			<point x="103" y="505.2683129101"/>
			<point x="103" y="463.2683129101" type="curve" smooth="yes"/>
			<point x="103" y="410.2683129101"/>
			<point x="139" y="374.2683129101"/>
		</contour>
	</outline>
</glyph>
<glyph name="x" format="2">
	<unicode hex="0078"/>
	<advance width="589"/>
	<outline>
		<contour>
			<point x="509" y="267.8648873791" type="curve" smooth="yes"/>
			<point x="364" y="180.8648873791"/>
			<point x="225" y="37.8648873791"/>
			<point x="181" y="-160.1351126209" type="curve" smooth="yes"/>
			<point x="169" y="-212.1351126209"/>
			<point x="140" y="-254.1351126209"/>
			<point x="103" y="-254.1351126209" type="curve" smooth="yes"/>
			<point x="74" y="-254.1351126209"/>
			<point x="35" y="-239.1351126209"/>
			<point x="35" y="-147.1351126209" type="curve" smooth="yes"/>
			<point x="35" y="17.8648873791"/>
			<point x="198" y="278.8648873791"/>
			<point x="376" y="392.8648873791" type="curve" smooth="yes"/>
			<point x="412" y="415.8648873791"/>
			<point x="449" y="427.8648873791"/>
			<point x="466" y="427.8648873791" type="curve" smooth="yes"/>
			<point x="520" y="427.8648873791"/>
			<point x="543" y="391.8648873791"/>
			<point x="543" y="325.8648873791" type="curve" smooth="yes"/>
			<point x="543" y="299.8648873791"/>
			<point x="535" y="283.8648873791"/>
		</contour>
		<contour>
			<point x="520" y="48.8648873791" type="curve" smooth="yes"/>
			<point x="561" y="-9.1351126209"/>
			<point x="567" y="-36.1351126209"/>
			<point x="567" y="-55.1351126209" type="curve" smooth="yes"/>
			<point x="567" y="-92.1351126209"/>
			<point x="537" y="-113.1351126209"/>
			<point x="481" y="-113.1351126209" type="curve" smooth="yes"/>
			<point x="459" y="-113.1351126209"/>
			<point x="425" y="-105.1351126209"/>
			<point x="388" y="-54.1351126209" type="curve" smooth="yes"/>
			<point x="319" y="41.8648873791"/>
			<point x="164" y="178.8648873791"/>
			<point x="87" y="255.8648873791" type="curve" smooth="yes"/>
			<point x="57" y="284.8648873791"/>
			<point x="40" y="306.8648873791"/>
			<point x="40" y="347.8648873791" type="curve" smooth="yes"/>
			<point x="40" y="380.8648873791"/>
			<point x="61" y="427.8648873791"/>
			<point x="102" y="427.8648873791" type="curve" smooth="yes"/>
			<point x="114" y="427.8648873791"/>
			<point x="139" y="430.8648873791"/>
			<point x="179" y="399.8648873791" type="curve" smooth="yes"/>
			<point x="250" y="346.8648873791"/>
			<point x="455" y="137.8648873791"/>
		</contour>
	</outline>
</glyph>
<glyph name="section" format="2">
	<unicode hex="00A7"/>
	<advance width="603"/>
	<outline>
		<contour>
			<point x="262" y="-85.5049674563" type="curve" smooth="yes"/>
			<point x="459" y="-85.5049674563"/>
			<point x="556" y="-30.5049674563"/>
			<point x="556" y="91.4950325437" type="curve" smooth="yes"/>
			<point x="556" y="285.4950325437"/>
			<point x="208" y="302.4950325437"/>
			<point x="208" y="384.4950325437" type="curve" smooth="yes"/>
			<point x="208" y="409.4950325437"/>
			<point x="247" y="440.4950325437"/>
			<point x="332" y="448.4950325437" type="curve"/>
			<point x="238" y="533.4950325437" type="line"/>
			<point x="116" y="519.4950325437"/>
			<point x="47" y="465.4950325437"/>
			<point x="47" y="378.4950325437" type="curve" smooth="yes"/>
			<point x="47" y="180.4950325437"/>
			<point x="342" y="159.4950325437"/>
			<point x="375" y="95.4950325437" type="curve"/>
			<point x="330" y="84.4950325437"/>
			<point x="304" y="81.4950325437"/>
			<point x="241" y="81.4950325437" type="curve" smooth="yes"/>
			<point x="166" y="81.4950325437"/>
			<point x="148" y="108.4950325437"/>
			<point x="112" y="108.4950325437" type="curve" smooth="yes"/>
			<point x="70" y="108.4950325437"/>
			<point x="60" y="87.4950325437"/>
			<point x="60" y="52.4950325437" type="curve" smooth="yes"/>
			<point x="60" y="-17.5049674563"/>
			<point x="131" y="-85.5049674563"/>
		</contour>
		<contour>
			<point x="372" y="216.4950325437" type="line"/>
			<point x="495" y="216.4950325437"/>
			<point x="566" y="274.4950325437"/>
			<point x="566" y="362.4950325437" type="curve" smooth="yes"/>
			<point x="566" y="542.4950325437"/>
			<point x="236" y="564.4950325437"/>
			<point x="236" y="625.4950325437" type="curve" smooth="yes"/>
			<point x="236" y="655.4950325437"/>
			<point x="341" y="689.4950325437"/>
			<point x="490" y="720.4950325437" type="curve" smooth="yes"/>
			<point x="522" y="726.4950325437"/>
			<point x="544" y="755.4950325437"/>
			<point x="544" y="789.4950325437" type="curve" smooth="yes"/>
			<point x="544" y="838.4950325437"/>
			<point x="520" y="884.4950325437"/>
			<point x="448" y="884.4950325437" type="curve" smooth="yes"/>
			<point x="325" y="884.4950325437"/>
			<point x="57" y="786.4950325437"/>
			<point x="57" y="629.4950325437" type="curve" smooth="yes"/>
			<point x="57" y="431.4950325437"/>
			<point x="372" y="411.4950325437"/>
			<point x="405" y="356.4950325437" type="curve"/>
			<point x="381" y="327.4950325437"/>
			<point x="338" y="312.4950325437"/>
			<point x="256" y="307.4950325437" type="curve"/>
		</contour>
	</outline>
</glyph>
<glyph name="copyright" format="2">
	<unicode hex="00A9"/>
	<advance width="965"/>
	<outline>
		<contour>
			<point x="358" y="672.8618861351" type="curve" smooth="yes"/>
			<point x="240" y="602.8618861351"/>
			<point x="198" y="515.8618861351"/>
			<point x="198" y="400.8618861351" type="curve" smooth="yes"/>
			<point x="198" y="279.8618861351"/>
			<point x="275" y="177.8618861351"/>
			<point x="449" y="177.8618861351" type="curve" smooth="yes"/>
			<point x="657" y="177.8618861351"/>
			<point x="776" y="295.8618861351"/>
			<point x="776" y="501.8618861351" type="curve" smooth="yes"/>
			<point x="776" y="652.8618861351"/>
			<point x="707" y="747.8618861351"/>
			<point x="534" y="746.8618861351" type="curve" smooth="yes"/>
			<point x="391" y="745.8618861351"/>
			<point x="332" y="693.8618861351"/>
			<point x="265" y="642.8618861351" type="curve" smooth="yes"/>
			<point x="244" y="626.8618861351"/>
			<point x="217" y="615.8618861351"/>
			<point x="192" y="615.8618861351" type="curve" smooth="yes"/>
			<point x="150" y="615.8618861351"/>
			<point x="135" y="635.8618861351"/>
			<point x="135" y="669.8618861351" type="curve" smooth="yes"/>
			<point x="135" y="735.8618861351"/>
			<point x="293" y="873.8618861351"/>
			<point x="533" y="873.8618861351" type="curve" smooth="yes"/>
			<point x="790" y="873.8618861351"/>
			<point x="915" y="727.8618861351"/>
			<point x="915" y="518.8618861351" type="curve" smooth="yes"/>
			<point x="915" y="205.8618861351"/>
			<point x="704" y="51.8618861351"/>
			<point x="456" y="51.8618861351" type="curve" smooth="yes"/>
			<point x="219" y="51.8618861351"/>
			<point x="60" y="152.8618861351"/>
			<point x="60" y="386.8618861351" type="curve" smooth="yes"/>
			<point x="60" y="645.8618861351"/>
			<point x="276" y="780.8618861351"/>
			<point x="367" y="780.8618861351" type="curve" smooth="yes"/>
			<point x="395" y="780.8618861351"/>
			<point x="408" y="769.8618861351"/>
			<point x="408" y="746.8618861351" type="curve" smooth="yes"/>
			<point x="408" y="721.8618861351"/>
			<point x="394" y="692.8618861351"/>
		</contour>
		<contour>
			<point x="480" y="247.8618861351" type="curve" smooth="yes"/>
			<point x="585" y="247.8618861351"/>
			<point x="640" y="280.8618861351"/>
			<point x="640" y="373.8618861351" type="curve" smooth="yes"/>
			<point x="640" y="407.8618861351"/>
			<point x="627" y="432.8618861351"/>
			<point x="605" y="432.8618861351" type="curve" smooth="yes"/>
			<point x="588" y="432.8618861351"/>
			<point x="548" y="396.8618861351"/>
			<point x="494" y="396.8618861351" type="curve" smooth="yes"/>
			<point x="452" y="396.8618861351"/>
			<point x="427" y="407.8618861351"/>
			<point x="427" y="432.8618861351" type="curve" smooth="yes"/>
			<point x="427" y="465.8618861351"/>
			<point x="469" y="506.8618861351"/>
			<point x="520" y="506.8618861351" type="curve" smooth="yes"/>
			<point x="529" y="506.8618861351"/>
			<point x="535" y="499.8618861351"/>
			<point x="538" y="489.8618861351" type="curve" smooth="yes"/>
			<point x="541" y="479.8618861351"/>
			<point x="548" y="471.8618861351"/>
			<point x="558" y="471.8618861351" type="curve" smooth="yes"/>
			<point x="612" y="471.8618861351"/>
			<point x="651" y="537.8618861351"/>
			<point x="651" y="592.8618861351" type="curve" smooth="yes"/>
			<point x="651" y="640.8618861351"/>
			<point x="622" y="673.8618861351"/>
			<point x="545" y="673.8618861351" type="curve" smooth="yes"/>
			<point x="418" y="673.8618861351"/>
			<point x="288" y="547.8618861351"/>
			<point x="288" y="414.8618861351" type="curve" smooth="yes"/>
			<point x="288" y="315.8618861351"/>
			<point x="368" y="247.8618861351"/>
		</contour>
	</outline>
</glyph>
<glyph name="quoteleft" format="2">
	<unicode hex="2018"/>
	<advance width="241"/>
	<image fileName="quoteleft.png" xScale="2.7154088417" yScale="2.7154088417" xOffset="-114.4273808669" yOffset="-445.4316255776" color="0,0,0,0.31832"/>
	<outline>
		<contour>
			<point x="169" y="957.6999610481" type="curve" smooth="yes"/>
			<point x="131" y="957.6999610481"/>
			<point x="105" y="945.6999610481"/>
			<point x="79" y="907.6999610481" type="curve" smooth="yes"/>
			<point x="38" y="848.6999610481"/>
			<point x="17" y="765.6999610481"/>
			<point x="17" y="706.6999610481" type="curve" smooth="yes"/>
			<point x="17" y="629.6999610481"/>
			<point x="52" y="559.6999610481"/>
			<point x="103" y="559.6999610481" type="curve" smooth="yes"/>
			<point x="142" y="559.6999610481"/>
			<point x="162" y="588.6999610481"/>
			<point x="172" y="637.6999610481" type="curve" smooth="yes"/>
			<point x="183" y="692.6999610481"/>
			<point x="201" y="742.6999610481"/>
			<point x="243" y="794.6999610481" type="curve" smooth="yes"/>
			<point x="257" y="812.6999610481"/>
			<point x="262" y="828.6999610481"/>
			<point x="262" y="847.6999610481" type="curve" smooth="yes"/>
			<point x="262" y="896.6999610481"/>
			<point x="227" y="957.6999610481"/>
		</contour>
	</outline>
</glyph>
<glyph name="quotedblright" format="2">
	<unicode hex="201D"/>
	<advance width="511"/>
	<outline>
		<contour>
			<point x="168" y="683.1743277018" type="curve" smooth="yes"/>
			<point x="134" y="683.1743277018"/>
			<point x="115" y="669.1743277018"/>
			<point x="99" y="633.1743277018" type="curve" smooth="yes"/>
			<point x="67" y="564.1743277018"/>
			<point x="39" y="471.1743277018"/>
			<point x="39" y="403.1743277018" type="curve" smooth="yes"/>
			<point x="39" y="341.1743277018"/>
			<point x="66" y="285.1743277018"/>
			<point x="110" y="285.1743277018" type="curve" smooth="yes"/>
			<point x="149" y="285.1743277018"/>
			<point x="170" y="314.1743277018"/>
			<point x="190" y="355.1743277018" type="curve" smooth="yes"/>
			<point x="211" y="400.1743277018"/>
			<point x="237" y="441.1743277018"/>
			<point x="263" y="513.1743277018" type="curve" smooth="yes"/>
			<point x="274" y="543.1743277018"/>
			<point x="279" y="564.1743277018"/>
			<point x="279" y="587.1743277018" type="curve" smooth="yes"/>
			<point x="279" y="632.1743277018"/>
			<point x="220" y="683.1743277018"/>
		</contour>
		<contour>
			<point x="408" y="583.1743277018" type="curve" smooth="yes"/>
			<point x="374" y="583.1743277018"/>
			<point x="355" y="569.1743277018"/>
			<point x="339" y="533.1743277018" type="curve" smooth="yes"/>
			<point x="315" y="480.1743277018"/>
			<point x="299" y="406.1743277018"/>
			<point x="299" y="353.1743277018" type="curve" smooth="yes"/>
			<point x="299" y="296.1743277018"/>
			<point x="332" y="245.1743277018"/>
			<point x="387" y="245.1743277018" type="curve" smooth="yes"/>
			<point x="418" y="245.1743277018"/>
			<point x="436" y="269.1743277018"/>
			<point x="450" y="305.1743277018" type="curve" smooth="yes"/>
			<point x="461" y="337.1743277018"/>
			<point x="473" y="374.1743277018"/>
			<point x="499" y="418.1743277018" type="curve" smooth="yes"/>
			<point x="514" y="443.1743277018"/>
			<point x="519" y="464.1743277018"/>
			<point x="519" y="487.1743277018" type="curve" smooth="yes"/>
			<point x="519" y="532.1743277018"/>
			<point x="460" y="583.1743277018"/>
		</contour>
	</outline>
</glyph>
<glyph name="dagger" format="2">
	<unicode hex="2020"/>
	<advance width="619"/>
	<outline>
		<contour>
			<point x="402" y="647.8992563944" type="curve" smooth="yes"/>
			<point x="402" y="544.8992563944"/>
			<point x="377" y="426.8992563944"/>
			<point x="377" y="284.8992563944" type="curve" smooth="yes"/>
			<point x="377" y="47.8992563944"/>
			<point x="403" y="-18.1007436056"/>
			<point x="403" y="-110.1007436056" type="curve" smooth="yes"/>
			<point x="403" y="-168.1007436056"/>
			<point x="374" y="-196.1007436056"/>
			<point x="328" y="-196.1007436056" type="curve" smooth="yes"/>
			<point x="284" y="-196.1007436056"/>
			<point x="254" y="-167.1007436056"/>
			<point x="242" y="-104.1007436056" type="curve" smooth="yes"/>
			<point x="216" y="31.8992563944"/>
			<point x="210" y="119.8992563944"/>
			<point x="210" y="261.8992563944" type="curve" smooth="yes"/>
			<point x="210" y="451.8992563944"/>
			<point x="240" y="552.8992563944"/>
			<point x="235" y="710.8992563944" type="curve" smooth="yes"/>
			<point x="233" y="755.8992563944"/>
			<point x="248" y="785.8992563944"/>
			<point x="297" y="785.8992563944" type="curve" smooth="yes"/>
			<point x="362" y="785.8992563944"/>
			<point x="402" y="745.8992563944"/>
		</contour>
		<contour>
			<point x="240" y="441.8992563944"/>
			<point x="166" y="383.8992563944"/>
			<point x="92" y="383.8992563944" type="curve" smooth="yes"/>
			<point x="42" y="383.8992563944"/>
			<point x="15" y="422.4457680223"/>
			<point x="15" y="468.8992563944" type="curve" smooth="yes"/>
			<point x="15" y="509.3590265093"/>
			<point x="27.9598329386" y="540.8900753518"/>
			<point x="98" y="556.8992563944" type="curve" smooth="yes"/>
			<point x="218" y="583.8992563944"/>
			<point x="361" y="592.8992563944"/>
			<point x="479" y="592.8992563944" type="curve" smooth="yes"/>
			<point x="558" y="592.8992563944"/>
			<point x="604" y="556.8992563944"/>
			<point x="604" y="499.8992563944" type="curve" smooth="yes"/>
			<point x="604" y="465.8992563944"/>
			<point x="589" y="441.8992563944"/>
			<point x="535" y="441.8992563944" type="curve" smooth="yes"/>
		</contour>
	</outline>
</glyph>
<glyph name="daggerdbl" format="2">
	<unicode hex="2021"/>
	<advance width="619"/>
	<outline>
		<contour>
			<point x="412" y="635.4426129054" type="curve" smooth="yes"/>
			<point x="412" y="532.4426129054"/>
			<point x="387" y="414.4426129054"/>
			<point x="387" y="272.4426129054" type="curve" smooth="yes"/>
			<point x="387" y="35.4426129054"/>
			<point x="413" y="-30.5573870946"/>
			<point x="413" y="-122.5573870946" type="curve" smooth="yes"/>
			<point x="413" y="-180.5573870946"/>
			<point x="384" y="-208.5573870946"/>
			<point x="338" y="-208.5573870946" type="curve" smooth="yes"/>
			<point x="294" y="-208.5573870946"/>
			<point x="264" y="-179.5573870946"/>
			<point x="252" y="-116.5573870946" type="curve" smooth="yes"/>
			<point x="226" y="19.4426129054"/>
			<point x="220" y="107.4426129054"/>
			<point x="220" y="249.4426129054" type="curve" smooth="yes"/>
			<point x="220" y="439.4426129054"/>
			<point x="250" y="540.4426129054"/>
			<point x="245" y="698.4426129054" type="curve" smooth="yes"/>
			<point x="243" y="743.4426129054"/>
			<point x="258" y="773.4426129054"/>
			<point x="307" y="773.4426129054" type="curve" smooth="yes"/>
			<point x="372" y="773.4426129054"/>
			<point x="412" y="733.4426129054"/>
		</contour>
		<contour>
			<point x="232" y="429.4426129054"/>
			<point x="164" y="379.4426129054"/>
			<point x="92" y="379.4426129054" type="curve" smooth="yes"/>
			<point x="42" y="379.4426129054"/>
			<point x="15" y="418.4426129054"/>
			<point x="15" y="465.4426129054" type="curve" smooth="yes"/>
			<point x="15" y="505.4426129054"/>
			<point x="28" y="535.4426129054"/>
			<point x="101" y="548.4426129054" type="curve" smooth="yes"/>
			<point x="224" y="570.4426129054"/>
			<point x="361" y="580.4426129054"/>
			<point x="479" y="580.4426129054" type="curve" smooth="yes"/>
			<point x="558" y="580.4426129054"/>
			<point x="604" y="544.4426129054"/>
			<point x="604" y="487.4426129054" type="curve" smooth="yes"/>
			<point x="604" y="453.4426129054"/>
			<point x="589" y="429.4426129054"/>
			<point x="535" y="429.4426129054" type="curve" smooth="yes"/>
		</contour>
		<contour>
			<point x="238" y="79.4426129054"/>
			<point x="160" y="41.4426129054"/>
			<point x="92" y="41.4426129054" type="curve" smooth="yes"/>
			<point x="42" y="41.4426129054"/>
			<point x="15" y="80.4426129054"/>
			<point x="15" y="127.4426129054" type="curve" smooth="yes"/>
			<point x="15" y="167.4426129054"/>
			<point x="31" y="197.4426129054"/>
			<point x="107" y="208.4426129054" type="curve" smooth="yes"/>
			<point x="235" y="226.4426129054"/>
			<point x="361" y="230.4426129054"/>
			<point x="479" y="230.4426129054" type="curve" smooth="yes"/>
			<point x="558" y="230.4426129054"/>
			<point x="604" y="194.4426129054"/>
			<point x="604" y="137.4426129054" type="curve" smooth="yes"/>
			<point x="604" y="103.4426129054"/>
			<point x="589" y="79.4426129054"/>
			<point x="535" y="79.4426129054" type="curve" smooth="yes"/>
		</contour>
	</outline>
</glyph>
<glyph name="minute" format="2">
	<unicode hex="2032"/>
	<advance width="281"/>
	<outline>
		<contour>
			<point x="97" y="210.1955543508" type="curve" smooth="yes"/>
			<point x="137" y="210.1955543508"/>
			<point x="165" y="231.1955543508"/>
			<point x="187" y="266.1955543508" type="curve" smooth="yes"/>
			<point x="226" y="329.1955543508"/>
			<point x="256" y="412.1955543508"/>
			<point x="256" y="474.1955543508" type="curve" smooth="yes"/>
			<point x="256" y="539.1955543508"/>
			<point x="211" y="576.1955543508"/>
			<point x="143" y="576.1955543508" type="curve" smooth="yes"/>
			<point x="86" y="576.1955543508"/>
			<point x="61" y="537.1955543508"/>
			<point x="61" y="473.1955543508" type="curve" smooth="yes"/>
			<point x="61" y="345.1955543508"/>
			<point x="36" y="315.1955543508"/>
			<point x="36" y="270.1955543508" type="curve" smooth="yes"/>
			<point x="36" y="235.1955543508"/>
			<point x="53" y="210.1955543508"/>
		</contour>
	</outline>
</glyph>
<glyph name="second" format="2">
	<unicode hex="2033"/>
	<advance width="556"/>
	<outline>
		<contour>
			<point x="361" y="466.0139098326" type="curve" smooth="yes"/>
			<point x="401" y="466.0139098326"/>
			<point x="429" y="487.0139098326"/>
			<point x="451" y="522.0139098326" type="curve" smooth="yes"/>
			<point x="490" y="585.0139098326"/>
			<point x="520" y="668.0139098326"/>
			<point x="520" y="730.0139098326" type="curve" smooth="yes"/>
			<point x="520" y="795.0139098326"/>
			<point x="475" y="832.0139098326"/>
			<point x="407" y="832.0139098326" type="curve" smooth="yes"/>
			<point x="350" y="832.0139098326"/>
			<point x="325" y="793.0139098326"/>
			<point x="325" y="729.0139098326" type="curve" smooth="yes"/>
			<point x="325" y="586.0139098326"/>
			<point x="300" y="569.0139098326"/>
			<point x="300" y="526.0139098326" type="curve" smooth="yes"/>
			<point x="300" y="491.0139098326"/>
			<point x="317" y="466.0139098326"/>
		</contour>
		<contour>
			<point x="97" y="466.0139098326" type="curve" smooth="yes"/>
			<point x="137" y="466.0139098326"/>
			<point x="165" y="487.0139098326"/>
			<point x="187" y="522.0139098326" type="curve" smooth="yes"/>
			<point x="226" y="585.0139098326"/>
			<point x="256" y="668.0139098326"/>
			<point x="256" y="730.0139098326" type="curve" smooth="yes"/>
			<point x="256" y="795.0139098326"/>
			<point x="211" y="832.0139098326"/>
			<point x="143" y="832.0139098326" type="curve" smooth="yes"/>
			<point x="86" y="832.0139098326"/>
			<point x="61" y="793.0139098326"/>
			<point x="61" y="729.0139098326" type="curve" smooth="yes"/>
			<point x="61" y="601.0139098326"/>
			<point x="36" y="571.0139098326"/>
			<point x="36" y="526.0139098326" type="curve" smooth="yes"/>
			<point x="36" y="491.0139098326"/>
			<point x="53" y="466.0139098326"/>
		</contour>
	</outline>
</glyph>
<glyph name="trademark" format="2">
	<unicode hex="2122"/>
	<advance width="1207"/>
	<outline>
		<contour>
			<point x="155" y="535.5987413493" type="curve" smooth="yes"/>
			<point x="141" y="389.5987413493"/>
			<point x="141" y="333.5987413493"/>
			<point x="164" y="261.5987413493" type="curve" smooth="yes"/>
			<point x="178" y="217.5987413493"/>
			<point x="212" y="189.5987413493"/>
			<point x="252" y="189.5987413493" type="curve" smooth="yes"/>
			<point x="295" y="189.5987413493"/>
			<point x="316" y="207.5987413493"/>
			<point x="316" y="251.5987413493" type="curve" smooth="yes"/>
			<point x="316" y="304.5987413493"/>
			<point x="300" y="315.5987413493"/>
			<point x="312" y="514.5987413493" type="curve" smooth="yes"/>
			<point x="316" y="578.5987413493"/>
			<point x="291" y="607.5987413493"/>
			<point x="218" y="607.5987413493" type="curve" smooth="yes"/>
			<point x="183" y="607.5987413493"/>
			<point x="159" y="583.5987413493"/>
		</contour>
		<contour>
			<point x="119" y="517.5987413493" type="curve" smooth="yes"/>
			<point x="185" y="510.5987413493"/>
			<point x="263" y="507.5987413493"/>
			<point x="346" y="507.5987413493" type="curve" smooth="yes"/>
			<point x="400" y="507.5987413493"/>
			<point x="459" y="535.5987413493"/>
			<point x="459" y="607.5987413493" type="curve" smooth="yes"/>
			<point x="459" y="639.5987413493"/>
			<point x="439" y="660.5987413493"/>
			<point x="397" y="660.5987413493" type="curve" smooth="yes"/>
			<point x="368" y="660.5987413493"/>
			<point x="347" y="653.5987413493"/>
			<point x="309" y="653.5987413493" type="curve" smooth="yes"/>
			<point x="246" y="653.5987413493"/>
			<point x="158" y="661.5987413493"/>
			<point x="80" y="661.5987413493" type="curve" smooth="yes"/>
			<point x="38" y="661.5987413493"/>
			<point x="20" y="635.5987413493"/>
			<point x="20" y="604.5987413493" type="curve" smooth="yes"/>
			<point x="20" y="550.5987413493"/>
			<point x="47" y="524.5987413493"/>
		</contour>
		<contour>
			<point x="979" y="481.5987413493"/>
			<point x="971" y="499.5987413493"/>
			<point x="958" y="518.5987413493" type="curve"/>
			<point x="1015" y="490.5987413493" type="line"/>
			<point x="959.3187087509" y="451.7268965151"/>
			<point x="929.1017873111" y="382.0620491102"/>
			<point x="900" y="249.5987413493" type="curve" smooth="yes"/>
			<point x="890" y="204.5987413493"/>
			<point x="868" y="192.5987413493"/>
			<point x="842" y="192.5987413493" type="curve" smooth="yes"/>
			<point x="817" y="192.5987413493"/>
			<point x="803" y="199.5987413493"/>
			<point x="792" y="211.5987413493" type="curve" smooth="yes"/>
			<point x="766.7439994362" y="239.660964198"/>
			<point x="753.9857813641" y="296.7249317431"/>
			<point x="746" y="367.5987413493" type="curve" smooth="yes"/>
			<point x="740" y="417.5987413493"/>
			<point x="732" y="445.5987413493"/>
			<point x="705" y="469.5987413493" type="curve"/>
			<point x="741" y="471.5987413493" type="line"/>
			<point x="688" y="432.5987413493"/>
			<point x="652" y="322.5987413493"/>
			<point x="652" y="247.5987413493" type="curve" smooth="yes"/>
			<point x="652" y="206.5987413493"/>
			<point x="631" y="190.5987413493"/>
			<point x="590" y="190.5987413493" type="curve" smooth="yes"/>
			<point x="543" y="190.5987413493"/>
			<point x="504" y="231.5987413493"/>
			<point x="504" y="323.5987413493" type="curve" smooth="yes"/>
			<point x="504" y="397.5987413493"/>
			<point x="522" y="452.5987413493"/>
			<point x="522" y="528.5987413493" type="curve" smooth="yes"/>
			<point x="522" y="552.5987413493"/>
			<point x="516" y="575.5987413493"/>
			<point x="516" y="601.5987413493" type="curve" smooth="yes"/>
			<point x="516" y="633.5987413493"/>
			<point x="536" y="654.5987413493"/>
			<point x="568" y="654.5987413493" type="curve" smooth="yes"/>
			<point x="650" y="654.5987413493"/>
			<point x="675" y="598.5987413493"/>
			<point x="670" y="497.5987413493" type="curve"/>
			<point x="629" y="483.5987413493" type="line"/>
			<point x="660" y="601.5987413493"/>
			<point x="716" y="659.5987413493"/>
			<point x="783" y="659.5987413493" type="curve" smooth="yes"/>
			<point x="836.4578313253" y="659.5987413493"/>
			<point x="860.9976840721" y="630.6141808689"/>
			<point x="870" y="570.5987413493" type="curve" smooth="yes"/>
			<point x="878" y="517.5987413493"/>
			<point x="884" y="464.5987413493"/>
			<point x="905" y="405.5987413493" type="curve"/>
			<point x="814" y="405.5987413493" type="line"/>
			<point x="819" y="431.5987413493"/>
			<point x="842" y="496.5987413493"/>
			<point x="875" y="556.5987413493" type="curve" smooth="yes"/>
			<point x="907.545651477" y="616.60478626"/>
			<point x="958.6934306569" y="657.5987413493"/>
			<point x="1022" y="657.5987413493" type="curve" smooth="yes"/>
			<point x="1097" y="657.5987413493"/>
			<point x="1139" y="616.5987413493"/>
			<point x="1146" y="512.5987413493" type="curve" smooth="yes"/>
			<point x="1150" y="446.5987413493"/>
			<point x="1160" y="351.5987413493"/>
			<point x="1178" y="295.5987413493" type="curve" smooth="yes"/>
			<point x="1195" y="244.5987413493"/>
			<point x="1192" y="192.5987413493"/>
			<point x="1122" y="192.5987413493" type="curve" smooth="yes"/>
			<point x="1080" y="192.5987413493"/>
			<point x="1042" y="209.5987413493"/>
			<point x="1019" y="249.5987413493" type="curve" smooth="yes"/>
			<point x="989" y="301.5987413493"/>
			<point x="983" y="361.5987413493"/>
			<point x="981" y="425.5987413493" type="curve" smooth="yes"/>
		</contour>
	</outline>
</glyph>
<glyph name="A.alt1" format="2">
	<advance width="780"/>
	<outline>
		<contour>
			<point x="677" y="-118.8273249679" type="curve" smooth="yes"/>
			<point x="719.28125" y="-118.8273249679"/>
			<point x="743" y="-98.8273249679"/>
			<point x="743" y="-60.8273249679" type="curve" smooth="yes"/>
			<point x="743" y="3.1726750321"/>
			<point x="675" y="71.1726750321"/>
			<point x="654" y="264.1726750321" type="curve" smooth="yes"/>
			<point x="625" y="517.1726750321"/>
			<point x="581" y="618.1726750321"/>
			<point x="433" y="618.1726750321" type="curve" smooth="yes"/>
			<point x="336.4344262295" y="618.1726750321"/>
			<point x="247" y="547.1726750321"/>
			<point x="195" y="445.1726750321" type="curve"/>
			<point x="266" y="470.1726750321" type="line"/>
			<point x="228.0601063329" y="505.5257577673"/>
			<point x="204.8990825688" y="520.1726750321"/>
			<point x="176" y="520.1726750321" type="curve" smooth="yes"/>
			<point x="142" y="520.1726750321"/>
			<point x="127" y="504.1726750321"/>
			<point x="127" y="479.1726750321" type="curve" smooth="yes"/>
			<point x="127" y="344.3823524515"/>
			<point x="79" y="229.2694492256"/>
			<point x="79" y="52.1726750321" type="curve" smooth="yes"/>
			<point x="79" y="-53.8273249679"/>
			<point x="135.4705882353" y="-115.8273249679"/>
			<point x="184" y="-115.8273249679" type="curve" smooth="yes"/>
			<point x="225" y="-117.8273249679"/>
			<point x="244" y="-97.8273249679"/>
			<point x="249" y="-50.8273249679" type="curve" smooth="yes"/>
			<point x="287" y="255.1726750321"/>
			<point x="367" y="445.1726750321"/>
			<point x="425" y="445.1726750321" type="curve" smooth="yes"/>
			<point x="443" y="445.1726750321"/>
			<point x="451" y="437.1726750321"/>
			<point x="470" y="269.1726750321" type="curve" smooth="yes"/>
			<point x="483" y="162.1726750321"/>
			<point x="496" y="25.1726750321"/>
			<point x="553" y="-49.8273249679" type="curve" smooth="yes"/>
			<point x="591.7782813188" y="-101.5317000596"/>
			<point x="624.8412698413" y="-118.8273249679"/>
		</contour>
		<contour>
			<point x="134" y="52.1726750321" type="curve" smooth="yes"/>
			<point x="239" y="50.1726750321"/>
			<point x="416" y="90.1726750321"/>
			<point x="623" y="90.1726750321" type="curve" smooth="yes"/>
			<point x="692" y="90.1726750321"/>
			<point x="750" y="135.1726750321"/>
			<point x="750" y="202.1726750321" type="curve" smooth="yes"/>
			<point x="750" y="252.1726750321"/>
			<point x="734" y="264.1726750321"/>
			<point x="599" y="264.1726750321" type="curve" smooth="yes"/>
			<point x="391" y="264.1726750321"/>
			<point x="204" y="243.1726750321"/>
			<point x="52" y="184.1726750321" type="curve" smooth="yes"/>
			<point x="28" y="175.1726750321"/>
			<point x="16" y="162.1726750321"/>
			<point x="16" y="140.1726750321" type="curve" smooth="yes"/>
			<point x="16" y="88.1726750321"/>
			<point x="75" y="52.1726750321"/>
		</contour>
	</outline>
</glyph>
<glyph name="A.alt2" format="2">
	<advance width="780"/>
	<outline>
		<contour>
			<point x="677" y="167.7447436574" type="curve" smooth="yes"/>
			<point x="719.28125" y="167.7447436574"/>
			<point x="743" y="187.7447436574"/>
			<point x="743" y="225.7447436574" type="curve" smooth="yes"/>
			<point x="743" y="289.7447436574"/>
			<point x="675" y="357.7447436574"/>
			<point x="654" y="550.7447436574" type="curve" smooth="yes"/>
			<point x="625" y="803.7447436574"/>
			<point x="581" y="904.7447436574"/>
			<point x="433" y="904.7447436574" type="curve" smooth="yes"/>
			<point x="336.4344262295" y="904.7447436574"/>
			<point x="247" y="833.7447436574"/>
			<point x="195" y="731.7447436574" type="curve"/>
			<point x="266" y="756.7447436574" type="line"/>
			<point x="228.0601063329" y="792.0978263926"/>
			<point x="204.8990825688" y="806.7447436574"/>
			<point x="176" y="806.7447436574" type="curve" smooth="yes"/>
			<point x="142" y="806.7447436574"/>
			<point x="127" y="790.7447436574"/>
			<point x="127" y="765.7447436574" type="curve" smooth="yes"/>
			<point x="127" y="630.9544210768"/>
			<point x="79" y="515.8415178509"/>
			<point x="79" y="338.7447436574" type="curve" smooth="yes"/>
			<point x="79" y="232.7447436574"/>
			<point x="135.4705882353" y="170.7447436574"/>
			<point x="184" y="170.7447436574" type="curve" smooth="yes"/>
			<point x="225" y="168.7447436574"/>
			<point x="244" y="188.7447436574"/>
			<point x="249" y="235.7447436574" type="curve" smooth="yes"/>
			<point x="287" y="541.7447436574"/>
			<point x="367" y="731.7447436574"/>
			<point x="425" y="731.7447436574" type="curve" smooth="yes"/>
			<point x="443" y="731.7447436574"/>
			<point x="451" y="723.7447436574"/>
			<point x="470" y="555.7447436574" type="curve" smooth="yes"/>
			<point x="483" y="448.7447436574"/>
			<point x="496" y="311.7447436574"/>
			<point x="553" y="236.7447436574" type="curve" smooth="yes"/>
			<point x="591.7782813188" y="185.0403685657"/>
			<point x="624.8412698413" y="167.7447436574"/>
		</contour>
		<contour>
			<point x="134" y="338.7447436574" type="curve" smooth="yes"/>
			<point x="239" y="336.7447436574"/>
			<point x="416" y="376.7447436574"/>
			<point x="623" y="376.7447436574" type="curve" smooth="yes"/>
			<point x="692" y="376.7447436574"/>
			<point x="750" y="421.7447436574"/>
			<point x="750" y="488.7447436574" type="curve" smooth="yes"/>
			<point x="750" y="538.7447436574"/>
			<point x="734" y="550.7447436574"/>
			<point x="599" y="550.7447436574" type="curve" smooth="yes"/>
			<point x="391" y="550.7447436574"/>
			<point x="204" y="529.7447436574"/>
			<point x="52" y="470.7447436574" type="curve" smooth="yes"/>
			<point x="28" y="461.7447436574"/>
			<point x="16" y="448.7447436574"/>
			<point x="16" y="426.7447436574" type="curve" smooth="yes"/>
			<point x="16" y="374.7447436574"/>
			<point x="75" y="338.7447436574"/>
		</contour>
	</outline>
</glyph>
<glyph name="B.alt1" format="2">
	<advance width="633"/>
	<outline>
		<contour>
			<point x="254" y="-14.4474731259"/>
			<point x="228" y="28.5525268741"/>
			<point x="228" y="171.5525268741" type="curve" smooth="yes"/>
			<point x="228" y="249.5525268741"/>
			<point x="230" y="280.5525268741"/>
			<point x="237" y="359.5525268741" type="curve" smooth="yes"/>
			<point x="242" y="404.5525268741"/>
			<point x="204" y="453.5525268741"/>
			<point x="151" y="453.5525268741" type="curve" smooth="yes"/>
			<point x="127" y="453.5525268741"/>
			<point x="94" y="437.5525268741"/>
			<point x="85" y="403.5525268741" type="curve" smooth="yes"/>
			<point x="61" y="308.5525268741"/>
			<point x="55" y="262.5525268741"/>
			<point x="55" y="155.5525268741" type="curve" smooth="yes"/>
			<point x="55" y="-23.4474731259"/>
			<point x="130" y="-185.4474731259"/>
			<point x="257" y="-185.4474731259" type="curve" smooth="yes"/>
			<point x="383.2517482517" y="-185.4474731259"/>
			<point x="563" y="-122.4474731259"/>
			<point x="563" y="46.5525268741" type="curve" smooth="yes"/>
			<point x="563" y="113.5525268741"/>
			<point x="515" y="186.5525268741"/>
			<point x="372" y="202.5525268741" type="curve"/>
			<point x="381" y="147.5525268741" type="line"/>
			<point x="555" y="210.5525268741"/>
			<point x="589" y="287.5525268741"/>
			<point x="589" y="349.5525268741" type="curve" smooth="yes"/>
			<point x="589" y="492.5525268741"/>
			<point x="425.3165266106" y="536.5525268741"/>
			<point x="212" y="536.5525268741" type="curve" smooth="yes"/>
			<point x="75.1213872832" y="536.5525268741"/>
			<point x="27" y="492.5525268741"/>
			<point x="27" y="413.5525268741" type="curve" smooth="yes"/>
			<point x="27" y="374.5525268741"/>
			<point x="49" y="348.5525268741"/>
			<point x="91" y="348.5525268741" type="curve" smooth="yes"/>
			<point x="111" y="348.5525268741"/>
			<point x="160" y="352.5525268741"/>
			<point x="206" y="352.5525268741" type="curve" smooth="yes"/>
			<point x="395.6885245902" y="352.5525268741"/>
			<point x="409" y="346.5525268741"/>
			<point x="409" y="325.5525268741" type="curve" smooth="yes"/>
			<point x="409" y="289.5525268741"/>
			<point x="211.9512576" y="232.681457617"/>
			<point x="159" y="217.5525268741" type="curve" smooth="yes"/>
			<point x="138" y="211.5525268741"/>
			<point x="120" y="183.5525268741"/>
			<point x="120" y="160.5525268741" type="curve" smooth="yes"/>
			<point x="120" y="111.5525268741"/>
			<point x="146" y="76.5525268741"/>
			<point x="183" y="77.5525268741" type="curve" smooth="yes"/>
			<point x="325.571956748" y="80.8681537752"/>
			<point x="393" y="68.5525268741"/>
			<point x="393" y="28.5525268741" type="curve" smooth="yes"/>
			<point x="393" y="17.5525268741"/>
			<point x="303.9813084112" y="-14.4474731259"/>
			<point x="266" y="-14.4474731259" type="curve" smooth="yes"/>
		</contour>
	</outline>
</glyph>
<glyph name="D.alt2" format="2">
	<advance width="717"/>
	<outline>
		<contour>
			<point x="227" y="154.194459751" type="curve" smooth="yes"/>
			<point x="442" y="154.194459751"/>
			<point x="678" y="398.194459751"/>
			<point x="678" y="626.194459751" type="curve" smooth="yes"/>
			<point x="678" y="767.194459751"/>
			<point x="570" y="873.194459751"/>
			<point x="385" y="873.194459751" type="curve" smooth="yes"/>
			<point x="250" y="873.194459751"/>
			<point x="52" y="817.194459751"/>
			<point x="16" y="781.194459751" type="curve" smooth="yes"/>
			<point x="3" y="768.194459751"/>
			<point x="1" y="759.194459751"/>
			<point x="1" y="742.194459751" type="curve" smooth="yes"/>
			<point x="1" y="684.194459751"/>
			<point x="65" y="637.194459751"/>
			<point x="136" y="637.194459751" type="curve" smooth="yes"/>
			<point x="198" y="637.194459751"/>
			<point x="254" y="696.194459751"/>
			<point x="389" y="696.194459751" type="curve" smooth="yes"/>
			<point x="481" y="696.194459751"/>
			<point x="502" y="670.194459751"/>
			<point x="502" y="618.194459751" type="curve" smooth="yes"/>
			<point x="502" y="452.194459751"/>
			<point x="366" y="374.194459751"/>
			<point x="172" y="309.194459751" type="curve"/>
			<point x="272" y="273.194459751" type="line"/>
			<point x="268" y="314.194459751"/>
			<point x="264" y="347.194459751"/>
			<point x="264" y="370.194459751" type="curve" smooth="yes"/>
			<point x="264" y="429.194459751"/>
			<point x="274" y="584.194459751"/>
			<point x="274" y="683.194459751" type="curve" smooth="yes"/>
			<point x="274" y="723.194459751"/>
			<point x="236" y="755.194459751"/>
			<point x="188" y="755.194459751" type="curve" smooth="yes"/>
			<point x="127" y="755.194459751"/>
			<point x="103" y="738.194459751"/>
			<point x="100" y="696.194459751" type="curve" smooth="yes"/>
			<point x="91" y="574.194459751"/>
			<point x="86" y="466.194459751"/>
			<point x="86" y="338.194459751" type="curve" smooth="yes"/>
			<point x="86" y="247.194459751"/>
			<point x="145" y="154.194459751"/>
		</contour>
	</outline>
</glyph>
<glyph name="E.alt1" format="2">
	<advance width="704"/>
	<outline>
		<contour>
			<point x="96" y="390.9577763863" type="curve" smooth="yes"/>
			<point x="74" y="304.9577763863"/>
			<point x="69" y="220.9577763863"/>
			<point x="69" y="160.9577763863" type="curve" smooth="yes"/>
			<point x="69" y="-2.0422236137"/>
			<point x="163" y="-139.0422236137"/>
			<point x="362" y="-139.0422236137" type="curve" smooth="yes"/>
			<point x="558" y="-139.0422236137"/>
			<point x="664" y="-87.0422236137"/>
			<point x="664" y="6.9577763863" type="curve" smooth="yes"/>
			<point x="664" y="44.9577763863"/>
			<point x="651" y="68.9577763863"/>
			<point x="601" y="68.9577763863" type="curve" smooth="yes"/>
			<point x="559" y="68.9577763863"/>
			<point x="484" y="35.9577763863"/>
			<point x="362" y="35.9577763863" type="curve" smooth="yes"/>
			<point x="288" y="35.9577763863"/>
			<point x="245" y="89.9577763863"/>
			<point x="245" y="158.9577763863" type="curve" smooth="yes"/>
			<point x="245" y="269.9577763863"/>
			<point x="269" y="367.9577763863"/>
			<point x="269" y="409.9577763863" type="curve" smooth="yes"/>
			<point x="269" y="450.9577763863"/>
			<point x="225" y="473.9577763863"/>
			<point x="200" y="473.9577763863" type="curve" smooth="yes"/>
			<point x="149" y="473.9577763863"/>
			<point x="110" y="444.9577763863"/>
		</contour>
		<contour>
			<point x="202" y="102.9577763863" type="curve" smooth="yes"/>
			<point x="271" y="118.9577763863"/>
			<point x="344" y="131.9577763863"/>
			<point x="478" y="139.9577763863" type="curve" smooth="yes"/>
			<point x="534" y="143.9577763863"/>
			<point x="575" y="179.9577763863"/>
			<point x="575" y="245.9577763863" type="curve" smooth="yes"/>
			<point x="575" y="299.9577763863"/>
			<point x="559" y="311.9577763863"/>
			<point x="489" y="311.9577763863" type="curve" smooth="yes"/>
			<point x="349" y="306.9577763863"/>
			<point x="273" y="292.9577763863"/>
			<point x="208" y="277.9577763863" type="curve" smooth="yes"/>
			<point x="171" y="268.9577763863"/>
			<point x="143" y="231.9577763863"/>
			<point x="143" y="189.9577763863" type="curve" smooth="yes"/>
			<point x="143" y="136.9577763863"/>
			<point x="155" y="92.9577763863"/>
		</contour>
		<contour>
			<point x="181" y="369.9577763863" type="curve" smooth="yes"/>
			<point x="241" y="369.9577763863"/>
			<point x="429" y="412.9577763863"/>
			<point x="626" y="412.9577763863" type="curve" smooth="yes"/>
			<point x="657" y="412.9577763863"/>
			<point x="667" y="435.9577763863"/>
			<point x="667" y="464.9577763863" type="curve" smooth="yes"/>
			<point x="667" y="528.9577763863"/>
			<point x="601" y="579.9577763863"/>
			<point x="490" y="579.9577763863" type="curve" smooth="yes"/>
			<point x="404" y="579.9577763863"/>
			<point x="232" y="565.9577763863"/>
			<point x="91" y="519.9577763863" type="curve" smooth="yes"/>
			<point x="57" y="508.9577763863"/>
			<point x="50" y="489.9577763863"/>
			<point x="50" y="464.9577763863" type="curve" smooth="yes"/>
			<point x="50" y="413.9577763863"/>
			<point x="95" y="369.9577763863"/>
		</contour>
	</outline>
</glyph>
<glyph name="F.alt2" format="2">
	<advance width="604"/>
	<outline>
		<contour>
			<point x="262" y="359.7869885971" type="curve" smooth="yes"/>
			<point x="262" y="517.7869885971"/>
			<point x="274" y="603.7869885971"/>
			<point x="274" y="636.7869885971" type="curve" smooth="yes"/>
			<point x="274" y="667.7869885971"/>
			<point x="256" y="667.7869885971"/>
			<point x="205" y="667.7869885971" type="curve" smooth="yes"/>
			<point x="151" y="667.7869885971"/>
			<point x="118" y="644.7869885971"/>
			<point x="104" y="573.7869885971" type="curve" smooth="yes"/>
			<point x="92" y="514.7869885971"/>
			<point x="88" y="470.7869885971"/>
			<point x="88" y="383.7869885971" type="curve" smooth="yes"/>
			<point x="88" y="264.7869885971"/>
			<point x="108" y="178.7869885971"/>
			<point x="143" y="138.7869885971" type="curve" smooth="yes"/>
			<point x="182" y="91.7869885971"/>
			<point x="240" y="79.7869885971"/>
			<point x="278" y="79.7869885971" type="curve" smooth="yes"/>
			<point x="321" y="79.7869885971"/>
			<point x="334" y="93.7869885971"/>
			<point x="334" y="125.7869885971" type="curve" smooth="yes"/>
			<point x="334" y="160.7869885971"/>
			<point x="262" y="201.7869885971"/>
		</contour>
		<contour>
			<point x="525" y="625.7869885971" type="curve" smooth="yes"/>
			<point x="558" y="625.7869885971"/>
			<point x="569" y="641.7869885971"/>
			<point x="569" y="680.7869885971" type="curve" smooth="yes"/>
			<point x="569" y="750.7869885971"/>
			<point x="502" y="796.7869885971"/>
			<point x="428" y="800.7869885971" type="curve" smooth="yes"/>
			<point x="309" y="806.7869885971"/>
			<point x="163" y="766.7869885971"/>
			<point x="66" y="740.7869885971" type="curve" smooth="yes"/>
			<point x="29" y="731.7869885971"/>
			<point x="16" y="705.7869885971"/>
			<point x="16" y="683.7869885971" type="curve" smooth="yes"/>
			<point x="16" y="637.7869885971"/>
			<point x="60" y="579.7869885971"/>
			<point x="157" y="579.7869885971" type="curve" smooth="yes"/>
			<point x="201" y="579.7869885971"/>
			<point x="312" y="625.7869885971"/>
		</contour>
		<contour>
			<point x="210" y="270.7869885971" type="curve" smooth="yes"/>
			<point x="262" y="284.7869885971"/>
			<point x="375" y="303.7869885971"/>
			<point x="448" y="307.7869885971" type="curve" smooth="yes"/>
			<point x="495" y="310.7869885971"/>
			<point x="563" y="347.7869885971"/>
			<point x="563" y="424.7869885971" type="curve" smooth="yes"/>
			<point x="563" y="462.7869885971"/>
			<point x="549" y="476.7869885971"/>
			<point x="487" y="476.7869885971" type="curve" smooth="yes"/>
			<point x="378" y="471.7869885971"/>
			<point x="272" y="461.7869885971"/>
			<point x="196" y="443.7869885971" type="curve" smooth="yes"/>
			<point x="158" y="433.7869885971"/>
			<point x="117" y="382.7869885971"/>
			<point x="117" y="339.7869885971" type="curve" smooth="yes"/>
			<point x="117" y="293.7869885971"/>
			<point x="147" y="254.7869885971"/>
		</contour>
	</outline>
</glyph>
<glyph name="G.alt2" format="2">
	<advance width="839"/>
	<outline>
		<contour>
			<point x="435" y="419.3387523234" type="curve" smooth="yes"/>
			<point x="490" y="419.3387523234"/>
			<point x="552" y="446.3387523234"/>
			<point x="716" y="446.3387523234" type="curve" smooth="yes"/>
			<point x="782" y="446.3387523234"/>
			<point x="810" y="493.3387523234"/>
			<point x="810" y="544.3387523234" type="curve" smooth="yes"/>
			<point x="810" y="589.3387523234"/>
			<point x="791" y="612.3387523234"/>
			<point x="694" y="612.3387523234" type="curve" smooth="yes"/>
			<point x="577" y="610.3387523234"/>
			<point x="487" y="595.3387523234"/>
			<point x="407" y="571.3387523234" type="curve" smooth="yes"/>
			<point x="357" y="557.3387523234"/>
			<point x="344" y="541.3387523234"/>
			<point x="344" y="506.3387523234" type="curve" smooth="yes"/>
			<point x="344" y="456.3387523234"/>
			<point x="386" y="419.3387523234"/>
		</contour>
		<contour>
			<point x="724" y="64.3387523234" type="curve" smooth="yes"/>
			<point x="749" y="64.3387523234"/>
			<point x="788" y="82.3387523234"/>
			<point x="788" y="122.3387523234" type="curve" smooth="yes"/>
			<point x="788" y="145.3387523234"/>
			<point x="784" y="154.3387523234"/>
			<point x="762" y="201.3387523234" type="curve" smooth="yes"/>
			<point x="729" y="268.3387523234"/>
			<point x="719" y="320.3387523234"/>
			<point x="719" y="462.3387523234" type="curve" smooth="yes"/>
			<point x="719" y="499.3387523234"/>
			<point x="689" y="521.3387523234"/>
			<point x="635" y="521.3387523234" type="curve" smooth="yes"/>
			<point x="590" y="521.3387523234"/>
			<point x="576" y="508.3387523234"/>
			<point x="551" y="469.3387523234" type="curve" smooth="yes"/>
			<point x="487" y="369.3387523234"/>
			<point x="390" y="340.3387523234"/>
			<point x="314" y="340.3387523234" type="curve" smooth="yes"/>
			<point x="261" y="340.3387523234"/>
			<point x="234" y="368.3387523234"/>
			<point x="234" y="427.3387523234" type="curve" smooth="yes"/>
			<point x="234" y="537.3387523234"/>
			<point x="345" y="687.3387523234"/>
			<point x="463" y="687.3387523234" type="curve" smooth="yes"/>
			<point x="482" y="687.3387523234"/>
			<point x="488" y="678.3387523234"/>
			<point x="488" y="666.3387523234" type="curve" smooth="yes"/>
			<point x="488" y="651.3387523234"/>
			<point x="495" y="638.3387523234"/>
			<point x="523" y="638.3387523234" type="curve" smooth="yes"/>
			<point x="595" y="638.3387523234"/>
			<point x="643" y="706.6464446311"/>
			<point x="643" y="786.3387523234" type="curve" smooth="yes"/>
			<point x="643" y="840.3387523234"/>
			<point x="606" y="881.3387523234"/>
			<point x="515" y="881.3387523234" type="curve" smooth="yes"/>
			<point x="278" y="881.3387523234"/>
			<point x="45" y="652.3387523234"/>
			<point x="45" y="410.3387523234" type="curve" smooth="yes"/>
			<point x="45" y="261.3387523234"/>
			<point x="138" y="163.3387523234"/>
			<point x="297" y="163.3387523234" type="curve" smooth="yes"/>
			<point x="408" y="163.3387523234"/>
			<point x="529" y="206.3387523234"/>
			<point x="581" y="293.3387523234" type="curve"/>
			<point x="555" y="297.3387523234" type="line"/>
			<point x="570" y="204.3387523234"/>
			<point x="583" y="162.3387523234"/>
			<point x="606" y="122.3387523234" type="curve" smooth="yes"/>
			<point x="632" y="81.3387523234"/>
			<point x="669" y="64.3387523234"/>
		</contour>
	</outline>
</glyph>
<glyph name="H.alt1" format="2">
	<advance width="730"/>
	<outline>
		<contour>
			<point x="201" y="-175.9680737889" type="curve" smooth="yes"/>
			<point x="243" y="-175.9680737889"/>
			<point x="276" y="-144.9680737889"/>
			<point x="276" y="-107.9680737889" type="curve" smooth="yes"/>
			<point x="276" y="33.0319262111"/>
			<point x="261" y="238.0319262111"/>
			<point x="261" y="446.0319262111" type="curve" smooth="yes"/>
			<point x="261" y="513.0319262111"/>
			<point x="203" y="545.0319262111"/>
			<point x="146" y="545.0319262111" type="curve" smooth="yes"/>
			<point x="87" y="545.0319262111"/>
			<point x="62" y="526.0319262111"/>
			<point x="62" y="470.0319262111" type="curve" smooth="yes"/>
			<point x="62" y="414.0319262111"/>
			<point x="99" y="101.0319262111"/>
			<point x="91" y="-44.9680737889" type="curve" smooth="yes"/>
			<point x="87" y="-103.9680737889"/>
			<point x="149" y="-175.9680737889"/>
		</contour>
		<contour>
			<point x="602" y="-173.9680737889" type="curve" smooth="yes"/>
			<point x="643" y="-173.9680737889"/>
			<point x="661" y="-144.9680737889"/>
			<point x="661" y="-118.9680737889" type="curve" smooth="yes"/>
			<point x="661" y="-36.9680737889"/>
			<point x="643" y="12.0319262111"/>
			<point x="642" y="69.0319262111" type="curve" smooth="yes"/>
			<point x="641" y="152.0319262111"/>
			<point x="648" y="284.0319262111"/>
			<point x="648" y="390.0319262111" type="curve" smooth="yes"/>
			<point x="648" y="491.0319262111"/>
			<point x="603" y="540.0319262111"/>
			<point x="541" y="540.0319262111" type="curve" smooth="yes"/>
			<point x="507" y="540.0319262111"/>
			<point x="475" y="523.0319262111"/>
			<point x="475" y="484.0319262111" type="curve" smooth="yes"/>
			<point x="475" y="397.0319262111"/>
			<point x="460" y="266.0319262111"/>
			<point x="460" y="127.0319262111" type="curve" smooth="yes"/>
			<point x="460" y="-60.9680737889"/>
			<point x="506" y="-173.9680737889"/>
		</contour>
		<contour>
			<point x="206" y="112.0319262111" type="curve" smooth="yes"/>
			<point x="267" y="112.0319262111"/>
			<point x="366" y="142.0319262111"/>
			<point x="638" y="142.0319262111" type="curve" smooth="yes"/>
			<point x="669" y="142.0319262111"/>
			<point x="687" y="163.0319262111"/>
			<point x="687" y="196.0319262111" type="curve" smooth="yes"/>
			<point x="687" y="237.0319262111"/>
			<point x="644" y="305.0319262111"/>
			<point x="525" y="305.0319262111" type="curve" smooth="yes"/>
			<point x="375" y="305.0319262111"/>
			<point x="220" y="303.0319262111"/>
			<point x="77" y="259.0319262111" type="curve" smooth="yes"/>
			<point x="49" y="251.0319262111"/>
			<point x="43" y="237.0319262111"/>
			<point x="43" y="215.0319262111" type="curve" smooth="yes"/>
			<point x="43" y="165.0319262111"/>
			<point x="101" y="112.0319262111"/>
		</contour>
	</outline>
</glyph>
<glyph name="H.alt2" format="2">
	<advance width="730"/>
	<outline>
		<contour>
			<point x="201" y="40.0005187527" type="curve" smooth="yes"/>
			<point x="243" y="40.0005187527"/>
			<point x="276" y="71.0005187527"/>
			<point x="276" y="108.0005187527" type="curve" smooth="yes"/>
			<point x="276" y="249.0005187527"/>
			<point x="261" y="454.0005187527"/>
			<point x="261" y="662.0005187527" type="curve" smooth="yes"/>
			<point x="261" y="729.0005187527"/>
			<point x="203" y="761.0005187527"/>
			<point x="146" y="761.0005187527" type="curve" smooth="yes"/>
			<point x="87" y="761.0005187527"/>
			<point x="62" y="742.0005187527"/>
			<point x="62" y="686.0005187527" type="curve" smooth="yes"/>
			<point x="62" y="630.0005187527"/>
			<point x="99" y="317.0005187527"/>
			<point x="91" y="171.0005187527" type="curve" smooth="yes"/>
			<point x="87" y="112.0005187527"/>
			<point x="149" y="40.0005187527"/>
		</contour>
		<contour>
			<point x="602" y="42.0005187527" type="curve" smooth="yes"/>
			<point x="643" y="42.0005187527"/>
			<point x="661" y="71.0005187527"/>
			<point x="661" y="97.0005187527" type="curve" smooth="yes"/>
			<point x="661" y="179.0005187527"/>
			<point x="643" y="228.0005187527"/>
			<point x="642" y="285.0005187527" type="curve" smooth="yes"/>
			<point x="641" y="368.0005187527"/>
			<point x="648" y="500.0005187527"/>
			<point x="648" y="606.0005187527" type="curve" smooth="yes"/>
			<point x="648" y="707.0005187527"/>
			<point x="603" y="756.0005187527"/>
			<point x="541" y="756.0005187527" type="curve" smooth="yes"/>
			<point x="507" y="756.0005187527"/>
			<point x="475" y="739.0005187527"/>
			<point x="475" y="700.0005187527" type="curve" smooth="yes"/>
			<point x="475" y="613.0005187527"/>
			<point x="460" y="482.0005187527"/>
			<point x="460" y="343.0005187527" type="curve" smooth="yes"/>
			<point x="460" y="155.0005187527"/>
			<point x="506" y="42.0005187527"/>
		</contour>
		<contour>
			<point x="206" y="328.0005187527" type="curve" smooth="yes"/>
			<point x="267" y="328.0005187527"/>
			<point x="366" y="358.0005187527"/>
			<point x="638" y="358.0005187527" type="curve" smooth="yes"/>
			<point x="669" y="358.0005187527"/>
			<point x="687" y="379.0005187527"/>
			<point x="687" y="412.0005187527" type="curve" smooth="yes"/>
			<point x="687" y="453.0005187527"/>
			<point x="644" y="521.0005187527"/>
			<point x="525" y="521.0005187527" type="curve" smooth="yes"/>
			<point x="375" y="521.0005187527"/>
			<point x="220" y="519.0005187527"/>
			<point x="77" y="475.0005187527" type="curve" smooth="yes"/>
			<point x="49" y="467.0005187527"/>
			<point x="43" y="453.0005187527"/>
			<point x="43" y="431.0005187527" type="curve" smooth="yes"/>
			<point x="43" y="381.0005187527"/>
			<point x="101" y="328.0005187527"/>
		</contour>
	</outline>
</glyph>
<glyph name="I.alt2" format="2">
	<advance width="610"/>
	<outline>
		<contour>
			<point x="196" y="95.3504544984" type="curve" smooth="yes"/>
			<point x="237" y="95.3504544984"/>
			<point x="330" y="106.3504544984"/>
			<point x="443" y="106.3504544984" type="curve" smooth="yes"/>
			<point x="549" y="106.3504544984"/>
			<point x="594" y="150.3504544984"/>
			<point x="594" y="204.3504544984" type="curve" smooth="yes"/>
			<point x="594" y="241.3504544984"/>
			<point x="571" y="270.3504544984"/>
			<point x="468" y="270.3504544984" type="curve" smooth="yes"/>
			<point x="315" y="270.3504544984"/>
			<point x="279" y="289.3504544984"/>
			<point x="88" y="257.3504544984" type="curve" smooth="yes"/>
			<point x="52" y="251.3504544984"/>
			<point x="33" y="224.3504544984"/>
			<point x="33" y="194.3504544984" type="curve" smooth="yes"/>
			<point x="33" y="137.3504544984"/>
			<point x="80" y="95.3504544984"/>
		</contour>
		<contour>
			<point x="135" y="619.3504544984" type="curve" smooth="yes"/>
			<point x="192" y="619.3504544984"/>
			<point x="272" y="637.3504544984"/>
			<point x="442" y="637.3504544984" type="curve" smooth="yes"/>
			<point x="514" y="637.3504544984"/>
			<point x="579" y="679.3504544984"/>
			<point x="579" y="741.3504544984" type="curve" smooth="yes"/>
			<point x="579" y="802.3504544984"/>
			<point x="551" y="816.3504544984"/>
			<point x="459" y="816.3504544984" type="curve" smooth="yes"/>
			<point x="373" y="816.3504544984"/>
			<point x="252" y="807.3504544984"/>
			<point x="117" y="788.3504544984" type="curve" smooth="yes"/>
			<point x="66" y="781.3504544984"/>
			<point x="29" y="753.3504544984"/>
			<point x="29" y="708.3504544984" type="curve" smooth="yes"/>
			<point x="29" y="660.3504544984"/>
			<point x="56" y="619.3504544984"/>
		</contour>
		<contour>
			<point x="320" y="226.3504544984" type="curve" smooth="yes"/>
			<point x="361" y="226.3504544984"/>
			<point x="384" y="249.3504544984"/>
			<point x="384" y="295.3504544984" type="curve" smooth="yes"/>
			<point x="384" y="433.3504544984"/>
			<point x="401" y="543.3504544984"/>
			<point x="401" y="601.3504544984" type="curve" smooth="yes"/>
			<point x="401" y="651.3504544984"/>
			<point x="352" y="691.3504544984"/>
			<point x="293" y="691.3504544984" type="curve" smooth="yes"/>
			<point x="242" y="691.3504544984"/>
			<point x="226" y="664.3504544984"/>
			<point x="226" y="610.3504544984" type="curve" smooth="yes"/>
			<point x="226" y="528.3504544984"/>
			<point x="211" y="416.3504544984"/>
			<point x="211" y="303.3504544984" type="curve" smooth="yes"/>
			<point x="211" y="256.3504544984"/>
			<point x="254" y="226.3504544984"/>
		</contour>
	</outline>
</glyph>
<glyph name="J.alt1" format="2">
	<advance width="655"/>
	<outline>
		<contour>
			<point x="298" y="-138.1715312265" type="curve" smooth="yes"/>
			<point x="488" y="-138.1715312265"/>
			<point x="589" y="-58.1715312265"/>
			<point x="589" y="119.8284687735" type="curve" smooth="yes"/>
			<point x="589" y="209.8284687735"/>
			<point x="550" y="375.8284687735"/>
			<point x="517" y="464.8284687735" type="curve" smooth="yes"/>
			<point x="493" y="529.8284687735"/>
			<point x="452" y="547.8284687735"/>
			<point x="377" y="549.8284687735" type="curve" smooth="yes"/>
			<point x="343" y="549.8284687735"/>
			<point x="315" y="517.8284687735"/>
			<point x="329" y="480.8284687735" type="curve" smooth="yes"/>
			<point x="368" y="387.8284687735"/>
			<point x="411" y="229.8284687735"/>
			<point x="411" y="145.8284687735" type="curve" smooth="yes"/>
			<point x="411" y="68.8284687735"/>
			<point x="383" y="34.8284687735"/>
			<point x="298" y="34.8284687735" type="curve" smooth="yes"/>
			<point x="224" y="34.8284687735"/>
			<point x="204" y="56.8284687735"/>
			<point x="204" y="77.8284687735" type="curve" smooth="yes"/>
			<point x="204" y="107.8284687735"/>
			<point x="230" y="131.8284687735"/>
			<point x="230" y="162.8284687735" type="curve" smooth="yes"/>
			<point x="230" y="189.8284687735"/>
			<point x="213" y="203.8284687735"/>
			<point x="180" y="203.8284687735" type="curve" smooth="yes"/>
			<point x="75" y="203.8284687735"/>
			<point x="35" y="105.8284687735"/>
			<point x="35" y="44.8284687735" type="curve" smooth="yes"/>
			<point x="35" y="-69.1715312265"/>
			<point x="142" y="-138.1715312265"/>
		</contour>
		<contour>
			<point x="222" y="399.8284687735" type="curve" smooth="yes"/>
			<point x="302" y="399.8284687735"/>
			<point x="429" y="417.8284687735"/>
			<point x="560" y="417.8284687735" type="curve" smooth="yes"/>
			<point x="606" y="417.8284687735"/>
			<point x="630" y="438.8284687735"/>
			<point x="630" y="477.8284687735" type="curve" smooth="yes"/>
			<point x="630" y="566.8284687735"/>
			<point x="542" y="585.8284687735"/>
			<point x="464" y="585.8284687735" type="curve" smooth="yes"/>
			<point x="364" y="585.8284687735"/>
			<point x="313" y="573.8284687735"/>
			<point x="241" y="573.8284687735" type="curve" smooth="yes"/>
			<point x="200" y="573.8284687735"/>
			<point x="160" y="586.8284687735"/>
			<point x="111" y="586.8284687735" type="curve" smooth="yes"/>
			<point x="79" y="586.8284687735"/>
			<point x="61" y="564.8284687735"/>
			<point x="61" y="530.8284687735" type="curve" smooth="yes"/>
			<point x="61" y="434.8284687735"/>
			<point x="156" y="399.8284687735"/>
		</contour>
	</outline>
</glyph>
<glyph name="J.alt2" format="2">
	<advance width="655"/>
	<outline>
		<contour>
			<point x="298" y="140.6821185419" type="curve" smooth="yes"/>
			<point x="488" y="140.6821185419"/>
			<point x="589" y="220.6821185419"/>
			<point x="589" y="398.6821185419" type="curve" smooth="yes"/>
			<point x="589" y="488.6821185419"/>
			<point x="550" y="654.6821185419"/>
			<point x="517" y="743.6821185419" type="curve" smooth="yes"/>
			<point x="493" y="808.6821185419"/>
			<point x="452" y="826.6821185419"/>
			<point x="377" y="828.6821185419" type="curve" smooth="yes"/>
			<point x="343" y="828.6821185419"/>
			<point x="315" y="796.6821185419"/>
			<point x="329" y="759.6821185419" type="curve" smooth="yes"/>
			<point x="368" y="666.6821185419"/>
			<point x="411" y="508.6821185419"/>
			<point x="411" y="424.6821185419" type="curve" smooth="yes"/>
			<point x="411" y="347.6821185419"/>
			<point x="383" y="313.6821185419"/>
			<point x="298" y="313.6821185419" type="curve" smooth="yes"/>
			<point x="224" y="313.6821185419"/>
			<point x="204" y="335.6821185419"/>
			<point x="204" y="356.6821185419" type="curve" smooth="yes"/>
			<point x="204" y="386.6821185419"/>
			<point x="230" y="410.6821185419"/>
			<point x="230" y="441.6821185419" type="curve" smooth="yes"/>
			<point x="230" y="468.6821185419"/>
			<point x="213" y="482.6821185419"/>
			<point x="180" y="482.6821185419" type="curve" smooth="yes"/>
			<point x="75" y="482.6821185419"/>
			<point x="35" y="384.6821185419"/>
			<point x="35" y="323.6821185419" type="curve" smooth="yes"/>
			<point x="35" y="209.6821185419"/>
			<point x="142" y="140.6821185419"/>
		</contour>
		<contour>
			<point x="222" y="678.6821185419" type="curve" smooth="yes"/>
			<point x="302" y="678.6821185419"/>
			<point x="429" y="696.6821185419"/>
			<point x="560" y="696.6821185419" type="curve" smooth="yes"/>
			<point x="606" y="696.6821185419"/>
			<point x="630" y="717.6821185419"/>
			<point x="630" y="756.6821185419" type="curve" smooth="yes"/>
			<point x="630" y="845.6821185419"/>
			<point x="542" y="864.6821185419"/>
			<point x="464" y="864.6821185419" type="curve" smooth="yes"/>
			<point x="364" y="864.6821185419"/>
			<point x="313" y="852.6821185419"/>
			<point x="241" y="852.6821185419" type="curve" smooth="yes"/>
			<point x="200" y="852.6821185419"/>
			<point x="160" y="865.6821185419"/>
			<point x="111" y="865.6821185419" type="curve" smooth="yes"/>
			<point x="79" y="865.6821185419"/>
			<point x="61" y="843.6821185419"/>
			<point x="61" y="809.6821185419" type="curve" smooth="yes"/>
			<point x="61" y="713.6821185419"/>
			<point x="156" y="678.6821185419"/>
		</contour>
	</outline>
</glyph>
<glyph name="K.alt1" format="2">
	<advance width="699"/>
	<outline>
		<contour>
			<point x="189" y="-127.3786278369" type="curve" smooth="yes"/>
			<point x="221" y="-127.3786278369"/>
			<point x="241" y="-108.3786278369"/>
			<point x="241" y="-77.3786278369" type="curve" smooth="yes"/>
			<point x="241" y="-29.3786278369"/>
			<point x="229" y="6.6213721631"/>
			<point x="229" y="76.6213721631" type="curve" smooth="yes"/>
			<point x="229" y="215.6213721631"/>
			<point x="252" y="350.6213721631"/>
			<point x="252" y="435.6213721631" type="curve" smooth="yes"/>
			<point x="252" y="500.6213721631"/>
			<point x="237" y="593.6213721631"/>
			<point x="126" y="593.6213721631" type="curve" smooth="yes"/>
			<point x="82" y="593.6213721631"/>
			<point x="67" y="572.6213721631"/>
			<point x="67" y="539.6213721631" type="curve" smooth="yes"/>
			<point x="67" y="511.6213721631"/>
			<point x="77" y="490.6213721631"/>
			<point x="77" y="433.6213721631" type="curve" smooth="yes"/>
			<point x="77" y="365.6213721631"/>
			<point x="55" y="228.6213721631"/>
			<point x="55" y="70.6213721631" type="curve" smooth="yes"/>
			<point x="55" y="-75.3786278369"/>
			<point x="85" y="-127.3786278369"/>
		</contour>
		<contour>
			<point x="613" y="-127.3786278369" type="curve" smooth="yes"/>
			<point x="671.21875" y="-127.3786278369"/>
			<point x="694" y="-95.6433337193"/>
			<point x="694" y="-44.3786278369" type="curve" smooth="yes"/>
			<point x="694" y="3.2678368096"/>
			<point x="672" y="34.6213721631"/>
			<point x="615" y="48.6213721631" type="curve" smooth="yes"/>
			<point x="451" y="90.6213721631"/>
			<point x="369" y="168.6462168836"/>
			<point x="369" y="200.6213721631" type="curve" smooth="yes"/>
			<point x="369" y="247.6213721631"/>
			<point x="461" y="354.6213721631"/>
			<point x="548" y="406.6213721631" type="curve" smooth="yes"/>
			<point x="603" y="438.6213721631"/>
			<point x="614" y="461.6213721631"/>
			<point x="614" y="511.6213721631" type="curve" smooth="yes"/>
			<point x="614" y="568.6213721631"/>
			<point x="577" y="596.6213721631"/>
			<point x="530" y="596.6213721631" type="curve" smooth="yes"/>
			<point x="508" y="596.6213721631"/>
			<point x="480" y="586.6213721631"/>
			<point x="450" y="565.6213721631" type="curve" smooth="yes"/>
			<point x="323" y="471.6213721631"/>
			<point x="209" y="307.6213721631"/>
			<point x="209" y="175.6213721631" type="curve" smooth="yes"/>
			<point x="209" y="-14.3786278369"/>
			<point x="500" y="-127.3786278369"/>
		</contour>
	</outline>
</glyph>
<glyph name="K.alt2" format="2">
	<advance width="699"/>
	<outline>
		<contour>
			<point x="189" y="179.247023873" type="curve" smooth="yes"/>
			<point x="221" y="179.247023873"/>
			<point x="241" y="198.247023873"/>
			<point x="241" y="229.247023873" type="curve" smooth="yes"/>
			<point x="241" y="277.247023873"/>
			<point x="229" y="313.247023873"/>
			<point x="229" y="383.247023873" type="curve" smooth="yes"/>
			<point x="229" y="522.247023873"/>
			<point x="252" y="657.247023873"/>
			<point x="252" y="742.247023873" type="curve" smooth="yes"/>
			<point x="252" y="807.247023873"/>
			<point x="237" y="900.247023873"/>
			<point x="126" y="900.247023873" type="curve" smooth="yes"/>
			<point x="82" y="900.247023873"/>
			<point x="67" y="879.247023873"/>
			<point x="67" y="846.247023873" type="curve" smooth="yes"/>
			<point x="67" y="818.247023873"/>
			<point x="77" y="797.247023873"/>
			<point x="77" y="740.247023873" type="curve" smooth="yes"/>
			<point x="77" y="672.247023873"/>
			<point x="55" y="535.247023873"/>
			<point x="55" y="377.247023873" type="curve" smooth="yes"/>
			<point x="55" y="231.247023873"/>
			<point x="85" y="179.247023873"/>
		</contour>
		<contour>
			<point x="613" y="179.247023873" type="curve" smooth="yes"/>
			<point x="671.21875" y="179.247023873"/>
			<point x="694" y="210.9823179906"/>
			<point x="694" y="262.247023873" type="curve" smooth="yes"/>
			<point x="694" y="309.8934885195"/>
			<point x="672" y="341.247023873"/>
			<point x="615" y="355.247023873" type="curve" smooth="yes"/>
			<point x="451" y="397.247023873"/>
			<point x="369" y="475.2718685935"/>
			<point x="369" y="507.247023873" type="curve" smooth="yes"/>
			<point x="369" y="554.247023873"/>
			<point x="461" y="661.247023873"/>
			<point x="548" y="713.247023873" type="curve" smooth="yes"/>
			<point x="603" y="745.247023873"/>
			<point x="614" y="768.247023873"/>
			<point x="614" y="818.247023873" type="curve" smooth="yes"/>
			<point x="614" y="875.247023873"/>
			<point x="577" y="903.247023873"/>
			<point x="530" y="903.247023873" type="curve" smooth="yes"/>
			<point x="508" y="903.247023873"/>
			<point x="480" y="893.247023873"/>
			<point x="450" y="872.247023873" type="curve" smooth="yes"/>
			<point x="323" y="778.247023873"/>
			<point x="209" y="614.247023873"/>
			<point x="209" y="482.247023873" type="curve" smooth="yes"/>
			<point x="209" y="292.247023873"/>
			<point x="500" y="179.247023873"/>
		</contour>
	</outline>
</glyph>
<glyph name="L.alt1" format="2">
	<advance width="526"/>
	<outline>
		<contour>
			<point x="290" y="-199.884828606" type="curve" smooth="yes"/>
			<point x="353" y="-199.884828606"/>
			<point x="428" y="-184.884828606"/>
			<point x="471" y="-148.884828606" type="curve" smooth="yes"/>
			<point x="506" y="-118.884828606"/>
			<point x="519" y="-79.884828606"/>
			<point x="519" y="-37.884828606" type="curve" smooth="yes"/>
			<point x="519" y="-2.884828606"/>
			<point x="497" y="31.115171394"/>
			<point x="465" y="31.115171394" type="curve" smooth="yes"/>
			<point x="427" y="31.115171394"/>
			<point x="396" y="-26.884828606"/>
			<point x="297" y="-26.884828606" type="curve" smooth="yes"/>
			<point x="235" y="-26.884828606"/>
			<point x="212" y="-5.884828606"/>
			<point x="212" y="43.115171394" type="curve" smooth="yes"/>
			<point x="212" y="102.115171394"/>
			<point x="264" y="250.115171394"/>
			<point x="264" y="379.115171394" type="curve" smooth="yes"/>
			<point x="264" y="439.115171394"/>
			<point x="230" y="519.115171394"/>
			<point x="158" y="519.115171394" type="curve" smooth="yes"/>
			<point x="110" y="519.115171394"/>
			<point x="91" y="489.115171394"/>
			<point x="91" y="447.115171394" type="curve" smooth="yes"/>
			<point x="91" y="342.115171394"/>
			<point x="40" y="210.115171394"/>
			<point x="40" y="60.115171394" type="curve" smooth="yes"/>
			<point x="40" y="-107.884828606"/>
			<point x="127" y="-199.884828606"/>
		</contour>
	</outline>
</glyph>
<glyph name="N.alt2" format="2">
	<advance width="833"/>
	<outline>
		<contour>
			<point x="147" y="100.6431644933" type="curve" smooth="yes"/>
			<point x="195" y="100.6431644933"/>
			<point x="222" y="122.6431644933"/>
			<point x="232" y="159.6431644933" type="curve" smooth="yes"/>
			<point x="252" y="232.6431644933"/>
			<point x="263" y="335.6431644933"/>
			<point x="263" y="460.6431644933" type="curve" smooth="yes"/>
			<point x="263" y="510.6431644933"/>
			<point x="261" y="538.6431644933"/>
			<point x="250" y="606.6431644933" type="curve"/>
			<point x="219" y="600.6431644933" type="line"/>
			<point x="374.3691910075" y="375.5570288029"/>
			<point x="421" y="101.6431644933"/>
			<point x="597" y="101.6431644933" type="curve" smooth="yes"/>
			<point x="727" y="101.6431644933"/>
			<point x="748" y="210.3836225086"/>
			<point x="748" y="360.6431644933" type="curve" smooth="yes"/>
			<point x="748" y="509.6431644933"/>
			<point x="727" y="586.6431644933"/>
			<point x="753" y="715.6431644933" type="curve" smooth="yes"/>
			<point x="761.9643828712" y="758.4729937666"/>
			<point x="745.7920792079" y="833.6431644933"/>
			<point x="662" y="833.6431644933" type="curve" smooth="yes"/>
			<point x="624.8387096774" y="833.6431644933"/>
			<point x="600.1069527969" y="813.0602804012"/>
			<point x="590" y="773.6431644933" type="curve" smooth="yes"/>
			<point x="553" y="635.6431644933"/>
			<point x="586" y="506.6431644933"/>
			<point x="586" y="345.6431644933" type="curve" smooth="yes"/>
			<point x="586" y="257.6431644933"/>
			<point x="549" y="234.6431644933"/>
			<point x="526" y="224.6431644933" type="curve"/>
			<point x="625" y="270.6431644933" type="line"/>
			<point x="495" y="354.6431644933"/>
			<point x="396" y="828.6431644933"/>
			<point x="156" y="828.6431644933" type="curve" smooth="yes"/>
			<point x="104" y="828.6431644933"/>
			<point x="77" y="796.6431644933"/>
			<point x="77" y="756.6431644933" type="curve" smooth="yes"/>
			<point x="77" y="723.6431644933"/>
			<point x="93" y="575.6431644933"/>
			<point x="93" y="460.6431644933" type="curve" smooth="yes"/>
			<point x="93" y="251.6431644933"/>
			<point x="69" y="220.6431644933"/>
			<point x="69" y="164.6431644933" type="curve" smooth="yes"/>
			<point x="69" y="131.6431644933"/>
			<point x="89" y="100.6431644933"/>
		</contour>
	</outline>
</glyph>
<glyph name="O.alt2" format="2">
	<advance width="766"/>
	<outline>
		<contour>
			<point x="340" y="664.9071850304" type="curve" smooth="yes"/>
			<point x="246" y="590.9071850304"/>
			<point x="220" y="546.9071850304"/>
			<point x="220" y="473.9071850304" type="curve" smooth="yes"/>
			<point x="220" y="387.9071850304"/>
			<point x="284" y="347.9071850304"/>
			<point x="367" y="347.9071850304" type="curve" smooth="yes"/>
			<point x="463" y="347.9071850304"/>
			<point x="546" y="407.9071850304"/>
			<point x="546" y="483.9071850304" type="curve" smooth="yes"/>
			<point x="546" y="584.9071850304"/>
			<point x="465" y="721.9071850304"/>
			<point x="381" y="721.9071850304" type="curve" smooth="yes"/>
			<point x="372" y="721.9071850304"/>
			<point x="369" y="711.9071850304"/>
			<point x="369" y="697.9071850304" type="curve" smooth="yes"/>
			<point x="369" y="667.9071850304"/>
			<point x="352" y="652.9071850304"/>
			<point x="334" y="652.9071850304" type="curve" smooth="yes"/>
			<point x="280" y="652.9071850304"/>
			<point x="225" y="698.9071850304"/>
			<point x="225" y="789.9071850304" type="curve" smooth="yes"/>
			<point x="225" y="844.9071850304"/>
			<point x="279" y="894.9071850304"/>
			<point x="374" y="894.9071850304" type="curve" smooth="yes"/>
			<point x="564" y="894.9071850304"/>
			<point x="716" y="676.9071850304"/>
			<point x="716" y="483.9071850304" type="curve" smooth="yes"/>
			<point x="716" y="314.9071850304"/>
			<point x="550" y="173.9071850304"/>
			<point x="367" y="173.9071850304" type="curve" smooth="yes"/>
			<point x="195" y="173.9071850304"/>
			<point x="50" y="293.9071850304"/>
			<point x="50" y="473.9071850304" type="curve" smooth="yes"/>
			<point x="50" y="671.9071850304"/>
			<point x="235" y="801.9071850304"/>
			<point x="277" y="801.9071850304" type="curve" smooth="yes"/>
			<point x="295" y="801.9071850304"/>
			<point x="328" y="790.9071850304"/>
			<point x="342" y="772.9071850304" type="curve" smooth="yes"/>
			<point x="365" y="742.9071850304"/>
			<point x="370" y="688.9071850304"/>
		</contour>
	</outline>
</glyph>
<glyph name="P.alt2" format="2">
	<advance width="655"/>
	<outline>
		<contour>
			<point x="80" y="322.0112949782" type="curve" smooth="yes"/>
			<point x="80" y="217.0112949782"/>
			<point x="128" y="177.0112949782"/>
			<point x="199" y="177.0112949782" type="curve" smooth="yes"/>
			<point x="248" y="177.0112949782"/>
			<point x="258" y="222.0112949782"/>
			<point x="258" y="317.0112949782" type="curve" smooth="yes"/>
			<point x="258" y="459.0112949782"/>
			<point x="214" y="553.0112949782"/>
			<point x="214" y="653.0112949782" type="curve" smooth="yes"/>
			<point x="214" y="696.0112949782"/>
			<point x="259" y="720.0112949782"/>
			<point x="348" y="720.0112949782" type="curve" smooth="yes"/>
			<point x="393" y="720.0112949782"/>
			<point x="436" y="703.0112949782"/>
			<point x="436" y="667.0112949782" type="curve" smooth="yes"/>
			<point x="436" y="605.0112949782"/>
			<point x="359" y="535.0112949782"/>
			<point x="284" y="535.0112949782" type="curve" smooth="yes"/>
			<point x="227" y="535.0112949782"/>
			<point x="215" y="553.0112949782"/>
			<point x="190" y="553.0112949782" type="curve" smooth="yes"/>
			<point x="155" y="553.0112949782"/>
			<point x="127" y="531.0112949782"/>
			<point x="127" y="490.0112949782" type="curve" smooth="yes"/>
			<point x="127" y="423.0112949782"/>
			<point x="197" y="360.0112949782"/>
			<point x="291" y="360.0112949782" type="curve" smooth="yes"/>
			<point x="464" y="360.0112949782"/>
			<point x="609" y="518.0112949782"/>
			<point x="609" y="667.0112949782" type="curve" smooth="yes"/>
			<point x="609" y="812.0112949782"/>
			<point x="491" y="895.0112949782"/>
			<point x="347" y="895.0112949782" type="curve" smooth="yes"/>
			<point x="123" y="895.0112949782"/>
			<point x="41" y="799.0112949782"/>
			<point x="41" y="653.0112949782" type="curve" smooth="yes"/>
			<point x="41" y="550.0112949782"/>
			<point x="80" y="498.0112949782"/>
		</contour>
	</outline>
</glyph>
<glyph name="Q.alt1" format="2">
	<advance width="764"/>
	<outline>
		<contour>
			<point x="496" y="90.7018613742" type="curve" smooth="yes"/>
			<point x="524" y="53.7018613742"/>
			<point x="560" y="-80.2981386258"/>
			<point x="618" y="-153.2981386258" type="curve" smooth="yes"/>
			<point x="673" y="-224.2981386258"/>
			<point x="662" y="-334.2981386258"/>
			<point x="600" y="-334.2981386258" type="curve" smooth="yes"/>
			<point x="568" y="-334.2981386258"/>
			<point x="542" y="-323.2981386258"/>
			<point x="508" y="-285.2981386258" type="curve" smooth="yes"/>
			<point x="446" y="-215.2981386258"/>
			<point x="397" y="-50.2981386258"/>
			<point x="336" y="33.7018613742" type="curve" smooth="yes"/>
			<point x="292" y="94.7018613742"/>
			<point x="309" y="145.7018613742"/>
			<point x="368" y="145.7018613742" type="curve" smooth="yes"/>
			<point x="438" y="145.7018613742"/>
			<point x="471" y="122.7018613742"/>
		</contour>
		<contour>
			<point x="324" y="343.7018613742" type="curve" smooth="yes"/>
			<point x="249" y="309.7018613742"/>
			<point x="206" y="225.7018613742"/>
			<point x="206" y="146.7018613742" type="curve" smooth="yes"/>
			<point x="206" y="70.7018613742"/>
			<point x="254" y="-0.2981386258"/>
			<point x="385" y="-0.2981386258" type="curve" smooth="yes"/>
			<point x="489" y="-0.2981386258"/>
			<point x="554" y="72.7018613742"/>
			<point x="554" y="148.7018613742" type="curve" smooth="yes"/>
			<point x="554" y="243.7018613742"/>
			<point x="490" y="357.7018613742"/>
			<point x="409" y="357.7018613742" type="curve" smooth="yes"/>
			<point x="364" y="357.7018613742"/>
			<point x="341" y="333.7018613742"/>
			<point x="318" y="288.7018613742" type="curve" smooth="yes"/>
			<point x="302" y="257.7018613742"/>
			<point x="287" y="247.7018613742"/>
			<point x="264" y="247.7018613742" type="curve" smooth="yes"/>
			<point x="210" y="247.7018613742"/>
			<point x="183" y="271.7018613742"/>
			<point x="183" y="330.7018613742" type="curve" smooth="yes"/>
			<point x="183" y="420.7018613742"/>
			<point x="303" y="542.7018613742"/>
			<point x="424" y="542.7018613742" type="curve" smooth="yes"/>
			<point x="589" y="542.7018613742"/>
			<point x="729" y="379.7018613742"/>
			<point x="729" y="160.7018613742" type="curve" smooth="yes"/>
			<point x="729" y="-10.2981386258"/>
			<point x="600" y="-175.2981386258"/>
			<point x="385" y="-175.2981386258" type="curve" smooth="yes"/>
			<point x="128" y="-175.2981386258"/>
			<point x="35" y="-22.2981386258"/>
			<point x="35" y="146.7018613742" type="curve" smooth="yes"/>
			<point x="35" y="329.7018613742"/>
			<point x="188" y="489.7018613742"/>
			<point x="278" y="489.7018613742" type="curve" smooth="yes"/>
			<point x="317" y="489.7018613742"/>
			<point x="375" y="450.7018613742"/>
			<point x="375" y="407.7018613742" type="curve" smooth="yes"/>
			<point x="375" y="380.7018613742"/>
			<point x="370" y="364.7018613742"/>
		</contour>
	</outline>
</glyph>
<glyph name="R.alt1" format="2">
	<advance width="756"/>
	<outline>
		<contour>
			<point x="111" y="604.5406672901" type="curve" smooth="yes"/>
			<point x="55" y="604.5406672901"/>
			<point x="35" y="563.5406672901"/>
			<point x="48" y="517.5406672901" type="curve" smooth="yes"/>
			<point x="76" y="418.5406672901"/>
			<point x="102" y="351.5406672901"/>
			<point x="99" y="242.5406672901" type="curve"/>
			<point x="64" y="169.5406672901"/>
			<point x="48" y="104.5406672901"/>
			<point x="48" y="55.5406672901" type="curve" smooth="yes"/>
			<point x="48" y="-39.4593327099"/>
			<point x="123" y="-83.4593327099"/>
			<point x="176" y="-83.4593327099" type="curve" smooth="yes"/>
			<point x="217" y="-83.4593327099"/>
			<point x="233" y="-67.4593327099"/>
			<point x="233" y="-26.4593327099" type="curve" smooth="yes"/>
			<point x="233" y="398.5406672901"/>
			<point x="479" y="464.5406672901"/>
			<point x="508" y="464.5406672901" type="curve" smooth="yes"/>
			<point x="521" y="464.5406672901"/>
			<point x="526" y="460.5406672901"/>
			<point x="526" y="449.5406672901" type="curve" smooth="yes"/>
			<point x="526" y="407.5406672901"/>
			<point x="445" y="300.5406672901"/>
			<point x="210" y="252.5406672901" type="curve" smooth="yes"/>
			<point x="171" y="244.5406672901"/>
			<point x="156" y="166.5406672901"/>
			<point x="179" y="135.5406672901" type="curve" smooth="yes"/>
			<point x="258" y="33.5406672901"/>
			<point x="527" y="-82.4593327099"/>
			<point x="602" y="-82.4593327099" type="curve" smooth="yes"/>
			<point x="680" y="-82.4593327099"/>
			<point x="734" y="-39.4593327099"/>
			<point x="734" y="12.5406672901" type="curve" smooth="yes"/>
			<point x="734" y="43.5406672901"/>
			<point x="704" y="62.5406672901"/>
			<point x="640" y="77.5406672901" type="curve" smooth="yes"/>
			<point x="570" y="94.5406672901"/>
			<point x="484" y="122.5406672901"/>
			<point x="403" y="162.5406672901" type="curve"/>
			<point x="578" y="215.5406672901"/>
			<point x="700" y="329.5406672901"/>
			<point x="700" y="458.5406672901" type="curve" smooth="yes"/>
			<point x="700" y="559.5406672901"/>
			<point x="648" y="639.5406672901"/>
			<point x="520" y="639.5406672901" type="curve" smooth="yes"/>
			<point x="403" y="639.5406672901"/>
			<point x="294" y="565.5406672901"/>
			<point x="230" y="453.5406672901" type="curve"/>
			<point x="253" y="453.5406672901" type="line"/>
			<point x="228" y="566.5406672901"/>
			<point x="192" y="604.5406672901"/>
		</contour>
	</outline>
</glyph>
<glyph name="R.alt2" format="2">
	<advance width="756"/>
	<outline>
		<contour>
			<point x="111" y="837.3021188013" type="curve" smooth="yes"/>
			<point x="55" y="837.3021188013"/>
			<point x="35" y="796.3021188013"/>
			<point x="48" y="750.3021188013" type="curve" smooth="yes"/>
			<point x="76" y="651.3021188013"/>
			<point x="102" y="584.3021188013"/>
			<point x="99" y="475.3021188013" type="curve"/>
			<point x="64" y="402.3021188013"/>
			<point x="48" y="337.3021188013"/>
			<point x="48" y="288.3021188013" type="curve" smooth="yes"/>
			<point x="48" y="193.3021188013"/>
			<point x="123" y="149.3021188013"/>
			<point x="176" y="149.3021188013" type="curve" smooth="yes"/>
			<point x="217" y="149.3021188013"/>
			<point x="233" y="165.3021188013"/>
			<point x="233" y="206.3021188013" type="curve" smooth="yes"/>
			<point x="233" y="631.3021188013"/>
			<point x="479" y="697.3021188013"/>
			<point x="508" y="697.3021188013" type="curve" smooth="yes"/>
			<point x="521" y="697.3021188013"/>
			<point x="526" y="693.3021188013"/>
			<point x="526" y="682.3021188013" type="curve" smooth="yes"/>
			<point x="526" y="640.3021188013"/>
			<point x="445" y="533.3021188013"/>
			<point x="210" y="485.3021188013" type="curve" smooth="yes"/>
			<point x="171" y="477.3021188013"/>
			<point x="156" y="399.3021188013"/>
			<point x="179" y="368.3021188013" type="curve" smooth="yes"/>
			<point x="258" y="266.3021188013"/>
			<point x="527" y="150.3021188013"/>
			<point x="602" y="150.3021188013" type="curve" smooth="yes"/>
			<point x="680" y="150.3021188013"/>
			<point x="734" y="193.3021188013"/>
			<point x="734" y="245.3021188013" type="curve" smooth="yes"/>
			<point x="734" y="276.3021188013"/>
			<point x="704" y="295.3021188013"/>
			<point x="640" y="310.3021188013" type="curve" smooth="yes"/>
			<point x="570" y="327.3021188013"/>
			<point x="484" y="355.3021188013"/>
			<point x="403" y="395.3021188013" type="curve"/>
			<point x="578" y="448.3021188013"/>
			<point x="700" y="562.3021188013"/>
			<point x="700" y="691.3021188013" type="curve" smooth="yes"/>
			<point x="700" y="792.3021188013"/>
			<point x="648" y="872.3021188013"/>
			<point x="520" y="872.3021188013" type="curve" smooth="yes"/>
			<point x="403" y="872.3021188013"/>
			<point x="294" y="798.3021188013"/>
			<point x="230" y="686.3021188013" type="curve"/>
			<point x="253" y="686.3021188013" type="line"/>
			<point x="228" y="799.3021188013"/>
			<point x="192" y="837.3021188013"/>
		</contour>
	</outline>
</glyph>
<glyph name="S.alt2" format="2">
	<advance width="603"/>
	<outline>
		<contour>
			<point x="262" y="172.2994515497" type="curve" smooth="yes"/>
			<point x="459" y="172.2994515497"/>
			<point x="556" y="227.2994515497"/>
			<point x="556" y="349.2994515497" type="curve" smooth="yes"/>
			<point x="556" y="543.2994515497"/>
			<point x="226" y="566.2994515497"/>
			<point x="226" y="632.2994515497" type="curve" smooth="yes"/>
			<point x="226" y="662.2994515497"/>
			<point x="331" y="696.2994515497"/>
			<point x="480" y="727.2994515497" type="curve" smooth="yes"/>
			<point x="512" y="733.2994515497"/>
			<point x="534" y="762.2994515497"/>
			<point x="534" y="796.2994515497" type="curve" smooth="yes"/>
			<point x="534" y="845.2994515497"/>
			<point x="510" y="891.2994515497"/>
			<point x="438" y="891.2994515497" type="curve" smooth="yes"/>
			<point x="315" y="891.2994515497"/>
			<point x="47" y="793.2994515497"/>
			<point x="47" y="636.2994515497" type="curve" smooth="yes"/>
			<point x="47" y="438.2994515497"/>
			<point x="342" y="417.2994515497"/>
			<point x="375" y="353.2994515497" type="curve"/>
			<point x="330" y="342.2994515497"/>
			<point x="304" y="339.2994515497"/>
			<point x="241" y="339.2994515497" type="curve" smooth="yes"/>
			<point x="166" y="339.2994515497"/>
			<point x="148" y="366.2994515497"/>
			<point x="112" y="366.2994515497" type="curve" smooth="yes"/>
			<point x="70" y="366.2994515497"/>
			<point x="60" y="345.2994515497"/>
			<point x="60" y="310.2994515497" type="curve" smooth="yes"/>
			<point x="60" y="240.2994515497"/>
			<point x="131" y="172.2994515497"/>
		</contour>
	</outline>
</glyph>
<glyph name="V.alt1" format="2">
	<advance width="689"/>
	<outline>
		<contour>
			<point x="352" y="-148.9901264718" type="curve" smooth="yes"/>
			<point x="409" y="-148.9901264718"/>
			<point x="429" y="-119.9901264718"/>
			<point x="445" y="-66.9901264718" type="curve" smooth="yes"/>
			<point x="502" y="107.0098735282"/>
			<point x="568" y="221.0098735282"/>
			<point x="647" y="350.0098735282" type="curve" smooth="yes"/>
			<point x="682" y="408.0098735282"/>
			<point x="687" y="418.0098735282"/>
			<point x="687" y="469.0098735282" type="curve" smooth="yes"/>
			<point x="687" y="529.0098735282"/>
			<point x="655" y="578.0098735282"/>
			<point x="602" y="578.0098735282" type="curve" smooth="yes"/>
			<point x="571" y="578.0098735282"/>
			<point x="546" y="572.0098735282"/>
			<point x="497" y="496.0098735282" type="curve" smooth="yes"/>
			<point x="414" y="367.0098735282"/>
			<point x="346" y="229.0098735282"/>
			<point x="302" y="61.0098735282" type="curve"/>
			<point x="348" y="120.0098735282" type="line"/>
			<point x="292" y="200.0098735282"/>
			<point x="261" y="426.0098735282"/>
			<point x="169" y="532.0098735282" type="curve" smooth="yes"/>
			<point x="139" y="566.0098735282"/>
			<point x="113" y="575.0098735282"/>
			<point x="82" y="575.0098735282" type="curve" smooth="yes"/>
			<point x="23" y="575.0098735282"/>
			<point x="-3" y="534.0098735282"/>
			<point x="-3" y="492.0098735282" type="curve" smooth="yes"/>
			<point x="-3" y="449.0098735282"/>
			<point x="22" y="417.0098735282"/>
			<point x="43" y="387.0098735282" type="curve" smooth="yes"/>
			<point x="117" y="280.0098735282"/>
			<point x="100" y="178.0098735282"/>
			<point x="224" y="-47.9901264718" type="curve" smooth="yes"/>
			<point x="264" y="-121.9901264718"/>
			<point x="292" y="-148.9901264718"/>
		</contour>
	</outline>
</glyph>
<glyph name="V.alt2" format="2">
	<advance width="689"/>
	<outline>
		<contour>
			<point x="352" y="124.1101865767" type="curve" smooth="yes"/>
			<point x="409" y="124.1101865767"/>
			<point x="429" y="153.1101865767"/>
			<point x="445" y="206.1101865767" type="curve" smooth="yes"/>
			<point x="502" y="380.1101865767"/>
			<point x="568" y="494.1101865767"/>
			<point x="647" y="623.1101865767" type="curve" smooth="yes"/>
			<point x="682" y="681.1101865767"/>
			<point x="687" y="691.1101865767"/>
			<point x="687" y="742.1101865767" type="curve" smooth="yes"/>
			<point x="687" y="802.1101865767"/>
			<point x="655" y="851.1101865767"/>
			<point x="602" y="851.1101865767" type="curve" smooth="yes"/>
			<point x="571" y="851.1101865767"/>
			<point x="546" y="845.1101865767"/>
			<point x="497" y="769.1101865767" type="curve" smooth="yes"/>
			<point x="414" y="640.1101865767"/>
			<point x="346" y="502.1101865767"/>
			<point x="302" y="334.1101865767" type="curve"/>
			<point x="348" y="393.1101865767" type="line"/>
			<point x="292" y="473.1101865767"/>
			<point x="261" y="699.1101865767"/>
			<point x="169" y="805.1101865767" type="curve" smooth="yes"/>
			<point x="139" y="839.1101865767"/>
			<point x="113" y="848.1101865767"/>
			<point x="82" y="848.1101865767" type="curve" smooth="yes"/>
			<point x="23" y="848.1101865767"/>
			<point x="-3" y="807.1101865767"/>
			<point x="-3" y="765.1101865767" type="curve" smooth="yes"/>
			<point x="-3" y="722.1101865767"/>
			<point x="22" y="690.1101865767"/>
			<point x="43" y="660.1101865767" type="curve" smooth="yes"/>
			<point x="117" y="553.1101865767"/>
			<point x="100" y="451.1101865767"/>
			<point x="224" y="225.1101865767" type="curve" smooth="yes"/>
			<point x="264" y="151.1101865767"/>
			<point x="292" y="124.1101865767"/>
		</contour>
	</outline>
</glyph>
<glyph name="W.alt1" format="2">
	<advance width="1005"/>
	<outline>
		<contour>
			<point x="230" y="453.2598700184" type="curve" smooth="yes"/>
			<point x="227" y="503.2598700184"/>
			<point x="180" y="546.2598700184"/>
			<point x="93" y="546.2598700184" type="curve" smooth="yes"/>
			<point x="48" y="546.2598700184"/>
			<point x="31" y="510.2598700184"/>
			<point x="34" y="465.2598700184" type="curve" smooth="yes"/>
			<point x="46" y="284.2598700184"/>
			<point x="96" y="89.2598700184"/>
			<point x="163" y="-81.7401299816" type="curve" smooth="yes"/>
			<point x="195" y="-162.7401299816"/>
			<point x="236" y="-173.7401299816"/>
			<point x="263" y="-173.7401299816" type="curve" smooth="yes"/>
			<point x="306" y="-173.7401299816"/>
			<point x="327" y="-152.7401299816"/>
			<point x="341" y="-106.7401299816" type="curve" smooth="yes"/>
			<point x="392" y="56.2598700184"/>
			<point x="448" y="186.2598700184"/>
			<point x="524" y="275.2598700184" type="curve" smooth="yes"/>
			<point x="546" y="300.2598700184"/>
			<point x="443" y="325.2598700184"/>
			<point x="466" y="294.2598700184" type="curve" smooth="yes"/>
			<point x="530" y="209.2598700184"/>
			<point x="563" y="0.2598700184"/>
			<point x="648" y="-106.7401299816" type="curve" smooth="yes"/>
			<point x="687" y="-155.7401299816"/>
			<point x="719" y="-177.7401299816"/>
			<point x="772" y="-177.7401299816" type="curve" smooth="yes"/>
			<point x="797" y="-177.7401299816"/>
			<point x="823" y="-166.7401299816"/>
			<point x="841" y="-123.7401299816" type="curve" smooth="yes"/>
			<point x="902" y="27.2598700184"/>
			<point x="918" y="249.2598700184"/>
			<point x="960" y="393.2598700184" type="curve" smooth="yes"/>
			<point x="978" y="456.2598700184"/>
			<point x="962" y="546.2598700184"/>
			<point x="859" y="546.2598700184" type="curve" smooth="yes"/>
			<point x="831" y="546.2598700184"/>
			<point x="808" y="537.2598700184"/>
			<point x="792" y="505.2598700184" type="curve" smooth="yes"/>
			<point x="765" y="455.2598700184"/>
			<point x="743" y="201.2598700184"/>
			<point x="701" y="76.2598700184" type="curve" smooth="yes"/>
			<point x="677" y="3.2598700184"/>
			<point x="834" y="-22.7401299816"/>
			<point x="786" y="41.2598700184" type="curve" smooth="yes"/>
			<point x="698" y="170.2598700184"/>
			<point x="663" y="371.2598700184"/>
			<point x="625" y="428.2598700184" type="curve" smooth="yes"/>
			<point x="598" y="469.2598700184"/>
			<point x="572" y="486.2598700184"/>
			<point x="517" y="486.2598700184" type="curve" smooth="yes"/>
			<point x="475" y="486.2598700184"/>
			<point x="442" y="465.2598700184"/>
			<point x="408" y="424.2598700184" type="curve" smooth="yes"/>
			<point x="342" y="343.2598700184"/>
			<point x="281" y="241.2598700184"/>
			<point x="219" y="62.2598700184" type="curve" smooth="yes"/>
			<point x="204" y="20.2598700184"/>
			<point x="320" y="13.2598700184"/>
			<point x="275" y="151.2598700184" type="curve" smooth="yes"/>
			<point x="247" y="246.2598700184"/>
			<point x="239" y="321.2598700184"/>
		</contour>
	</outline>
</glyph>
<glyph name="X.alt1" format="2">
	<advance width="696"/>
	<outline>
		<contour>
			<point x="251" y="531.7872157395" type="curve" smooth="yes"/>
			<point x="344" y="275.7872157395"/>
			<point x="523" y="213.7872157395"/>
			<point x="620" y="88.7872157395" type="curve" smooth="yes"/>
			<point x="705" y="-19.2127842605"/>
			<point x="646" y="-116.2127842605"/>
			<point x="560" y="-116.2127842605" type="curve" smooth="yes"/>
			<point x="519" y="-116.2127842605"/>
			<point x="480" y="-93.2127842605"/>
			<point x="450" y="-43.2127842605" type="curve" smooth="yes"/>
			<point x="380" y="72.7872157395"/>
			<point x="94" y="293.7872157395"/>
			<point x="44" y="448.7872157395" type="curve" smooth="yes"/>
			<point x="6" y="559.7872157395"/>
			<point x="36" y="608.7872157395"/>
			<point x="140" y="608.7872157395" type="curve" smooth="yes"/>
			<point x="198" y="608.7872157395"/>
			<point x="239" y="565.7872157395"/>
		</contour>
		<contour>
			<point x="621" y="433.7872157395" type="curve" smooth="yes"/>
			<point x="494" y="297.7872157395"/>
			<point x="298" y="100.7872157395"/>
			<point x="211" y="-52.2127842605" type="curve" smooth="yes"/>
			<point x="188" y="-93.2127842605"/>
			<point x="169" y="-109.2127842605"/>
			<point x="128" y="-109.2127842605" type="curve" smooth="yes"/>
			<point x="65" y="-109.2127842605"/>
			<point x="32" y="-18.2127842605"/>
			<point x="101" y="90.7872157395" type="curve" smooth="yes"/>
			<point x="245" y="318.7872157395"/>
			<point x="396" y="482.7872157395"/>
			<point x="481" y="558.7872157395" type="curve" smooth="yes"/>
			<point x="515" y="590.7872157395"/>
			<point x="537" y="602.7872157395"/>
			<point x="571" y="602.7872157395" type="curve" smooth="yes"/>
			<point x="635" y="602.7872157395"/>
			<point x="688" y="503.7872157395"/>
		</contour>
	</outline>
</glyph>
<glyph name="X.alt2" format="2">
	<advance width="696"/>
	<outline>
		<contour>
			<point x="251" y="835.7994310533" type="curve" smooth="yes"/>
			<point x="344" y="579.7994310533"/>
			<point x="523" y="517.7994310533"/>
			<point x="620" y="392.7994310533" type="curve" smooth="yes"/>
			<point x="705" y="284.7994310533"/>
			<point x="646" y="187.7994310533"/>
			<point x="560" y="187.7994310533" type="curve" smooth="yes"/>
			<point x="519" y="187.7994310533"/>
			<point x="480" y="210.7994310533"/>
			<point x="450" y="260.7994310533" type="curve" smooth="yes"/>
			<point x="380" y="376.7994310533"/>
			<point x="94" y="597.7994310533"/>
			<point x="44" y="752.7994310533" type="curve" smooth="yes"/>
			<point x="6" y="863.7994310533"/>
			<point x="36" y="912.7994310533"/>
			<point x="140" y="912.7994310533" type="curve" smooth="yes"/>
			<point x="198" y="912.7994310533"/>
			<point x="239" y="869.7994310533"/>
		</contour>
		<contour>
			<point x="621" y="737.7994310533" type="curve" smooth="yes"/>
			<point x="494" y="601.7994310533"/>
			<point x="298" y="404.7994310533"/>
			<point x="211" y="251.7994310533" type="curve" smooth="yes"/>
			<point x="188" y="210.7994310533"/>
			<point x="169" y="194.7994310533"/>
			<point x="128" y="194.7994310533" type="curve" smooth="yes"/>
			<point x="65" y="194.7994310533"/>
			<point x="32" y="285.7994310533"/>
			<point x="101" y="394.7994310533" type="curve" smooth="yes"/>
			<point x="245" y="622.7994310533"/>
			<point x="396" y="786.7994310533"/>
			<point x="481" y="862.7994310533" type="curve" smooth="yes"/>
			<point x="515" y="894.7994310533"/>
			<point x="537" y="906.7994310533"/>
			<point x="571" y="906.7994310533" type="curve" smooth="yes"/>
			<point x="635" y="906.7994310533"/>
			<point x="688" y="807.7994310533"/>
		</contour>
	</outline>
</glyph>
<glyph name="Y.alt1" format="2">
	<advance width="636"/>
	<outline>
		<contour>
			<point x="568" y="379.6565412817" type="curve" smooth="yes"/>
			<point x="442" y="283.6565412817"/>
			<point x="332" y="56.6565412817"/>
			<point x="292" y="-124.3434587183" type="curve" smooth="yes"/>
			<point x="285" y="-154.3434587183"/>
			<point x="263" y="-168.3434587183"/>
			<point x="222" y="-168.3434587183" type="curve" smooth="yes"/>
			<point x="162" y="-168.3434587183"/>
			<point x="132" y="-110.3434587183"/>
			<point x="149" y="-25.3434587183" type="curve" smooth="yes"/>
			<point x="180" y="137.6565412817"/>
			<point x="312" y="400.6565412817"/>
			<point x="479" y="531.6565412817" type="curve" smooth="yes"/>
			<point x="507" y="553.6565412817"/>
			<point x="522" y="558.6565412817"/>
			<point x="537" y="558.6565412817" type="curve" smooth="yes"/>
			<point x="578" y="558.6565412817"/>
			<point x="607" y="517.6565412817"/>
			<point x="607" y="466.6565412817" type="curve" smooth="yes"/>
			<point x="607" y="432.6565412817"/>
			<point x="599" y="405.6565412817"/>
		</contour>
		<contour>
			<point x="163" y="503.6565412817" type="curve" smooth="yes"/>
			<point x="234" y="377.6565412817"/>
			<point x="270" y="371.6565412817"/>
			<point x="348" y="218.6565412817" type="curve" smooth="yes"/>
			<point x="372" y="170.6565412817"/>
			<point x="347" y="87.6565412817"/>
			<point x="296" y="87.6565412817" type="curve" smooth="yes"/>
			<point x="270" y="87.6565412817"/>
			<point x="250" y="98.6565412817"/>
			<point x="238" y="119.6565412817" type="curve" smooth="yes"/>
			<point x="146" y="272.6565412817"/>
			<point x="109" y="278.6565412817"/>
			<point x="43" y="369.6565412817" type="curve" smooth="yes"/>
			<point x="23" y="397.6565412817"/>
			<point x="11" y="426.6565412817"/>
			<point x="11" y="469.6565412817" type="curve" smooth="yes"/>
			<point x="11" y="520.6565412817"/>
			<point x="40" y="555.6565412817"/>
			<point x="77" y="555.6565412817" type="curve" smooth="yes"/>
			<point x="112" y="555.6565412817"/>
			<point x="138" y="547.6565412817"/>
		</contour>
	</outline>
</glyph>
<glyph name="Z.alt1" format="2">
	<advance width="681"/>
	<outline>
		<contour>
			<point x="81" y="609.5892413517" type="curve" smooth="yes"/>
			<point x="179" y="632.5892413517"/>
			<point x="276" y="642.5892413517"/>
			<point x="370" y="642.5892413517" type="curve" smooth="yes"/>
			<point x="580" y="642.5892413517"/>
			<point x="634" y="564.5892413517"/>
			<point x="634" y="481.5892413517" type="curve" smooth="yes"/>
			<point x="634" y="372.5892413517"/>
			<point x="606" y="335.5892413517"/>
			<point x="407" y="221.5892413517" type="curve" smooth="yes"/>
			<point x="239" y="124.5892413517"/>
			<point x="232" y="116.5892413517"/>
			<point x="211" y="68.5892413517" type="curve" smooth="yes"/>
			<point x="197" y="36.5892413517"/>
			<point x="143" y="116.5892413517"/>
			<point x="171" y="103.5892413517" type="curve" smooth="yes"/>
			<point x="195" y="92.5892413517"/>
			<point x="215" y="87.5892413517"/>
			<point x="255" y="87.5892413517" type="curve" smooth="yes"/>
			<point x="318" y="87.5892413517"/>
			<point x="398" y="106.5892413517"/>
			<point x="479" y="106.5892413517" type="curve" smooth="yes"/>
			<point x="572" y="106.5892413517"/>
			<point x="658" y="78.5892413517"/>
			<point x="658" y="-14.4107586483" type="curve" smooth="yes"/>
			<point x="658" y="-51.4107586483"/>
			<point x="633" y="-74.4107586483"/>
			<point x="600" y="-74.4107586483" type="curve" smooth="yes"/>
			<point x="557" y="-74.4107586483"/>
			<point x="530" y="-67.4107586483"/>
			<point x="463" y="-67.4107586483" type="curve" smooth="yes"/>
			<point x="380" y="-67.4107586483"/>
			<point x="302" y="-78.4107586483"/>
			<point x="235" y="-78.4107586483" type="curve" smooth="yes"/>
			<point x="93" y="-78.4107586483"/>
			<point x="43" y="-7.4107586483"/>
			<point x="43" y="65.5892413517" type="curve" smooth="yes"/>
			<point x="43" y="155.5892413517"/>
			<point x="68" y="215.5892413517"/>
			<point x="297" y="349.5892413517" type="curve" smooth="yes"/>
			<point x="443" y="436.5892413517"/>
			<point x="452" y="448.5892413517"/>
			<point x="463" y="476.5892413517" type="curve" smooth="yes"/>
			<point x="475" y="508.5892413517"/>
			<point x="512" y="432.5892413517"/>
			<point x="488" y="451.5892413517" type="curve" smooth="yes"/>
			<point x="472" y="463.5892413517"/>
			<point x="468" y="469.5892413517"/>
			<point x="417" y="469.5892413517" type="curve" smooth="yes"/>
			<point x="301" y="469.5892413517"/>
			<point x="219" y="443.5892413517"/>
			<point x="169" y="443.5892413517" type="curve" smooth="yes"/>
			<point x="110" y="443.5892413517"/>
			<point x="35" y="474.5892413517"/>
			<point x="35" y="545.5892413517" type="curve" smooth="yes"/>
			<point x="35" y="574.5892413517"/>
			<point x="49" y="601.5892413517"/>
		</contour>
	</outline>
</glyph>
<glyph name="Z.alt2" format="2">
	<advance width="681"/>
	<outline>
		<contour>
			<point x="81" y="740.360821388" type="curve" smooth="yes"/>
			<point x="179" y="763.360821388"/>
			<point x="276" y="773.360821388"/>
			<point x="370" y="773.360821388" type="curve" smooth="yes"/>
			<point x="580" y="773.360821388"/>
			<point x="634" y="695.360821388"/>
			<point x="634" y="612.360821388" type="curve" smooth="yes"/>
			<point x="634" y="503.360821388"/>
			<point x="606" y="466.360821388"/>
			<point x="407" y="352.360821388" type="curve" smooth="yes"/>
			<point x="239" y="255.360821388"/>
			<point x="232" y="247.360821388"/>
			<point x="211" y="199.360821388" type="curve" smooth="yes"/>
			<point x="197" y="167.360821388"/>
			<point x="143" y="247.360821388"/>
			<point x="171" y="234.360821388" type="curve" smooth="yes"/>
			<point x="195" y="223.360821388"/>
			<point x="215" y="218.360821388"/>
			<point x="255" y="218.360821388" type="curve" smooth="yes"/>
			<point x="318" y="218.360821388"/>
			<point x="398" y="237.360821388"/>
			<point x="479" y="237.360821388" type="curve" smooth="yes"/>
			<point x="572" y="237.360821388"/>
			<point x="658" y="209.360821388"/>
			<point x="658" y="116.360821388" type="curve" smooth="yes"/>
			<point x="658" y="79.360821388"/>
			<point x="633" y="56.360821388"/>
			<point x="600" y="56.360821388" type="curve" smooth="yes"/>
			<point x="557" y="56.360821388"/>
			<point x="530" y="63.360821388"/>
			<point x="463" y="63.360821388" type="curve" smooth="yes"/>
			<point x="380" y="63.360821388"/>
			<point x="302" y="52.360821388"/>
			<point x="235" y="52.360821388" type="curve" smooth="yes"/>
			<point x="93" y="52.360821388"/>
			<point x="43" y="123.360821388"/>
			<point x="43" y="196.360821388" type="curve" smooth="yes"/>
			<point x="43" y="286.360821388"/>
			<point x="68" y="346.360821388"/>
			<point x="297" y="480.360821388" type="curve" smooth="yes"/>
			<point x="443" y="567.360821388"/>
			<point x="452" y="579.360821388"/>
			<point x="463" y="607.360821388" type="curve" smooth="yes"/>
			<point x="475" y="639.360821388"/>
			<point x="512" y="563.360821388"/>
			<point x="488" y="582.360821388" type="curve" smooth="yes"/>
			<point x="472" y="594.360821388"/>
			<point x="468" y="600.360821388"/>
			<point x="417" y="600.360821388" type="curve" smooth="yes"/>
			<point x="301" y="600.360821388"/>
			<point x="219" y="574.360821388"/>
			<point x="169" y="574.360821388" type="curve" smooth="yes"/>
			<point x="110" y="574.360821388"/>
			<point x="35" y="605.360821388"/>
			<point x="35" y="676.360821388" type="curve" smooth="yes"/>
			<point x="35" y="705.360821388"/>
			<point x="49" y="732.360821388"/>
		</contour>
	</outline>
</glyph>
<glyph name="a.alt1" format="2">
	<advance width="704"/>
	<outline>
		<contour>
			<point x="362" y="206.6408373964" type="curve" smooth="yes"/>
			<point x="367" y="240.6408373964"/>
			<point x="399" y="260.6408373964"/>
			<point x="432" y="260.6408373964" type="curve" smooth="yes"/>
			<point x="489" y="260.6408373964"/>
			<point x="533" y="227.6408373964"/>
			<point x="550" y="186.6408373964" type="curve" smooth="yes"/>
			<point x="590" y="99.6408373964"/>
			<point x="606" y="37.6408373964"/>
			<point x="677" y="-38.3591626036" type="curve" smooth="yes"/>
			<point x="716" y="-80.3591626036"/>
			<point x="678" y="-192.3591626036"/>
			<point x="602" y="-192.3591626036" type="curve" smooth="yes"/>
			<point x="577" y="-192.3591626036"/>
			<point x="561" y="-181.3591626036"/>
			<point x="551" y="-169.3591626036" type="curve" smooth="yes"/>
			<point x="493" y="-98.3591626036"/>
			<point x="462" y="-44.3591626036"/>
			<point x="423" y="63.6408373964" type="curve"/>
			<point x="483" y="69.6408373964" type="line"/>
			<point x="423" y="-133.3591626036"/>
			<point x="315" y="-195.3591626036"/>
			<point x="207" y="-195.3591626036" type="curve" smooth="yes"/>
			<point x="99" y="-195.3591626036"/>
			<point x="25" y="-134.3591626036"/>
			<point x="25" y="-42.3591626036" type="curve" smooth="yes"/>
			<point x="25" y="132.6408373964"/>
			<point x="186" y="340.6408373964"/>
			<point x="337" y="340.6408373964" type="curve" smooth="yes"/>
			<point x="393" y="340.6408373964"/>
			<point x="437" y="302.6408373964"/>
			<point x="437" y="234.6408373964" type="curve" smooth="yes"/>
			<point x="437" y="211.6408373964"/>
			<point x="422" y="199.6408373964"/>
			<point x="405" y="195.6408373964" type="curve" smooth="yes"/>
			<point x="281" y="172.6408373964"/>
			<point x="192" y="56.6408373964"/>
			<point x="192" y="-58.3591626036" type="curve" smooth="yes"/>
			<point x="192" y="-77.3591626036"/>
			<point x="194" y="-90.3591626036"/>
			<point x="201" y="-112.3591626036" type="curve"/>
			<point x="127" y="1.6408373964" type="line"/>
			<point x="160" y="-21.3591626036"/>
			<point x="182" y="-27.3591626036"/>
			<point x="214" y="-27.3591626036" type="curve" smooth="yes"/>
			<point x="276" y="-27.3591626036"/>
			<point x="339" y="52.6408373964"/>
		</contour>
	</outline>
</glyph>
<glyph name="ampersand.alt1" format="2">
	<advance width="713"/>
	<outline>
		<contour>
			<point x="429" y="388.2986424071"/>
			<point x="398" y="420.2986424071"/>
			<point x="308" y="420.2986424071" type="curve" smooth="yes"/>
			<point x="243" y="420.2986424071"/>
			<point x="208" y="400.4873216524"/>
			<point x="208" y="370.2986424071" type="curve" smooth="yes"/>
			<point x="208" y="342.6347079809"/>
			<point x="223" y="325.2986424071"/>
			<point x="390" y="245.2986424071" type="curve" smooth="yes"/>
			<point x="652" y="119.2986424071"/>
			<point x="679" y="35.2986424071"/>
			<point x="679" y="-86.7013575929" type="curve" smooth="yes"/>
			<point x="679" y="-165.7013575929"/>
			<point x="643" y="-285.7013575929"/>
			<point x="544" y="-285.7013575929" type="curve" smooth="yes"/>
			<point x="498" y="-285.7013575929"/>
			<point x="469" y="-259.7013575929"/>
			<point x="469" y="-212.7013575929" type="curve" smooth="yes"/>
			<point x="469" y="-158.7013575929"/>
			<point x="509" y="-153.7013575929"/>
			<point x="509" y="-91.7013575929" type="curve" smooth="yes"/>
			<point x="509" y="-27.7013575929"/>
			<point x="469" y="24.2986424071"/>
			<point x="248" y="133.2986424071" type="curve" smooth="yes"/>
			<point x="60" y="226.2986424071"/>
			<point x="38" y="300.2986424071"/>
			<point x="38" y="374.2986424071" type="curve" smooth="yes"/>
			<point x="38" y="480.2986424071"/>
			<point x="113" y="590.2986424071"/>
			<point x="304" y="590.2986424071" type="curve" smooth="yes"/>
			<point x="383" y="590.2986424071"/>
			<point x="442" y="578.2986424071"/>
			<point x="502" y="551.2986424071" type="curve" smooth="yes"/>
			<point x="534" y="536.2986424071"/>
			<point x="552" y="505.2986424071"/>
			<point x="552" y="472.2986424071" type="curve" smooth="yes"/>
			<point x="552" y="426.2986424071"/>
			<point x="511" y="388.2986424071"/>
			<point x="466" y="388.2986424071" type="curve" smooth="yes"/>
		</contour>
		<contour>
			<point x="254" y="164.2986424071" type="curve" smooth="yes"/>
			<point x="226" y="128.2986424071"/>
			<point x="218" y="111.2986424071"/>
			<point x="218" y="82.2986424071" type="curve" smooth="yes"/>
			<point x="218" y="48.2986424071"/>
			<point x="247" y="31.2986424071"/>
			<point x="277" y="31.2986424071" type="curve" smooth="yes"/>
			<point x="366" y="31.2986424071"/>
			<point x="437" y="112.2986424071"/>
			<point x="539" y="291.2986424071" type="curve" smooth="yes"/>
			<point x="553" y="318.2986424071"/>
			<point x="565" y="335.2986424071"/>
			<point x="592" y="335.2986424071" type="curve" smooth="yes"/>
			<point x="637" y="335.2986424071"/>
			<point x="680" y="299.2986424071"/>
			<point x="680" y="242.2986424071" type="curve" smooth="yes"/>
			<point x="680" y="228.2986424071"/>
			<point x="673" y="197.2986424071"/>
			<point x="651" y="163.2986424071" type="curve" smooth="yes"/>
			<point x="490" y="-86.7013575929"/>
			<point x="400" y="-129.7013575929"/>
			<point x="263" y="-129.7013575929" type="curve" smooth="yes"/>
			<point x="146" y="-129.7013575929"/>
			<point x="48" y="-57.7013575929"/>
			<point x="48" y="62.2986424071" type="curve" smooth="yes"/>
			<point x="48" y="149.2986424071"/>
			<point x="89" y="206.2986424071"/>
			<point x="144" y="242.2986424071" type="curve" smooth="yes"/>
			<point x="179" y="265.2986424071"/>
			<point x="214" y="269.2986424071"/>
			<point x="247" y="244.2986424071" type="curve" smooth="yes"/>
			<point x="266" y="230.2986424071"/>
			<point x="271" y="186.2986424071"/>
		</contour>
	</outline>
</glyph>
